G04 EAGLE Gerber X2 export*
%TF.Part,Single*%
%TF.FileFunction,Other,Board Outline*%
%TF.FilePolarity,Positive*%
%TF.GenerationSoftware,Autodesk,EAGLE,9.1.3*%
%TF.CreationDate,2018-09-28T09:40:22Z*%
G75*
%MOIN*%
%FSLAX34Y34*%
%LPD*%
%AMOC8*
5,1,8,0,0,1.08239X$1,22.5*%
G01*
%ADD10C,0.000000*%


D10*
X16142Y0D02*
X0Y0D01*
X0Y20079D01*
X16142Y20079D01*
X16142Y0D01*
X14095Y1575D02*
X14097Y1626D01*
X14103Y1677D01*
X14113Y1727D01*
X14126Y1777D01*
X14144Y1825D01*
X14164Y1872D01*
X14189Y1917D01*
X14217Y1960D01*
X14248Y2001D01*
X14282Y2039D01*
X14319Y2074D01*
X14358Y2107D01*
X14400Y2137D01*
X14444Y2163D01*
X14490Y2185D01*
X14538Y2205D01*
X14587Y2220D01*
X14637Y2232D01*
X14687Y2240D01*
X14738Y2244D01*
X14790Y2244D01*
X14841Y2240D01*
X14891Y2232D01*
X14941Y2220D01*
X14990Y2205D01*
X15038Y2185D01*
X15084Y2163D01*
X15128Y2137D01*
X15170Y2107D01*
X15209Y2074D01*
X15246Y2039D01*
X15280Y2001D01*
X15311Y1960D01*
X15339Y1917D01*
X15364Y1872D01*
X15384Y1825D01*
X15402Y1777D01*
X15415Y1727D01*
X15425Y1677D01*
X15431Y1626D01*
X15433Y1575D01*
X15431Y1524D01*
X15425Y1473D01*
X15415Y1423D01*
X15402Y1373D01*
X15384Y1325D01*
X15364Y1278D01*
X15339Y1233D01*
X15311Y1190D01*
X15280Y1149D01*
X15246Y1111D01*
X15209Y1076D01*
X15170Y1043D01*
X15128Y1013D01*
X15084Y987D01*
X15038Y965D01*
X14990Y945D01*
X14941Y930D01*
X14891Y918D01*
X14841Y910D01*
X14790Y906D01*
X14738Y906D01*
X14687Y910D01*
X14637Y918D01*
X14587Y930D01*
X14538Y945D01*
X14490Y965D01*
X14444Y987D01*
X14400Y1013D01*
X14358Y1043D01*
X14319Y1076D01*
X14282Y1111D01*
X14248Y1149D01*
X14217Y1190D01*
X14189Y1233D01*
X14164Y1278D01*
X14144Y1325D01*
X14126Y1373D01*
X14113Y1423D01*
X14103Y1473D01*
X14097Y1524D01*
X14095Y1575D01*
X709Y1575D02*
X711Y1626D01*
X717Y1677D01*
X727Y1727D01*
X740Y1777D01*
X758Y1825D01*
X778Y1872D01*
X803Y1917D01*
X831Y1960D01*
X862Y2001D01*
X896Y2039D01*
X933Y2074D01*
X972Y2107D01*
X1014Y2137D01*
X1058Y2163D01*
X1104Y2185D01*
X1152Y2205D01*
X1201Y2220D01*
X1251Y2232D01*
X1301Y2240D01*
X1352Y2244D01*
X1404Y2244D01*
X1455Y2240D01*
X1505Y2232D01*
X1555Y2220D01*
X1604Y2205D01*
X1652Y2185D01*
X1698Y2163D01*
X1742Y2137D01*
X1784Y2107D01*
X1823Y2074D01*
X1860Y2039D01*
X1894Y2001D01*
X1925Y1960D01*
X1953Y1917D01*
X1978Y1872D01*
X1998Y1825D01*
X2016Y1777D01*
X2029Y1727D01*
X2039Y1677D01*
X2045Y1626D01*
X2047Y1575D01*
X2045Y1524D01*
X2039Y1473D01*
X2029Y1423D01*
X2016Y1373D01*
X1998Y1325D01*
X1978Y1278D01*
X1953Y1233D01*
X1925Y1190D01*
X1894Y1149D01*
X1860Y1111D01*
X1823Y1076D01*
X1784Y1043D01*
X1742Y1013D01*
X1698Y987D01*
X1652Y965D01*
X1604Y945D01*
X1555Y930D01*
X1505Y918D01*
X1455Y910D01*
X1404Y906D01*
X1352Y906D01*
X1301Y910D01*
X1251Y918D01*
X1201Y930D01*
X1152Y945D01*
X1104Y965D01*
X1058Y987D01*
X1014Y1013D01*
X972Y1043D01*
X933Y1076D01*
X896Y1111D01*
X862Y1149D01*
X831Y1190D01*
X803Y1233D01*
X778Y1278D01*
X758Y1325D01*
X740Y1373D01*
X727Y1423D01*
X717Y1473D01*
X711Y1524D01*
X709Y1575D01*
X709Y18504D02*
X711Y18555D01*
X717Y18606D01*
X727Y18656D01*
X740Y18706D01*
X758Y18754D01*
X778Y18801D01*
X803Y18846D01*
X831Y18889D01*
X862Y18930D01*
X896Y18968D01*
X933Y19003D01*
X972Y19036D01*
X1014Y19066D01*
X1058Y19092D01*
X1104Y19114D01*
X1152Y19134D01*
X1201Y19149D01*
X1251Y19161D01*
X1301Y19169D01*
X1352Y19173D01*
X1404Y19173D01*
X1455Y19169D01*
X1505Y19161D01*
X1555Y19149D01*
X1604Y19134D01*
X1652Y19114D01*
X1698Y19092D01*
X1742Y19066D01*
X1784Y19036D01*
X1823Y19003D01*
X1860Y18968D01*
X1894Y18930D01*
X1925Y18889D01*
X1953Y18846D01*
X1978Y18801D01*
X1998Y18754D01*
X2016Y18706D01*
X2029Y18656D01*
X2039Y18606D01*
X2045Y18555D01*
X2047Y18504D01*
X2045Y18453D01*
X2039Y18402D01*
X2029Y18352D01*
X2016Y18302D01*
X1998Y18254D01*
X1978Y18207D01*
X1953Y18162D01*
X1925Y18119D01*
X1894Y18078D01*
X1860Y18040D01*
X1823Y18005D01*
X1784Y17972D01*
X1742Y17942D01*
X1698Y17916D01*
X1652Y17894D01*
X1604Y17874D01*
X1555Y17859D01*
X1505Y17847D01*
X1455Y17839D01*
X1404Y17835D01*
X1352Y17835D01*
X1301Y17839D01*
X1251Y17847D01*
X1201Y17859D01*
X1152Y17874D01*
X1104Y17894D01*
X1058Y17916D01*
X1014Y17942D01*
X972Y17972D01*
X933Y18005D01*
X896Y18040D01*
X862Y18078D01*
X831Y18119D01*
X803Y18162D01*
X778Y18207D01*
X758Y18254D01*
X740Y18302D01*
X727Y18352D01*
X717Y18402D01*
X711Y18453D01*
X709Y18504D01*
X14095Y18504D02*
X14097Y18555D01*
X14103Y18606D01*
X14113Y18656D01*
X14126Y18706D01*
X14144Y18754D01*
X14164Y18801D01*
X14189Y18846D01*
X14217Y18889D01*
X14248Y18930D01*
X14282Y18968D01*
X14319Y19003D01*
X14358Y19036D01*
X14400Y19066D01*
X14444Y19092D01*
X14490Y19114D01*
X14538Y19134D01*
X14587Y19149D01*
X14637Y19161D01*
X14687Y19169D01*
X14738Y19173D01*
X14790Y19173D01*
X14841Y19169D01*
X14891Y19161D01*
X14941Y19149D01*
X14990Y19134D01*
X15038Y19114D01*
X15084Y19092D01*
X15128Y19066D01*
X15170Y19036D01*
X15209Y19003D01*
X15246Y18968D01*
X15280Y18930D01*
X15311Y18889D01*
X15339Y18846D01*
X15364Y18801D01*
X15384Y18754D01*
X15402Y18706D01*
X15415Y18656D01*
X15425Y18606D01*
X15431Y18555D01*
X15433Y18504D01*
X15431Y18453D01*
X15425Y18402D01*
X15415Y18352D01*
X15402Y18302D01*
X15384Y18254D01*
X15364Y18207D01*
X15339Y18162D01*
X15311Y18119D01*
X15280Y18078D01*
X15246Y18040D01*
X15209Y18005D01*
X15170Y17972D01*
X15128Y17942D01*
X15084Y17916D01*
X15038Y17894D01*
X14990Y17874D01*
X14941Y17859D01*
X14891Y17847D01*
X14841Y17839D01*
X14790Y17835D01*
X14738Y17835D01*
X14687Y17839D01*
X14637Y17847D01*
X14587Y17859D01*
X14538Y17874D01*
X14490Y17894D01*
X14444Y17916D01*
X14400Y17942D01*
X14358Y17972D01*
X14319Y18005D01*
X14282Y18040D01*
X14248Y18078D01*
X14217Y18119D01*
X14189Y18162D01*
X14164Y18207D01*
X14144Y18254D01*
X14126Y18302D01*
X14113Y18352D01*
X14103Y18402D01*
X14097Y18453D01*
X14095Y18504D01*
M02*
