G04 EAGLE Gerber X2 export*
%TF.Part,Single*%
%TF.FileFunction,Other,Bottom Copper Layer*%
%TF.FilePolarity,Positive*%
%TF.GenerationSoftware,Autodesk,EAGLE,9.1.3*%
%TF.CreationDate,2018-09-28T09:40:22Z*%
G75*
%MOIN*%
%FSLAX34Y34*%
%LPD*%
%AMOC8*
5,1,8,0,0,1.08239X$1,22.5*%
G01*
%ADD10R,0.039370X0.043307*%
%ADD11R,0.043307X0.039370*%
%ADD12R,0.051181X0.059055*%
%ADD13C,0.059055*%
%ADD14R,0.059055X0.059055*%
%ADD15R,0.010630X0.059055*%
%ADD16R,0.059055X0.010630*%
%ADD17P,0.058449X8X202.500000*%
%ADD18P,0.051955X8X202.500000*%
%ADD19P,0.044744X8X202.500000*%
%ADD20P,0.044744X8X112.500000*%
%ADD21P,0.044744X8X22.500000*%
%ADD22C,0.054000*%
%ADD23R,0.027559X0.023622*%
%ADD24R,0.090551X0.051181*%
%ADD25R,0.086614X0.149606*%
%ADD26R,0.084646X0.070866*%
%ADD27R,0.070866X0.084646*%
%ADD28C,0.011811*%
%ADD29C,0.039370*%
%ADD30C,0.015748*%
%ADD31C,0.007874*%
%ADD32C,0.025748*%
%ADD33C,0.019685*%
%ADD34C,0.023780*%

G36*
X13492Y2223D02*
X13492Y2223D01*
X13495Y2223D01*
X13499Y2224D01*
X13503Y2225D01*
X13506Y2226D01*
X13508Y2226D01*
X13512Y2228D01*
X13516Y2230D01*
X13518Y2231D01*
X13520Y2233D01*
X13523Y2235D01*
X13526Y2238D01*
X13528Y2240D01*
X13530Y2242D01*
X13533Y2245D01*
X13535Y2248D01*
X13538Y2252D01*
X13538Y2253D01*
X13539Y2254D01*
X13617Y2408D01*
X13931Y2721D01*
X14326Y2923D01*
X14764Y2992D01*
X15202Y2923D01*
X15597Y2721D01*
X15891Y2427D01*
X15895Y2424D01*
X15898Y2421D01*
X15900Y2420D01*
X15902Y2418D01*
X15906Y2417D01*
X15910Y2415D01*
X15912Y2414D01*
X15914Y2413D01*
X15918Y2412D01*
X15922Y2411D01*
X15925Y2411D01*
X15928Y2410D01*
X15932Y2410D01*
X15936Y2410D01*
X15939Y2410D01*
X15941Y2410D01*
X15945Y2412D01*
X15949Y2412D01*
X15952Y2413D01*
X15954Y2414D01*
X15958Y2416D01*
X15962Y2418D01*
X15964Y2419D01*
X15966Y2420D01*
X15969Y2423D01*
X15973Y2426D01*
X15974Y2428D01*
X15976Y2429D01*
X15979Y2433D01*
X15981Y2436D01*
X15982Y2438D01*
X15984Y2440D01*
X15986Y2444D01*
X15987Y2448D01*
X15988Y2451D01*
X15989Y2453D01*
X15990Y2457D01*
X15991Y2461D01*
X15991Y2465D01*
X15991Y2466D01*
X15991Y2467D01*
X15991Y2468D01*
X15991Y14444D01*
X15990Y14448D01*
X15990Y14452D01*
X15990Y14455D01*
X15989Y14457D01*
X15988Y14461D01*
X15987Y14465D01*
X15986Y14467D01*
X15985Y14470D01*
X15982Y14473D01*
X15980Y14477D01*
X15979Y14479D01*
X15977Y14481D01*
X15974Y14484D01*
X15971Y14487D01*
X15969Y14489D01*
X15968Y14490D01*
X15964Y14493D01*
X15960Y14495D01*
X15958Y14496D01*
X15956Y14497D01*
X15952Y14498D01*
X15948Y14500D01*
X15945Y14500D01*
X15943Y14501D01*
X15939Y14501D01*
X15934Y14502D01*
X15932Y14502D01*
X15929Y14502D01*
X15925Y14501D01*
X15921Y14501D01*
X15919Y14500D01*
X15916Y14500D01*
X15912Y14498D01*
X15908Y14497D01*
X15906Y14495D01*
X15904Y14494D01*
X15900Y14492D01*
X15897Y14489D01*
X15893Y14487D01*
X15893Y14486D01*
X15892Y14486D01*
X15891Y14485D01*
X15846Y14440D01*
X15703Y14381D01*
X15549Y14381D01*
X15406Y14440D01*
X15296Y14549D01*
X15237Y14692D01*
X15237Y15387D01*
X15296Y15530D01*
X15406Y15639D01*
X15549Y15698D01*
X15703Y15698D01*
X15846Y15639D01*
X15891Y15594D01*
X15895Y15591D01*
X15898Y15588D01*
X15900Y15587D01*
X15902Y15585D01*
X15906Y15584D01*
X15910Y15582D01*
X15912Y15581D01*
X15914Y15580D01*
X15918Y15579D01*
X15922Y15578D01*
X15925Y15578D01*
X15928Y15577D01*
X15932Y15577D01*
X15936Y15577D01*
X15939Y15577D01*
X15941Y15577D01*
X15945Y15578D01*
X15949Y15579D01*
X15952Y15580D01*
X15954Y15581D01*
X15958Y15583D01*
X15962Y15585D01*
X15964Y15586D01*
X15966Y15587D01*
X15969Y15590D01*
X15973Y15593D01*
X15974Y15595D01*
X15976Y15596D01*
X15979Y15600D01*
X15981Y15603D01*
X15982Y15605D01*
X15984Y15607D01*
X15986Y15611D01*
X15987Y15615D01*
X15988Y15618D01*
X15989Y15620D01*
X15990Y15624D01*
X15991Y15628D01*
X15991Y15632D01*
X15991Y15633D01*
X15991Y15634D01*
X15991Y15635D01*
X15991Y17611D01*
X15990Y17615D01*
X15990Y17619D01*
X15990Y17622D01*
X15989Y17624D01*
X15988Y17628D01*
X15987Y17632D01*
X15986Y17634D01*
X15985Y17637D01*
X15982Y17640D01*
X15980Y17644D01*
X15979Y17646D01*
X15977Y17648D01*
X15974Y17651D01*
X15971Y17654D01*
X15969Y17656D01*
X15968Y17657D01*
X15964Y17659D01*
X15960Y17662D01*
X15958Y17663D01*
X15956Y17664D01*
X15952Y17665D01*
X15948Y17667D01*
X15945Y17667D01*
X15943Y17668D01*
X15939Y17668D01*
X15934Y17669D01*
X15932Y17669D01*
X15929Y17669D01*
X15925Y17668D01*
X15921Y17668D01*
X15919Y17667D01*
X15916Y17667D01*
X15912Y17665D01*
X15908Y17664D01*
X15906Y17662D01*
X15904Y17661D01*
X15900Y17659D01*
X15897Y17656D01*
X15893Y17654D01*
X15893Y17653D01*
X15892Y17653D01*
X15891Y17652D01*
X15597Y17357D01*
X15202Y17156D01*
X14764Y17087D01*
X14326Y17156D01*
X13931Y17357D01*
X13617Y17671D01*
X13416Y18066D01*
X13346Y18504D01*
X13416Y18942D01*
X13617Y19337D01*
X13931Y19651D01*
X14259Y19818D01*
X14264Y19821D01*
X14270Y19825D01*
X14274Y19830D01*
X14279Y19835D01*
X14282Y19841D01*
X14286Y19847D01*
X14288Y19853D01*
X14290Y19860D01*
X14290Y19866D01*
X14290Y19873D01*
X14289Y19880D01*
X14288Y19886D01*
X14288Y19887D01*
X14285Y19893D01*
X14283Y19899D01*
X14279Y19905D01*
X14275Y19910D01*
X14274Y19910D01*
X14269Y19914D01*
X14264Y19918D01*
X14264Y19919D01*
X14258Y19921D01*
X14252Y19924D01*
X14252Y19925D01*
X14246Y19926D01*
X14239Y19928D01*
X14238Y19928D01*
X14232Y19928D01*
X1909Y19928D01*
X1903Y19927D01*
X1896Y19927D01*
X1896Y19926D01*
X1890Y19924D01*
X1884Y19922D01*
X1883Y19922D01*
X1878Y19918D01*
X1872Y19915D01*
X1872Y19914D01*
X1867Y19910D01*
X1863Y19905D01*
X1859Y19899D01*
X1856Y19893D01*
X1854Y19886D01*
X1852Y19880D01*
X1852Y19873D01*
X1851Y19867D01*
X1851Y19866D01*
X1852Y19860D01*
X1854Y19853D01*
X1856Y19847D01*
X1859Y19841D01*
X1863Y19835D01*
X1867Y19830D01*
X1872Y19826D01*
X1877Y19821D01*
X1878Y19821D01*
X1883Y19818D01*
X2211Y19651D01*
X2525Y19337D01*
X2726Y18942D01*
X2795Y18504D01*
X2726Y18066D01*
X2525Y17671D01*
X2211Y17357D01*
X1816Y17156D01*
X1378Y17087D01*
X940Y17156D01*
X545Y17357D01*
X250Y17652D01*
X247Y17654D01*
X244Y17657D01*
X242Y17659D01*
X240Y17660D01*
X236Y17662D01*
X232Y17664D01*
X230Y17665D01*
X227Y17666D01*
X223Y17667D01*
X219Y17668D01*
X217Y17668D01*
X214Y17669D01*
X210Y17669D01*
X206Y17669D01*
X203Y17668D01*
X201Y17668D01*
X197Y17667D01*
X192Y17667D01*
X190Y17665D01*
X188Y17665D01*
X184Y17663D01*
X180Y17661D01*
X178Y17660D01*
X176Y17658D01*
X172Y17656D01*
X169Y17653D01*
X167Y17651D01*
X166Y17649D01*
X163Y17646D01*
X160Y17643D01*
X159Y17640D01*
X158Y17638D01*
X156Y17634D01*
X154Y17631D01*
X154Y17628D01*
X153Y17626D01*
X152Y17622D01*
X151Y17618D01*
X151Y17613D01*
X151Y17612D01*
X151Y17611D01*
X151Y10731D01*
X151Y10727D01*
X151Y10723D01*
X152Y10720D01*
X152Y10718D01*
X154Y10714D01*
X155Y10710D01*
X156Y10707D01*
X157Y10705D01*
X159Y10702D01*
X161Y10698D01*
X163Y10696D01*
X164Y10694D01*
X167Y10691D01*
X170Y10688D01*
X172Y10686D01*
X174Y10684D01*
X178Y10682D01*
X181Y10680D01*
X184Y10679D01*
X186Y10678D01*
X190Y10676D01*
X194Y10675D01*
X196Y10675D01*
X199Y10674D01*
X203Y10674D01*
X207Y10673D01*
X210Y10673D01*
X212Y10673D01*
X217Y10674D01*
X221Y10674D01*
X223Y10675D01*
X226Y10675D01*
X230Y10677D01*
X234Y10678D01*
X236Y10680D01*
X238Y10681D01*
X242Y10683D01*
X245Y10685D01*
X248Y10688D01*
X249Y10689D01*
X250Y10690D01*
X334Y10774D01*
X3052Y10774D01*
X3136Y10690D01*
X3136Y9887D01*
X3136Y9886D01*
X3136Y9884D01*
X3137Y9879D01*
X3138Y9874D01*
X3138Y9872D01*
X3138Y9871D01*
X3140Y9866D01*
X3142Y9861D01*
X3143Y9860D01*
X3144Y9858D01*
X3147Y9854D01*
X3150Y9850D01*
X3151Y9849D01*
X3152Y9847D01*
X3156Y9844D01*
X3159Y9840D01*
X3161Y9840D01*
X3162Y9839D01*
X3167Y9836D01*
X3171Y9834D01*
X3173Y9833D01*
X3174Y9832D01*
X3179Y9831D01*
X3184Y9830D01*
X3186Y9830D01*
X3187Y9829D01*
X3194Y9829D01*
X3524Y9829D01*
X3608Y9745D01*
X3608Y9409D01*
X3609Y9405D01*
X3609Y9401D01*
X3610Y9399D01*
X3610Y9396D01*
X3611Y9392D01*
X3613Y9388D01*
X3614Y9386D01*
X3615Y9383D01*
X3617Y9380D01*
X3619Y9376D01*
X3621Y9374D01*
X3622Y9372D01*
X3625Y9369D01*
X3628Y9366D01*
X3630Y9364D01*
X3632Y9363D01*
X3636Y9361D01*
X3639Y9358D01*
X3641Y9357D01*
X3644Y9356D01*
X3648Y9355D01*
X3652Y9353D01*
X3654Y9353D01*
X3657Y9352D01*
X3661Y9352D01*
X3665Y9351D01*
X3667Y9351D01*
X3670Y9351D01*
X3674Y9352D01*
X3678Y9352D01*
X3681Y9353D01*
X3683Y9354D01*
X3687Y9355D01*
X3691Y9357D01*
X3693Y9358D01*
X3696Y9359D01*
X3699Y9361D01*
X3703Y9364D01*
X3706Y9366D01*
X3707Y9367D01*
X3708Y9368D01*
X3732Y9392D01*
X3734Y9392D01*
X3735Y9393D01*
X3737Y9393D01*
X3742Y9395D01*
X3747Y9397D01*
X3748Y9398D01*
X3750Y9398D01*
X3754Y9401D01*
X3758Y9404D01*
X3759Y9405D01*
X3760Y9406D01*
X3764Y9410D01*
X3767Y9414D01*
X3768Y9415D01*
X3769Y9417D01*
X3771Y9421D01*
X3774Y9426D01*
X3774Y9427D01*
X3775Y9429D01*
X3776Y9434D01*
X3778Y9439D01*
X3778Y9440D01*
X3778Y9442D01*
X3779Y9449D01*
X3779Y10459D01*
X4302Y10983D01*
X4306Y10987D01*
X4310Y10992D01*
X4310Y10993D01*
X4311Y10993D01*
X4313Y10999D01*
X4316Y11004D01*
X4316Y11005D01*
X4316Y11006D01*
X4318Y11011D01*
X4319Y11017D01*
X4319Y11018D01*
X4319Y11019D01*
X4319Y11020D01*
X4319Y11024D01*
X4319Y11073D01*
X4357Y11164D01*
X4427Y11234D01*
X4518Y11271D01*
X4616Y11271D01*
X4707Y11234D01*
X4723Y11218D01*
X4724Y11217D01*
X4725Y11216D01*
X4729Y11213D01*
X4733Y11210D01*
X4735Y11209D01*
X4736Y11208D01*
X4741Y11206D01*
X4745Y11204D01*
X4747Y11204D01*
X4749Y11203D01*
X4754Y11202D01*
X4759Y11201D01*
X4760Y11201D01*
X4762Y11201D01*
X4767Y11202D01*
X4772Y11202D01*
X4774Y11202D01*
X4775Y11202D01*
X4780Y11204D01*
X4785Y11205D01*
X4787Y11206D01*
X4788Y11206D01*
X4793Y11209D01*
X4797Y11212D01*
X4798Y11213D01*
X4800Y11214D01*
X4805Y11218D01*
X4820Y11234D01*
X4911Y11271D01*
X5010Y11271D01*
X5102Y11233D01*
X5103Y11232D01*
X5105Y11231D01*
X5107Y11229D01*
X5111Y11228D01*
X5115Y11226D01*
X5117Y11225D01*
X5119Y11224D01*
X5124Y11223D01*
X5128Y11222D01*
X5130Y11222D01*
X5133Y11221D01*
X5137Y11221D01*
X5141Y11221D01*
X5144Y11221D01*
X5146Y11221D01*
X5150Y11222D01*
X5154Y11223D01*
X5157Y11224D01*
X5159Y11225D01*
X5163Y11227D01*
X5167Y11229D01*
X5169Y11230D01*
X5171Y11231D01*
X5174Y11234D01*
X5178Y11237D01*
X5179Y11239D01*
X5181Y11240D01*
X5184Y11244D01*
X5186Y11247D01*
X5188Y11249D01*
X5189Y11251D01*
X5191Y11255D01*
X5193Y11259D01*
X5193Y11262D01*
X5194Y11264D01*
X5195Y11268D01*
X5196Y11272D01*
X5196Y11276D01*
X5196Y11277D01*
X5196Y11278D01*
X5196Y11279D01*
X5196Y11362D01*
X5266Y11432D01*
X5628Y11432D01*
X5632Y11432D01*
X5637Y11432D01*
X5639Y11433D01*
X5642Y11433D01*
X5646Y11435D01*
X5650Y11436D01*
X5652Y11437D01*
X5654Y11438D01*
X5658Y11440D01*
X5662Y11442D01*
X5664Y11444D01*
X5666Y11445D01*
X5669Y11449D01*
X5672Y11451D01*
X5673Y11453D01*
X5675Y11455D01*
X5677Y11459D01*
X5680Y11462D01*
X5680Y11465D01*
X5682Y11467D01*
X5683Y11471D01*
X5685Y11475D01*
X5685Y11478D01*
X5686Y11480D01*
X5686Y11484D01*
X5687Y11488D01*
X5686Y11491D01*
X5686Y11493D01*
X5686Y11498D01*
X5685Y11502D01*
X5685Y11504D01*
X5684Y11507D01*
X5682Y11511D01*
X5681Y11515D01*
X5680Y11517D01*
X5679Y11519D01*
X5676Y11523D01*
X5674Y11526D01*
X5671Y11529D01*
X5671Y11530D01*
X5670Y11530D01*
X5669Y11531D01*
X5408Y11793D01*
X5344Y11857D01*
X5314Y11929D01*
X5314Y12099D01*
X5314Y12105D01*
X5313Y12110D01*
X5313Y12111D01*
X5313Y12112D01*
X5311Y12118D01*
X5309Y12123D01*
X5308Y12124D01*
X5308Y12125D01*
X5305Y12130D01*
X5302Y12135D01*
X5301Y12136D01*
X5300Y12137D01*
X5297Y12140D01*
X4975Y12462D01*
X4970Y12466D01*
X4965Y12470D01*
X4964Y12471D01*
X4959Y12473D01*
X4953Y12476D01*
X4952Y12477D01*
X4946Y12478D01*
X4940Y12479D01*
X4939Y12479D01*
X4938Y12479D01*
X4933Y12480D01*
X4783Y12480D01*
X4782Y12479D01*
X4780Y12479D01*
X4775Y12479D01*
X4770Y12478D01*
X4768Y12477D01*
X4767Y12477D01*
X4762Y12475D01*
X4757Y12473D01*
X4756Y12472D01*
X4754Y12472D01*
X4750Y12469D01*
X4746Y12466D01*
X4745Y12465D01*
X4744Y12464D01*
X4740Y12460D01*
X4737Y12456D01*
X4736Y12455D01*
X4735Y12453D01*
X4733Y12449D01*
X4730Y12444D01*
X4729Y12443D01*
X4729Y12441D01*
X4728Y12436D01*
X4726Y12431D01*
X4726Y12430D01*
X4726Y12428D01*
X4725Y12421D01*
X4725Y12274D01*
X4656Y12204D01*
X3711Y12204D01*
X3641Y12274D01*
X3641Y13081D01*
X3706Y13146D01*
X3709Y13149D01*
X3712Y13153D01*
X3713Y13155D01*
X3715Y13157D01*
X3717Y13161D01*
X3719Y13164D01*
X3719Y13167D01*
X3721Y13169D01*
X3721Y13173D01*
X3723Y13177D01*
X3723Y13180D01*
X3723Y13182D01*
X3723Y13187D01*
X3723Y13191D01*
X3723Y13193D01*
X3723Y13196D01*
X3722Y13200D01*
X3721Y13204D01*
X3720Y13206D01*
X3719Y13209D01*
X3717Y13213D01*
X3716Y13216D01*
X3714Y13219D01*
X3713Y13221D01*
X3710Y13224D01*
X3708Y13227D01*
X3706Y13229D01*
X3704Y13231D01*
X3701Y13233D01*
X3697Y13236D01*
X3695Y13237D01*
X3693Y13239D01*
X3689Y13240D01*
X3685Y13242D01*
X3683Y13243D01*
X3680Y13244D01*
X3676Y13244D01*
X3672Y13245D01*
X3668Y13246D01*
X3667Y13246D01*
X3666Y13246D01*
X3665Y13246D01*
X3543Y13246D01*
X3543Y13504D01*
X3542Y13505D01*
X3542Y13506D01*
X3542Y13507D01*
X3542Y13512D01*
X3541Y13517D01*
X3540Y13519D01*
X3540Y13521D01*
X3538Y13525D01*
X3536Y13530D01*
X3535Y13531D01*
X3535Y13533D01*
X3532Y13537D01*
X3529Y13541D01*
X3528Y13543D01*
X3527Y13544D01*
X3531Y13548D01*
X3532Y13549D01*
X3533Y13551D01*
X3535Y13555D01*
X3538Y13560D01*
X3538Y13561D01*
X3539Y13563D01*
X3540Y13568D01*
X3542Y13573D01*
X3542Y13574D01*
X3542Y13576D01*
X3543Y13583D01*
X3543Y13841D01*
X3675Y13841D01*
X3700Y13834D01*
X3711Y13828D01*
X3714Y13827D01*
X3717Y13825D01*
X3720Y13824D01*
X3723Y13823D01*
X3727Y13822D01*
X3730Y13821D01*
X3733Y13821D01*
X3737Y13820D01*
X3740Y13820D01*
X3743Y13820D01*
X3747Y13821D01*
X3750Y13821D01*
X3753Y13822D01*
X3757Y13822D01*
X3760Y13824D01*
X3763Y13825D01*
X3766Y13826D01*
X3769Y13828D01*
X3772Y13830D01*
X3775Y13832D01*
X3777Y13834D01*
X3780Y13836D01*
X3782Y13838D01*
X3785Y13841D01*
X3787Y13844D01*
X3789Y13846D01*
X3790Y13849D01*
X3792Y13852D01*
X3793Y13855D01*
X3795Y13858D01*
X3796Y13862D01*
X3797Y13865D01*
X3797Y13868D01*
X3798Y13871D01*
X3798Y13878D01*
X3798Y14039D01*
X3798Y14041D01*
X3798Y14044D01*
X3797Y14048D01*
X3797Y14052D01*
X3796Y14055D01*
X3796Y14057D01*
X3794Y14061D01*
X3792Y14065D01*
X3791Y14067D01*
X3790Y14069D01*
X3787Y14073D01*
X3785Y14076D01*
X3783Y14078D01*
X3781Y14080D01*
X3778Y14083D01*
X3775Y14086D01*
X3773Y14087D01*
X3771Y14088D01*
X3767Y14090D01*
X3763Y14092D01*
X3761Y14093D01*
X3759Y14094D01*
X3754Y14095D01*
X3750Y14096D01*
X3748Y14096D01*
X3745Y14097D01*
X3741Y14097D01*
X3737Y14097D01*
X3734Y14097D01*
X3732Y14097D01*
X3725Y14095D01*
X3714Y14092D01*
X3365Y14092D01*
X3365Y14390D01*
X3365Y14391D01*
X3365Y14393D01*
X3364Y14398D01*
X3364Y14403D01*
X3363Y14405D01*
X3363Y14406D01*
X3361Y14411D01*
X3359Y14416D01*
X3358Y14417D01*
X3358Y14419D01*
X3355Y14423D01*
X3352Y14427D01*
X3351Y14428D01*
X3350Y14430D01*
X3346Y14433D01*
X3342Y14437D01*
X3340Y14437D01*
X3339Y14438D01*
X3335Y14441D01*
X3330Y14443D01*
X3329Y14444D01*
X3327Y14445D01*
X3322Y14446D01*
X3317Y14447D01*
X3316Y14447D01*
X3314Y14448D01*
X3307Y14448D01*
X3247Y14448D01*
X3247Y14508D01*
X3247Y14510D01*
X3247Y14511D01*
X3246Y14516D01*
X3246Y14521D01*
X3245Y14523D01*
X3245Y14525D01*
X3243Y14529D01*
X3241Y14534D01*
X3240Y14535D01*
X3240Y14537D01*
X3236Y14541D01*
X3234Y14545D01*
X3232Y14546D01*
X3231Y14548D01*
X3228Y14551D01*
X3224Y14555D01*
X3222Y14555D01*
X3221Y14557D01*
X3217Y14559D01*
X3212Y14561D01*
X3211Y14562D01*
X3209Y14563D01*
X3204Y14564D01*
X3199Y14565D01*
X3197Y14565D01*
X3196Y14566D01*
X3189Y14566D01*
X2695Y14566D01*
X2695Y14718D01*
X2703Y14749D01*
X2704Y14755D01*
X2705Y14762D01*
X2704Y14769D01*
X2704Y14776D01*
X2701Y14782D01*
X2699Y14788D01*
X2696Y14794D01*
X2692Y14800D01*
X2688Y14805D01*
X2629Y14864D01*
X2599Y14893D01*
X2597Y14895D01*
X2594Y14898D01*
X2592Y14900D01*
X2589Y14902D01*
X2586Y14903D01*
X2583Y14905D01*
X2580Y14906D01*
X2577Y14907D01*
X2573Y14908D01*
X2570Y14909D01*
X2567Y14909D01*
X2563Y14910D01*
X2560Y14910D01*
X2557Y14910D01*
X2553Y14910D01*
X2550Y14910D01*
X2547Y14909D01*
X2543Y14908D01*
X2540Y14907D01*
X2537Y14906D01*
X2534Y14905D01*
X2531Y14903D01*
X2528Y14901D01*
X2525Y14900D01*
X2522Y14898D01*
X2520Y14896D01*
X2517Y14893D01*
X2515Y14891D01*
X2513Y14888D01*
X2511Y14886D01*
X2509Y14883D01*
X2507Y14880D01*
X2506Y14877D01*
X2504Y14874D01*
X2502Y14867D01*
X2495Y14843D01*
X2482Y14820D01*
X2463Y14801D01*
X2440Y14788D01*
X2415Y14781D01*
X2302Y14781D01*
X2302Y15059D01*
X2302Y15061D01*
X2302Y15062D01*
X2301Y15067D01*
X2301Y15072D01*
X2300Y15074D01*
X2300Y15076D01*
X2298Y15080D01*
X2296Y15085D01*
X2295Y15087D01*
X2295Y15088D01*
X2292Y15092D01*
X2289Y15097D01*
X2288Y15098D01*
X2287Y15099D01*
X2283Y15102D01*
X2279Y15106D01*
X2277Y15107D01*
X2276Y15108D01*
X2272Y15110D01*
X2267Y15113D01*
X2266Y15113D01*
X2264Y15114D01*
X2259Y15115D01*
X2254Y15116D01*
X2253Y15117D01*
X2251Y15117D01*
X2244Y15117D01*
X2165Y15117D01*
X2164Y15117D01*
X2162Y15117D01*
X2157Y15116D01*
X2152Y15116D01*
X2150Y15115D01*
X2149Y15115D01*
X2144Y15113D01*
X2139Y15111D01*
X2138Y15110D01*
X2136Y15110D01*
X2132Y15107D01*
X2128Y15104D01*
X2127Y15103D01*
X2125Y15102D01*
X2122Y15098D01*
X2119Y15094D01*
X2118Y15092D01*
X2117Y15091D01*
X2114Y15087D01*
X2112Y15082D01*
X2111Y15081D01*
X2111Y15079D01*
X2109Y15074D01*
X2108Y15069D01*
X2108Y15068D01*
X2107Y15066D01*
X2107Y15059D01*
X2107Y14781D01*
X1995Y14781D01*
X1969Y14788D01*
X1946Y14801D01*
X1927Y14820D01*
X1914Y14843D01*
X1908Y14864D01*
X1906Y14870D01*
X1904Y14875D01*
X1904Y14876D01*
X1903Y14877D01*
X1900Y14882D01*
X1897Y14887D01*
X1896Y14887D01*
X1896Y14888D01*
X1891Y14892D01*
X1887Y14896D01*
X1886Y14896D01*
X1885Y14897D01*
X1880Y14900D01*
X1875Y14903D01*
X1874Y14903D01*
X1868Y14905D01*
X1862Y14907D01*
X1861Y14907D01*
X1860Y14907D01*
X1855Y14907D01*
X1849Y14907D01*
X1848Y14907D01*
X1847Y14907D01*
X1841Y14906D01*
X1835Y14905D01*
X1834Y14905D01*
X1828Y14902D01*
X1823Y14900D01*
X1822Y14899D01*
X1821Y14899D01*
X1817Y14895D01*
X1812Y14892D01*
X1811Y14891D01*
X1811Y14890D01*
X1807Y14886D01*
X1803Y14881D01*
X1802Y14880D01*
X1800Y14875D01*
X1797Y14869D01*
X1797Y14868D01*
X1795Y14862D01*
X1794Y14856D01*
X1794Y14855D01*
X1794Y14854D01*
X1794Y14849D01*
X1794Y14832D01*
X1456Y14832D01*
X1456Y15239D01*
X1706Y15239D01*
X1732Y15232D01*
X1755Y15218D01*
X1774Y15200D01*
X1787Y15177D01*
X1793Y15155D01*
X1795Y15150D01*
X1797Y15144D01*
X1797Y15143D01*
X1801Y15138D01*
X1804Y15133D01*
X1805Y15132D01*
X1810Y15128D01*
X1814Y15124D01*
X1815Y15123D01*
X1821Y15120D01*
X1826Y15117D01*
X1827Y15117D01*
X1827Y15116D01*
X1833Y15115D01*
X1839Y15113D01*
X1840Y15113D01*
X1846Y15113D01*
X1852Y15112D01*
X1853Y15112D01*
X1854Y15112D01*
X1860Y15114D01*
X1865Y15115D01*
X1866Y15115D01*
X1867Y15115D01*
X1872Y15118D01*
X1878Y15120D01*
X1879Y15120D01*
X1879Y15121D01*
X1884Y15125D01*
X1889Y15128D01*
X1889Y15129D01*
X1890Y15129D01*
X1894Y15134D01*
X1897Y15138D01*
X1898Y15139D01*
X1898Y15140D01*
X1901Y15145D01*
X1904Y15150D01*
X1904Y15151D01*
X1904Y15152D01*
X1905Y15158D01*
X1907Y15164D01*
X1907Y15165D01*
X1907Y15166D01*
X1907Y15170D01*
X1907Y15328D01*
X1914Y15354D01*
X1927Y15377D01*
X1929Y15379D01*
X1931Y15380D01*
X1932Y15381D01*
X1935Y15386D01*
X1938Y15390D01*
X1939Y15391D01*
X1940Y15393D01*
X1941Y15397D01*
X1944Y15402D01*
X1944Y15404D01*
X1945Y15405D01*
X1945Y15410D01*
X1946Y15415D01*
X1946Y15417D01*
X1947Y15418D01*
X1946Y15424D01*
X1946Y15429D01*
X1946Y15430D01*
X1945Y15432D01*
X1944Y15437D01*
X1942Y15442D01*
X1942Y15443D01*
X1941Y15445D01*
X1938Y15449D01*
X1936Y15454D01*
X1935Y15455D01*
X1934Y15456D01*
X1929Y15461D01*
X1882Y15509D01*
X1880Y15510D01*
X1879Y15511D01*
X1875Y15514D01*
X1871Y15518D01*
X1870Y15518D01*
X1868Y15519D01*
X1864Y15521D01*
X1859Y15523D01*
X1857Y15524D01*
X1856Y15524D01*
X1851Y15525D01*
X1846Y15526D01*
X1844Y15526D01*
X1842Y15526D01*
X1837Y15526D01*
X1832Y15526D01*
X1831Y15525D01*
X1829Y15525D01*
X1824Y15523D01*
X1819Y15522D01*
X1818Y15521D01*
X1816Y15521D01*
X1812Y15518D01*
X1807Y15516D01*
X1806Y15515D01*
X1804Y15514D01*
X1799Y15509D01*
X1742Y15452D01*
X1083Y15452D01*
X1081Y15452D01*
X1079Y15452D01*
X1074Y15451D01*
X1069Y15450D01*
X1068Y15450D01*
X1066Y15450D01*
X1061Y15448D01*
X1057Y15446D01*
X1055Y15445D01*
X1054Y15444D01*
X1050Y15441D01*
X1045Y15438D01*
X1044Y15437D01*
X1043Y15436D01*
X1039Y15432D01*
X1036Y15429D01*
X1035Y15427D01*
X1034Y15426D01*
X1032Y15421D01*
X1029Y15417D01*
X1029Y15415D01*
X1028Y15414D01*
X1027Y15409D01*
X1025Y15404D01*
X1025Y15402D01*
X1025Y15401D01*
X1024Y15394D01*
X1024Y15297D01*
X1025Y15295D01*
X1024Y15294D01*
X1025Y15288D01*
X1026Y15283D01*
X1027Y15282D01*
X1027Y15280D01*
X1029Y15275D01*
X1031Y15271D01*
X1031Y15269D01*
X1032Y15268D01*
X1035Y15264D01*
X1038Y15259D01*
X1039Y15258D01*
X1040Y15257D01*
X1044Y15254D01*
X1048Y15250D01*
X1049Y15249D01*
X1051Y15248D01*
X1055Y15246D01*
X1060Y15243D01*
X1061Y15243D01*
X1063Y15242D01*
X1068Y15241D01*
X1072Y15239D01*
X1074Y15239D01*
X1076Y15239D01*
X1083Y15239D01*
X1221Y15239D01*
X1221Y14774D01*
X1221Y14772D01*
X1221Y14770D01*
X1222Y14765D01*
X1223Y14760D01*
X1223Y14759D01*
X1224Y14757D01*
X1226Y14752D01*
X1227Y14747D01*
X1228Y14746D01*
X1229Y14745D01*
X1232Y14740D01*
X1235Y14736D01*
X1236Y14735D01*
X1237Y14734D01*
X1241Y14730D01*
X1245Y14727D01*
X1246Y14726D01*
X1247Y14725D01*
X1252Y14723D01*
X1256Y14720D01*
X1258Y14720D01*
X1259Y14719D01*
X1264Y14718D01*
X1269Y14716D01*
X1271Y14716D01*
X1273Y14716D01*
X1280Y14715D01*
X1339Y14715D01*
X1339Y14714D01*
X1280Y14714D01*
X1278Y14714D01*
X1276Y14714D01*
X1271Y14713D01*
X1266Y14712D01*
X1265Y14712D01*
X1263Y14711D01*
X1258Y14709D01*
X1253Y14708D01*
X1252Y14707D01*
X1250Y14706D01*
X1246Y14703D01*
X1242Y14700D01*
X1241Y14699D01*
X1240Y14698D01*
X1236Y14694D01*
X1233Y14690D01*
X1232Y14689D01*
X1231Y14688D01*
X1229Y14683D01*
X1226Y14679D01*
X1226Y14677D01*
X1225Y14676D01*
X1224Y14671D01*
X1222Y14666D01*
X1222Y14664D01*
X1222Y14662D01*
X1221Y14656D01*
X1221Y14191D01*
X1083Y14191D01*
X1081Y14190D01*
X1079Y14190D01*
X1074Y14190D01*
X1069Y14189D01*
X1068Y14188D01*
X1066Y14188D01*
X1061Y14186D01*
X1057Y14184D01*
X1055Y14183D01*
X1054Y14183D01*
X1050Y14180D01*
X1045Y14177D01*
X1044Y14176D01*
X1043Y14175D01*
X1039Y14171D01*
X1036Y14167D01*
X1035Y14166D01*
X1034Y14164D01*
X1032Y14160D01*
X1029Y14155D01*
X1029Y14154D01*
X1028Y14152D01*
X1027Y14147D01*
X1025Y14142D01*
X1025Y14141D01*
X1025Y14139D01*
X1024Y14132D01*
X1024Y13724D01*
X1025Y13720D01*
X1025Y13716D01*
X1026Y13713D01*
X1026Y13710D01*
X1027Y13707D01*
X1028Y13703D01*
X1030Y13700D01*
X1031Y13698D01*
X1033Y13694D01*
X1034Y13691D01*
X1036Y13689D01*
X1038Y13686D01*
X1041Y13684D01*
X1043Y13681D01*
X1046Y13679D01*
X1048Y13677D01*
X1051Y13675D01*
X1054Y13673D01*
X1059Y13671D01*
X1168Y13561D01*
X1227Y13418D01*
X1227Y12724D01*
X1168Y12581D01*
X1059Y12471D01*
X916Y12412D01*
X761Y12412D01*
X618Y12471D01*
X509Y12581D01*
X450Y12724D01*
X450Y12989D01*
X450Y12991D01*
X450Y12992D01*
X449Y12997D01*
X448Y13003D01*
X448Y13004D01*
X448Y13005D01*
X445Y13012D01*
X393Y13138D01*
X393Y15811D01*
X441Y15927D01*
X776Y16262D01*
X829Y16284D01*
X833Y16286D01*
X836Y16287D01*
X839Y16289D01*
X841Y16290D01*
X844Y16293D01*
X847Y16295D01*
X849Y16298D01*
X851Y16300D01*
X853Y16303D01*
X856Y16306D01*
X857Y16308D01*
X859Y16311D01*
X860Y16314D01*
X862Y16318D01*
X863Y16321D01*
X864Y16323D01*
X864Y16327D01*
X865Y16331D01*
X865Y16336D01*
X865Y16337D01*
X865Y16338D01*
X865Y16467D01*
X935Y16536D01*
X1435Y16536D01*
X1436Y16536D01*
X1437Y16536D01*
X1443Y16537D01*
X1448Y16538D01*
X1449Y16538D01*
X1451Y16538D01*
X1457Y16541D01*
X1542Y16576D01*
X2663Y16576D01*
X2669Y16576D01*
X2675Y16577D01*
X2676Y16577D01*
X2682Y16579D01*
X2687Y16581D01*
X2688Y16581D01*
X2689Y16582D01*
X2694Y16585D01*
X2699Y16588D01*
X2700Y16589D01*
X2701Y16590D01*
X2704Y16593D01*
X2746Y16635D01*
X3750Y16635D01*
X3820Y16565D01*
X3820Y16074D01*
X3820Y16070D01*
X3820Y16066D01*
X3821Y16063D01*
X3821Y16061D01*
X3823Y16057D01*
X3824Y16052D01*
X3825Y16050D01*
X3826Y16048D01*
X3828Y16044D01*
X3830Y16041D01*
X3832Y16039D01*
X3833Y16036D01*
X3836Y16034D01*
X3839Y16030D01*
X3841Y16029D01*
X3843Y16027D01*
X3847Y16025D01*
X3850Y16023D01*
X3853Y16022D01*
X3855Y16020D01*
X3859Y16019D01*
X3863Y16018D01*
X3865Y16017D01*
X3868Y16017D01*
X3872Y16016D01*
X3876Y16016D01*
X3879Y16016D01*
X3881Y16016D01*
X3885Y16016D01*
X3890Y16017D01*
X3892Y16018D01*
X3895Y16018D01*
X3898Y16020D01*
X3902Y16021D01*
X3905Y16022D01*
X3907Y16023D01*
X3910Y16026D01*
X3914Y16028D01*
X3917Y16031D01*
X3918Y16031D01*
X3918Y16032D01*
X3919Y16033D01*
X3998Y16111D01*
X4002Y16116D01*
X4005Y16121D01*
X4006Y16121D01*
X4006Y16122D01*
X4009Y16127D01*
X4011Y16133D01*
X4012Y16134D01*
X4013Y16140D01*
X4015Y16146D01*
X4015Y16147D01*
X4015Y16148D01*
X4015Y16153D01*
X4015Y16443D01*
X4423Y16851D01*
X6286Y16851D01*
X6694Y16443D01*
X6694Y14469D01*
X6694Y14467D01*
X6694Y14465D01*
X6695Y14460D01*
X6695Y14455D01*
X6696Y14453D01*
X6696Y14452D01*
X6698Y14447D01*
X6700Y14442D01*
X6701Y14441D01*
X6701Y14439D01*
X6704Y14435D01*
X6707Y14431D01*
X6709Y14430D01*
X6709Y14429D01*
X6713Y14425D01*
X6717Y14422D01*
X6719Y14421D01*
X6720Y14420D01*
X6724Y14418D01*
X6729Y14415D01*
X6730Y14415D01*
X6732Y14414D01*
X6737Y14413D01*
X6742Y14411D01*
X6743Y14411D01*
X6745Y14411D01*
X6752Y14410D01*
X6916Y14410D01*
X7282Y14044D01*
X7287Y14041D01*
X7291Y14037D01*
X7292Y14036D01*
X7293Y14036D01*
X7298Y14033D01*
X7303Y14031D01*
X7304Y14030D01*
X7305Y14030D01*
X7311Y14029D01*
X7316Y14028D01*
X7318Y14027D01*
X7319Y14027D01*
X7323Y14027D01*
X7372Y14027D01*
X7463Y13989D01*
X7533Y13920D01*
X7570Y13829D01*
X7570Y13730D01*
X7533Y13639D01*
X7463Y13570D01*
X7372Y13532D01*
X7274Y13532D01*
X7183Y13570D01*
X7113Y13639D01*
X7075Y13730D01*
X7075Y13779D01*
X7075Y13785D01*
X7074Y13791D01*
X7074Y13792D01*
X7074Y13793D01*
X7072Y13798D01*
X7070Y13804D01*
X7069Y13805D01*
X7066Y13810D01*
X7063Y13815D01*
X7062Y13816D01*
X7062Y13817D01*
X7061Y13817D01*
X7058Y13820D01*
X6802Y14077D01*
X6797Y14080D01*
X6793Y14084D01*
X6792Y14084D01*
X6791Y14085D01*
X6786Y14088D01*
X6781Y14090D01*
X6780Y14090D01*
X6779Y14091D01*
X6773Y14092D01*
X6768Y14093D01*
X6766Y14093D01*
X6766Y14094D01*
X6765Y14093D01*
X6761Y14094D01*
X6546Y14094D01*
X6541Y14093D01*
X6535Y14093D01*
X6534Y14092D01*
X6533Y14092D01*
X6527Y14090D01*
X6522Y14088D01*
X6521Y14088D01*
X6520Y14088D01*
X6515Y14084D01*
X6510Y14081D01*
X6509Y14080D01*
X6508Y14079D01*
X6505Y14077D01*
X6396Y13967D01*
X6286Y13858D01*
X4508Y13858D01*
X4506Y13857D01*
X4505Y13857D01*
X4500Y13857D01*
X4494Y13856D01*
X4493Y13855D01*
X4491Y13855D01*
X4487Y13853D01*
X4482Y13851D01*
X4480Y13850D01*
X4479Y13850D01*
X4475Y13847D01*
X4470Y13844D01*
X4469Y13843D01*
X4468Y13842D01*
X4465Y13838D01*
X4461Y13834D01*
X4460Y13833D01*
X4459Y13831D01*
X4457Y13827D01*
X4454Y13822D01*
X4454Y13821D01*
X4453Y13819D01*
X4452Y13814D01*
X4450Y13809D01*
X4450Y13808D01*
X4450Y13806D01*
X4450Y13799D01*
X4450Y13297D01*
X4447Y13295D01*
X4443Y13290D01*
X4440Y13286D01*
X4439Y13285D01*
X4439Y13284D01*
X4436Y13279D01*
X4433Y13273D01*
X4433Y13272D01*
X4432Y13266D01*
X4430Y13260D01*
X4430Y13259D01*
X4430Y13258D01*
X4430Y13253D01*
X4430Y13209D01*
X4430Y13208D01*
X4430Y13207D01*
X4430Y13205D01*
X4431Y13200D01*
X4431Y13195D01*
X4432Y13194D01*
X4432Y13192D01*
X4434Y13187D01*
X4436Y13183D01*
X4437Y13181D01*
X4438Y13180D01*
X4441Y13175D01*
X4444Y13171D01*
X4445Y13170D01*
X4446Y13169D01*
X4450Y13165D01*
X4453Y13162D01*
X4455Y13161D01*
X4456Y13160D01*
X4461Y13158D01*
X4465Y13155D01*
X4467Y13155D01*
X4468Y13154D01*
X4473Y13153D01*
X4478Y13151D01*
X4480Y13151D01*
X4481Y13151D01*
X4488Y13150D01*
X4656Y13150D01*
X4725Y13081D01*
X4725Y12933D01*
X4725Y12931D01*
X4725Y12930D01*
X4726Y12925D01*
X4727Y12920D01*
X4727Y12918D01*
X4728Y12916D01*
X4730Y12912D01*
X4731Y12907D01*
X4732Y12906D01*
X4733Y12904D01*
X4736Y12900D01*
X4739Y12896D01*
X4740Y12894D01*
X4741Y12893D01*
X4745Y12890D01*
X4749Y12886D01*
X4750Y12885D01*
X4751Y12884D01*
X4756Y12882D01*
X4760Y12880D01*
X4762Y12879D01*
X4763Y12878D01*
X4768Y12877D01*
X4773Y12876D01*
X4775Y12876D01*
X4777Y12875D01*
X4783Y12875D01*
X5079Y12875D01*
X5151Y12845D01*
X5679Y12317D01*
X5709Y12244D01*
X5709Y12075D01*
X5710Y12069D01*
X5711Y12063D01*
X5711Y12062D01*
X5711Y12061D01*
X5713Y12056D01*
X5715Y12050D01*
X5715Y12049D01*
X5716Y12048D01*
X5719Y12043D01*
X5722Y12038D01*
X5723Y12038D01*
X5723Y12037D01*
X5724Y12036D01*
X5726Y12033D01*
X5787Y11973D01*
X5788Y11972D01*
X5789Y11971D01*
X5793Y11968D01*
X5797Y11965D01*
X5799Y11964D01*
X5800Y11963D01*
X5805Y11961D01*
X5810Y11959D01*
X5811Y11959D01*
X5813Y11958D01*
X5818Y11957D01*
X5823Y11956D01*
X5825Y11956D01*
X5826Y11956D01*
X5831Y11956D01*
X5836Y11957D01*
X5838Y11957D01*
X5840Y11957D01*
X5844Y11959D01*
X5849Y11960D01*
X5851Y11961D01*
X5852Y11961D01*
X5857Y11964D01*
X5861Y11966D01*
X5863Y11968D01*
X5864Y11968D01*
X5869Y11973D01*
X5917Y12021D01*
X6008Y12059D01*
X6069Y12059D01*
X6071Y12059D01*
X6072Y12059D01*
X6077Y12060D01*
X6082Y12060D01*
X6084Y12061D01*
X6086Y12061D01*
X6090Y12063D01*
X6095Y12065D01*
X6096Y12066D01*
X6098Y12066D01*
X6102Y12069D01*
X6106Y12072D01*
X6108Y12073D01*
X6109Y12074D01*
X6112Y12078D01*
X6116Y12082D01*
X6116Y12084D01*
X6118Y12085D01*
X6120Y12089D01*
X6122Y12094D01*
X6123Y12095D01*
X6124Y12097D01*
X6125Y12102D01*
X6126Y12107D01*
X6126Y12108D01*
X6127Y12110D01*
X6127Y12117D01*
X6127Y12293D01*
X6197Y12363D01*
X6258Y12363D01*
X6260Y12363D01*
X6262Y12363D01*
X6267Y12364D01*
X6272Y12365D01*
X6273Y12365D01*
X6275Y12365D01*
X6280Y12367D01*
X6284Y12369D01*
X6286Y12370D01*
X6287Y12371D01*
X6291Y12374D01*
X6296Y12377D01*
X6297Y12378D01*
X6298Y12379D01*
X6301Y12383D01*
X6305Y12386D01*
X6306Y12388D01*
X6307Y12389D01*
X6309Y12394D01*
X6312Y12398D01*
X6312Y12400D01*
X6313Y12401D01*
X6314Y12406D01*
X6316Y12411D01*
X6316Y12413D01*
X6316Y12414D01*
X6317Y12421D01*
X6317Y12481D01*
X6575Y12481D01*
X6576Y12481D01*
X6578Y12481D01*
X6583Y12482D01*
X6588Y12483D01*
X6590Y12483D01*
X6591Y12483D01*
X6596Y12486D01*
X6601Y12487D01*
X6602Y12488D01*
X6604Y12489D01*
X6608Y12492D01*
X6612Y12495D01*
X6613Y12496D01*
X6615Y12497D01*
X6618Y12501D01*
X6622Y12505D01*
X6622Y12506D01*
X6623Y12507D01*
X6626Y12512D01*
X6628Y12516D01*
X6629Y12518D01*
X6630Y12519D01*
X6631Y12524D01*
X6632Y12529D01*
X6632Y12531D01*
X6633Y12532D01*
X6633Y12539D01*
X6633Y12618D01*
X6633Y12620D01*
X6633Y12621D01*
X6632Y12626D01*
X6632Y12632D01*
X6631Y12633D01*
X6631Y12635D01*
X6629Y12639D01*
X6627Y12644D01*
X6626Y12646D01*
X6625Y12647D01*
X6622Y12651D01*
X6619Y12656D01*
X6618Y12657D01*
X6617Y12658D01*
X6613Y12661D01*
X6610Y12665D01*
X6608Y12666D01*
X6607Y12667D01*
X6602Y12669D01*
X6598Y12672D01*
X6596Y12672D01*
X6595Y12673D01*
X6590Y12674D01*
X6585Y12676D01*
X6583Y12676D01*
X6582Y12676D01*
X6575Y12676D01*
X6317Y12676D01*
X6317Y12809D01*
X6323Y12834D01*
X6337Y12857D01*
X6339Y12859D01*
X6340Y12861D01*
X6341Y12862D01*
X6344Y12866D01*
X6347Y12870D01*
X6348Y12871D01*
X6349Y12873D01*
X6351Y12878D01*
X6353Y12882D01*
X6353Y12884D01*
X6354Y12885D01*
X6355Y12890D01*
X6356Y12895D01*
X6356Y12897D01*
X6356Y12899D01*
X6356Y12904D01*
X6355Y12909D01*
X6355Y12911D01*
X6355Y12912D01*
X6353Y12917D01*
X6352Y12922D01*
X6351Y12924D01*
X6351Y12925D01*
X6348Y12929D01*
X6345Y12934D01*
X6344Y12935D01*
X6344Y12937D01*
X6339Y12942D01*
X6298Y12982D01*
X6298Y13514D01*
X6368Y13583D01*
X6860Y13583D01*
X6930Y13514D01*
X6930Y13208D01*
X6931Y13202D01*
X6931Y13196D01*
X6931Y13195D01*
X6933Y13189D01*
X6935Y13184D01*
X6936Y13183D01*
X6936Y13182D01*
X6939Y13177D01*
X6942Y13172D01*
X6943Y13171D01*
X6944Y13171D01*
X6944Y13170D01*
X6947Y13167D01*
X7108Y13006D01*
X7108Y12421D01*
X7108Y12420D01*
X7108Y12418D01*
X7109Y12413D01*
X7110Y12408D01*
X7110Y12406D01*
X7110Y12405D01*
X7112Y12400D01*
X7114Y12395D01*
X7115Y12394D01*
X7116Y12392D01*
X7119Y12388D01*
X7122Y12384D01*
X7123Y12383D01*
X7124Y12381D01*
X7128Y12378D01*
X7131Y12375D01*
X7133Y12374D01*
X7134Y12373D01*
X7139Y12370D01*
X7143Y12368D01*
X7145Y12367D01*
X7146Y12367D01*
X7151Y12365D01*
X7156Y12364D01*
X7158Y12364D01*
X7159Y12363D01*
X7166Y12363D01*
X7657Y12363D01*
X7659Y12363D01*
X7661Y12363D01*
X7666Y12364D01*
X7671Y12365D01*
X7672Y12365D01*
X7674Y12365D01*
X7679Y12367D01*
X7684Y12369D01*
X7685Y12370D01*
X7687Y12371D01*
X7691Y12374D01*
X7695Y12377D01*
X7696Y12378D01*
X7697Y12379D01*
X7701Y12383D01*
X7704Y12386D01*
X7705Y12388D01*
X7706Y12389D01*
X7708Y12394D01*
X7711Y12398D01*
X7711Y12400D01*
X7712Y12401D01*
X7713Y12406D01*
X7715Y12411D01*
X7715Y12413D01*
X7715Y12414D01*
X7716Y12421D01*
X7716Y13845D01*
X8014Y14143D01*
X8017Y14148D01*
X8021Y14152D01*
X8022Y14153D01*
X8022Y14154D01*
X8025Y14159D01*
X8027Y14164D01*
X8027Y14165D01*
X8028Y14166D01*
X8029Y14172D01*
X8030Y14177D01*
X8030Y14179D01*
X8031Y14179D01*
X8030Y14180D01*
X8031Y14184D01*
X8031Y15499D01*
X8141Y15608D01*
X8565Y16033D01*
X8568Y16037D01*
X8572Y16042D01*
X8573Y16043D01*
X8576Y16049D01*
X8578Y16054D01*
X8579Y16055D01*
X8579Y16056D01*
X8580Y16061D01*
X8582Y16067D01*
X8582Y16068D01*
X8582Y16069D01*
X8582Y16070D01*
X8582Y16074D01*
X8582Y17210D01*
X8581Y17214D01*
X8581Y17219D01*
X8581Y17221D01*
X8580Y17224D01*
X8579Y17228D01*
X8578Y17232D01*
X8577Y17234D01*
X8576Y17236D01*
X8573Y17240D01*
X8571Y17244D01*
X8570Y17245D01*
X8568Y17248D01*
X8565Y17250D01*
X8562Y17254D01*
X8560Y17255D01*
X8558Y17257D01*
X8555Y17259D01*
X8551Y17261D01*
X8549Y17262D01*
X8547Y17264D01*
X8543Y17265D01*
X8539Y17266D01*
X8536Y17267D01*
X8534Y17268D01*
X8530Y17268D01*
X8525Y17268D01*
X8523Y17268D01*
X8520Y17268D01*
X8516Y17268D01*
X8512Y17267D01*
X8509Y17266D01*
X8507Y17266D01*
X8503Y17264D01*
X8499Y17263D01*
X8497Y17262D01*
X8495Y17261D01*
X8491Y17258D01*
X8488Y17256D01*
X8484Y17253D01*
X8483Y17252D01*
X8482Y17251D01*
X8452Y17221D01*
X8130Y17221D01*
X7902Y17449D01*
X7902Y17771D01*
X8130Y17999D01*
X8452Y17999D01*
X8482Y17969D01*
X8486Y17966D01*
X8489Y17964D01*
X8491Y17962D01*
X8493Y17961D01*
X8497Y17959D01*
X8500Y17957D01*
X8503Y17956D01*
X8505Y17955D01*
X8509Y17954D01*
X8513Y17953D01*
X8516Y17953D01*
X8519Y17952D01*
X8523Y17952D01*
X8527Y17952D01*
X8529Y17953D01*
X8532Y17953D01*
X8536Y17954D01*
X8540Y17954D01*
X8543Y17955D01*
X8545Y17956D01*
X8549Y17958D01*
X8553Y17960D01*
X8555Y17961D01*
X8557Y17963D01*
X8560Y17965D01*
X8564Y17968D01*
X8565Y17970D01*
X8567Y17972D01*
X8570Y17975D01*
X8572Y17978D01*
X8573Y17981D01*
X8575Y17983D01*
X8576Y17987D01*
X8578Y17990D01*
X8579Y17993D01*
X8580Y17995D01*
X8581Y17999D01*
X8582Y18003D01*
X8582Y18008D01*
X8582Y18009D01*
X8582Y18010D01*
X8582Y18125D01*
X8885Y18428D01*
X8889Y18433D01*
X8893Y18437D01*
X8893Y18438D01*
X8894Y18439D01*
X8896Y18444D01*
X8899Y18449D01*
X8899Y18450D01*
X8900Y18451D01*
X8901Y18457D01*
X8902Y18462D01*
X8902Y18464D01*
X8902Y18465D01*
X8902Y18469D01*
X8902Y18771D01*
X8929Y18797D01*
X8931Y18801D01*
X8934Y18804D01*
X8935Y18806D01*
X8937Y18808D01*
X8939Y18812D01*
X8941Y18815D01*
X8942Y18818D01*
X8943Y18820D01*
X8943Y18824D01*
X8945Y18828D01*
X8945Y18831D01*
X8945Y18833D01*
X8945Y18838D01*
X8946Y18842D01*
X8945Y18844D01*
X8945Y18847D01*
X8944Y18851D01*
X8943Y18855D01*
X8942Y18858D01*
X8942Y18860D01*
X8940Y18864D01*
X8938Y18868D01*
X8936Y18870D01*
X8935Y18872D01*
X8932Y18875D01*
X8930Y18879D01*
X8928Y18880D01*
X8926Y18882D01*
X8923Y18885D01*
X8919Y18887D01*
X8917Y18888D01*
X8915Y18890D01*
X8911Y18891D01*
X8907Y18893D01*
X8905Y18894D01*
X8902Y18895D01*
X8898Y18895D01*
X8894Y18896D01*
X8890Y18897D01*
X8889Y18897D01*
X8887Y18897D01*
X8695Y18897D01*
X8691Y18896D01*
X8687Y18896D01*
X8684Y18896D01*
X8682Y18895D01*
X8678Y18894D01*
X8674Y18893D01*
X8672Y18892D01*
X8669Y18891D01*
X8666Y18888D01*
X8662Y18886D01*
X8660Y18885D01*
X8658Y18883D01*
X8655Y18880D01*
X8652Y18877D01*
X8650Y18875D01*
X8649Y18873D01*
X8647Y18870D01*
X8644Y18866D01*
X8643Y18864D01*
X8642Y18862D01*
X8641Y18858D01*
X8639Y18854D01*
X8639Y18851D01*
X8638Y18849D01*
X8638Y18845D01*
X8637Y18840D01*
X8637Y18838D01*
X8637Y18835D01*
X8638Y18831D01*
X8638Y18827D01*
X8639Y18824D01*
X8639Y18822D01*
X8641Y18818D01*
X8642Y18814D01*
X8644Y18812D01*
X8645Y18810D01*
X8647Y18806D01*
X8650Y18803D01*
X8652Y18799D01*
X8653Y18799D01*
X8653Y18798D01*
X8654Y18797D01*
X8680Y18771D01*
X8680Y18449D01*
X8452Y18221D01*
X8130Y18221D01*
X7902Y18449D01*
X7902Y18771D01*
X7929Y18797D01*
X7931Y18801D01*
X7934Y18804D01*
X7935Y18806D01*
X7937Y18808D01*
X7939Y18812D01*
X7941Y18815D01*
X7942Y18818D01*
X7943Y18820D01*
X7943Y18824D01*
X7945Y18828D01*
X7945Y18831D01*
X7945Y18833D01*
X7945Y18838D01*
X7946Y18842D01*
X7945Y18844D01*
X7945Y18847D01*
X7944Y18851D01*
X7943Y18855D01*
X7942Y18858D01*
X7942Y18860D01*
X7940Y18864D01*
X7938Y18868D01*
X7936Y18870D01*
X7935Y18872D01*
X7932Y18875D01*
X7930Y18879D01*
X7928Y18880D01*
X7926Y18882D01*
X7923Y18885D01*
X7919Y18887D01*
X7917Y18888D01*
X7915Y18890D01*
X7911Y18891D01*
X7907Y18893D01*
X7905Y18894D01*
X7902Y18895D01*
X7898Y18895D01*
X7894Y18896D01*
X7890Y18897D01*
X7889Y18897D01*
X7887Y18897D01*
X7826Y18897D01*
X7820Y18896D01*
X7814Y18896D01*
X7813Y18895D01*
X7812Y18895D01*
X7807Y18893D01*
X7801Y18891D01*
X7800Y18891D01*
X7795Y18887D01*
X7790Y18884D01*
X7789Y18884D01*
X7788Y18883D01*
X7785Y18880D01*
X7697Y18792D01*
X7694Y18788D01*
X7690Y18783D01*
X7689Y18782D01*
X7686Y18776D01*
X7684Y18771D01*
X7684Y18770D01*
X7683Y18770D01*
X7682Y18764D01*
X7681Y18760D01*
X7681Y18758D01*
X7681Y18757D01*
X7680Y18756D01*
X7680Y18755D01*
X7680Y18751D01*
X7680Y18449D01*
X7452Y18221D01*
X7130Y18221D01*
X6902Y18449D01*
X6902Y18771D01*
X7130Y18999D01*
X7432Y18999D01*
X7438Y19000D01*
X7444Y19000D01*
X7445Y19001D01*
X7446Y19001D01*
X7451Y19003D01*
X7457Y19005D01*
X7458Y19005D01*
X7463Y19009D01*
X7468Y19012D01*
X7469Y19012D01*
X7470Y19013D01*
X7474Y19016D01*
X7561Y19104D01*
X7671Y19213D01*
X9672Y19213D01*
X9922Y18963D01*
X9922Y18932D01*
X9922Y18927D01*
X9923Y18923D01*
X9923Y18921D01*
X9924Y18918D01*
X9925Y18914D01*
X9926Y18910D01*
X9927Y18908D01*
X9928Y18905D01*
X9931Y18902D01*
X9933Y18898D01*
X9934Y18896D01*
X9936Y18894D01*
X9939Y18891D01*
X9942Y18888D01*
X9944Y18887D01*
X9945Y18885D01*
X9949Y18883D01*
X9953Y18880D01*
X9955Y18879D01*
X9957Y18878D01*
X9961Y18877D01*
X9965Y18875D01*
X9968Y18875D01*
X9970Y18874D01*
X9974Y18874D01*
X9979Y18873D01*
X9981Y18874D01*
X9984Y18873D01*
X9988Y18874D01*
X9992Y18874D01*
X9994Y18875D01*
X9997Y18876D01*
X10001Y18877D01*
X10005Y18879D01*
X10007Y18880D01*
X10009Y18881D01*
X10013Y18884D01*
X10016Y18886D01*
X10020Y18889D01*
X10021Y18890D01*
X10022Y18890D01*
X10130Y18999D01*
X10452Y18999D01*
X10680Y18771D01*
X10680Y18449D01*
X10452Y18221D01*
X10130Y18221D01*
X10022Y18330D01*
X10018Y18333D01*
X10015Y18336D01*
X10013Y18337D01*
X10011Y18338D01*
X10007Y18340D01*
X10003Y18342D01*
X10001Y18343D01*
X9999Y18344D01*
X9995Y18345D01*
X9990Y18346D01*
X9988Y18346D01*
X9985Y18347D01*
X9981Y18347D01*
X9977Y18347D01*
X9974Y18347D01*
X9972Y18347D01*
X9968Y18345D01*
X9964Y18345D01*
X9961Y18344D01*
X9959Y18343D01*
X9955Y18341D01*
X9951Y18339D01*
X9949Y18338D01*
X9947Y18337D01*
X9944Y18334D01*
X9940Y18331D01*
X9939Y18329D01*
X9937Y18328D01*
X9934Y18324D01*
X9932Y18321D01*
X9930Y18319D01*
X9929Y18317D01*
X9927Y18313D01*
X9926Y18309D01*
X9925Y18306D01*
X9924Y18304D01*
X9923Y18300D01*
X9922Y18296D01*
X9922Y18292D01*
X9922Y18291D01*
X9922Y18290D01*
X9922Y18289D01*
X9922Y17932D01*
X9922Y17931D01*
X9922Y17930D01*
X9922Y17929D01*
X9922Y17927D01*
X9923Y17923D01*
X9923Y17921D01*
X9924Y17918D01*
X9925Y17914D01*
X9926Y17910D01*
X9927Y17908D01*
X9928Y17905D01*
X9931Y17902D01*
X9933Y17898D01*
X9934Y17896D01*
X9936Y17894D01*
X9939Y17891D01*
X9942Y17888D01*
X9944Y17887D01*
X9945Y17885D01*
X9949Y17883D01*
X9953Y17880D01*
X9955Y17879D01*
X9957Y17878D01*
X9961Y17877D01*
X9965Y17875D01*
X9968Y17875D01*
X9970Y17874D01*
X9974Y17874D01*
X9979Y17873D01*
X9981Y17874D01*
X9984Y17873D01*
X9988Y17874D01*
X9992Y17874D01*
X9994Y17875D01*
X9997Y17876D01*
X10001Y17877D01*
X10005Y17879D01*
X10007Y17880D01*
X10009Y17881D01*
X10013Y17884D01*
X10016Y17886D01*
X10020Y17889D01*
X10021Y17890D01*
X10022Y17890D01*
X10130Y17999D01*
X10452Y17999D01*
X10680Y17771D01*
X10680Y17449D01*
X10452Y17221D01*
X10130Y17221D01*
X10022Y17330D01*
X10018Y17333D01*
X10015Y17336D01*
X10013Y17337D01*
X10011Y17338D01*
X10007Y17340D01*
X10003Y17342D01*
X10001Y17343D01*
X9999Y17344D01*
X9995Y17345D01*
X9990Y17346D01*
X9988Y17346D01*
X9985Y17347D01*
X9981Y17347D01*
X9977Y17347D01*
X9974Y17347D01*
X9972Y17347D01*
X9968Y17345D01*
X9964Y17345D01*
X9961Y17344D01*
X9959Y17343D01*
X9955Y17341D01*
X9951Y17339D01*
X9949Y17338D01*
X9947Y17337D01*
X9944Y17334D01*
X9940Y17331D01*
X9939Y17329D01*
X9937Y17328D01*
X9934Y17324D01*
X9932Y17321D01*
X9930Y17319D01*
X9929Y17317D01*
X9927Y17313D01*
X9926Y17309D01*
X9925Y17306D01*
X9924Y17304D01*
X9923Y17300D01*
X9922Y17296D01*
X9922Y17292D01*
X9922Y17291D01*
X9922Y17290D01*
X9922Y17289D01*
X9922Y17179D01*
X9309Y16566D01*
X9306Y16561D01*
X9302Y16557D01*
X9301Y16556D01*
X9301Y16555D01*
X9298Y16550D01*
X9296Y16545D01*
X9295Y16544D01*
X9295Y16543D01*
X9294Y16537D01*
X9292Y16531D01*
X9292Y16530D01*
X9292Y16529D01*
X9292Y16524D01*
X9292Y15666D01*
X9293Y15662D01*
X9293Y15658D01*
X9293Y15655D01*
X9294Y15653D01*
X9295Y15649D01*
X9296Y15645D01*
X9297Y15642D01*
X9298Y15640D01*
X9301Y15636D01*
X9303Y15633D01*
X9304Y15631D01*
X9306Y15629D01*
X9309Y15626D01*
X9312Y15623D01*
X9314Y15621D01*
X9316Y15619D01*
X9319Y15617D01*
X9323Y15615D01*
X9325Y15614D01*
X9327Y15613D01*
X9331Y15611D01*
X9335Y15610D01*
X9338Y15609D01*
X9340Y15609D01*
X9344Y15609D01*
X9349Y15608D01*
X9351Y15608D01*
X9354Y15608D01*
X9358Y15609D01*
X9362Y15609D01*
X9365Y15610D01*
X9367Y15610D01*
X9371Y15612D01*
X9375Y15613D01*
X9377Y15615D01*
X9379Y15616D01*
X9383Y15618D01*
X9386Y15620D01*
X9390Y15623D01*
X9390Y15624D01*
X9391Y15624D01*
X9392Y15625D01*
X9406Y15639D01*
X9549Y15698D01*
X9703Y15698D01*
X9846Y15639D01*
X9956Y15530D01*
X10015Y15387D01*
X10015Y14692D01*
X9956Y14549D01*
X9846Y14440D01*
X9703Y14381D01*
X9549Y14381D01*
X9406Y14440D01*
X9392Y14454D01*
X9388Y14456D01*
X9385Y14459D01*
X9383Y14461D01*
X9381Y14462D01*
X9377Y14464D01*
X9374Y14466D01*
X9371Y14467D01*
X9369Y14468D01*
X9365Y14469D01*
X9361Y14470D01*
X9358Y14470D01*
X9356Y14471D01*
X9351Y14471D01*
X9347Y14471D01*
X9345Y14470D01*
X9342Y14470D01*
X9338Y14469D01*
X9334Y14468D01*
X9331Y14467D01*
X9329Y14467D01*
X9325Y14465D01*
X9321Y14463D01*
X9319Y14462D01*
X9317Y14460D01*
X9314Y14458D01*
X9310Y14455D01*
X9309Y14453D01*
X9307Y14451D01*
X9304Y14448D01*
X9302Y14445D01*
X9301Y14442D01*
X9299Y14440D01*
X9298Y14436D01*
X9296Y14433D01*
X9295Y14430D01*
X9294Y14428D01*
X9294Y14424D01*
X9182Y14313D01*
X9064Y14195D01*
X9062Y14191D01*
X9059Y14188D01*
X9057Y14186D01*
X9056Y14184D01*
X9054Y14180D01*
X9052Y14177D01*
X9051Y14174D01*
X9050Y14172D01*
X9049Y14168D01*
X9048Y14164D01*
X9048Y14161D01*
X9047Y14159D01*
X9047Y14154D01*
X9047Y14150D01*
X9048Y14148D01*
X9048Y14145D01*
X9049Y14141D01*
X9050Y14137D01*
X9051Y14135D01*
X9051Y14132D01*
X9053Y14128D01*
X9055Y14124D01*
X9056Y14122D01*
X9058Y14120D01*
X9060Y14117D01*
X9063Y14114D01*
X9065Y14112D01*
X9067Y14110D01*
X9070Y14108D01*
X9073Y14105D01*
X9076Y14104D01*
X9078Y14102D01*
X9082Y14101D01*
X9085Y14099D01*
X9088Y14098D01*
X9090Y14097D01*
X9094Y14097D01*
X9099Y14096D01*
X9103Y14095D01*
X9104Y14095D01*
X9105Y14095D01*
X10461Y14095D01*
X10467Y14096D01*
X10473Y14096D01*
X10474Y14097D01*
X10475Y14097D01*
X10480Y14099D01*
X10486Y14101D01*
X10487Y14101D01*
X10488Y14101D01*
X10493Y14105D01*
X10498Y14108D01*
X10498Y14109D01*
X10499Y14109D01*
X10500Y14110D01*
X10503Y14112D01*
X10671Y14281D01*
X10674Y14284D01*
X10677Y14287D01*
X10678Y14290D01*
X10680Y14292D01*
X10682Y14295D01*
X10684Y14299D01*
X10684Y14302D01*
X10685Y14304D01*
X10686Y14308D01*
X10688Y14312D01*
X10688Y14315D01*
X10688Y14317D01*
X10688Y14321D01*
X10688Y14326D01*
X10688Y14328D01*
X10688Y14331D01*
X10687Y14335D01*
X10686Y14339D01*
X10685Y14341D01*
X10684Y14344D01*
X10682Y14347D01*
X10681Y14351D01*
X10679Y14353D01*
X10678Y14356D01*
X10675Y14359D01*
X10673Y14362D01*
X10671Y14364D01*
X10669Y14366D01*
X10666Y14368D01*
X10662Y14371D01*
X10660Y14372D01*
X10658Y14373D01*
X10654Y14375D01*
X10650Y14377D01*
X10648Y14378D01*
X10645Y14379D01*
X10641Y14379D01*
X10637Y14380D01*
X10633Y14380D01*
X10632Y14380D01*
X10631Y14380D01*
X10630Y14381D01*
X10549Y14381D01*
X10406Y14440D01*
X10296Y14549D01*
X10237Y14692D01*
X10237Y15387D01*
X10296Y15530D01*
X10406Y15639D01*
X10549Y15698D01*
X10703Y15698D01*
X10846Y15639D01*
X10885Y15600D01*
X10886Y15599D01*
X10887Y15598D01*
X10891Y15595D01*
X10895Y15592D01*
X10897Y15591D01*
X10898Y15590D01*
X10903Y15589D01*
X10908Y15586D01*
X10909Y15586D01*
X10911Y15585D01*
X10916Y15585D01*
X10921Y15584D01*
X10923Y15584D01*
X10924Y15583D01*
X10929Y15584D01*
X10934Y15584D01*
X10936Y15584D01*
X10938Y15585D01*
X10943Y15586D01*
X10948Y15588D01*
X10949Y15588D01*
X10951Y15589D01*
X10955Y15591D01*
X10959Y15594D01*
X10961Y15595D01*
X10962Y15596D01*
X10967Y15600D01*
X11557Y16190D01*
X11561Y16195D01*
X11564Y16199D01*
X11565Y16200D01*
X11565Y16201D01*
X11568Y16206D01*
X11570Y16211D01*
X11571Y16212D01*
X11571Y16213D01*
X11572Y16219D01*
X11574Y16225D01*
X11574Y16226D01*
X11574Y16227D01*
X11574Y16231D01*
X11574Y17228D01*
X11574Y17232D01*
X11573Y17236D01*
X11573Y17239D01*
X11572Y17241D01*
X11571Y17245D01*
X11570Y17249D01*
X11569Y17252D01*
X11568Y17254D01*
X11566Y17258D01*
X11564Y17261D01*
X11562Y17263D01*
X11560Y17265D01*
X11557Y17268D01*
X11555Y17271D01*
X11552Y17273D01*
X11551Y17275D01*
X11547Y17277D01*
X11543Y17279D01*
X11541Y17280D01*
X11539Y17281D01*
X11535Y17283D01*
X11531Y17284D01*
X11528Y17285D01*
X11526Y17285D01*
X11522Y17286D01*
X11518Y17286D01*
X11515Y17286D01*
X11512Y17286D01*
X11508Y17285D01*
X11504Y17285D01*
X11502Y17284D01*
X11499Y17284D01*
X11495Y17282D01*
X11491Y17281D01*
X11489Y17279D01*
X11487Y17278D01*
X11483Y17276D01*
X11480Y17274D01*
X11477Y17271D01*
X11476Y17270D01*
X11475Y17270D01*
X11475Y17269D01*
X11445Y17239D01*
X11381Y17239D01*
X11381Y17579D01*
X11380Y17581D01*
X11380Y17583D01*
X11380Y17588D01*
X11379Y17593D01*
X11378Y17594D01*
X11378Y17596D01*
X11376Y17601D01*
X11374Y17605D01*
X11373Y17607D01*
X11373Y17608D01*
X11371Y17610D01*
X11373Y17614D01*
X11376Y17618D01*
X11376Y17620D01*
X11377Y17621D01*
X11378Y17626D01*
X11380Y17631D01*
X11380Y17633D01*
X11380Y17634D01*
X11381Y17641D01*
X11381Y17981D01*
X11445Y17981D01*
X11475Y17951D01*
X11478Y17949D01*
X11481Y17946D01*
X11483Y17945D01*
X11485Y17943D01*
X11489Y17941D01*
X11493Y17939D01*
X11495Y17938D01*
X11497Y17937D01*
X11502Y17936D01*
X11506Y17935D01*
X11508Y17935D01*
X11511Y17935D01*
X11515Y17935D01*
X11519Y17934D01*
X11522Y17935D01*
X11524Y17935D01*
X11528Y17936D01*
X11532Y17937D01*
X11535Y17938D01*
X11537Y17938D01*
X11541Y17940D01*
X11545Y17942D01*
X11547Y17944D01*
X11549Y17945D01*
X11552Y17948D01*
X11556Y17950D01*
X11557Y17952D01*
X11559Y17954D01*
X11562Y17957D01*
X11564Y17960D01*
X11566Y17963D01*
X11567Y17965D01*
X11569Y17969D01*
X11570Y17973D01*
X11571Y17975D01*
X11572Y17977D01*
X11573Y17982D01*
X11574Y17986D01*
X11574Y17990D01*
X11574Y17991D01*
X11574Y17993D01*
X11574Y18080D01*
X11573Y18085D01*
X11573Y18091D01*
X11573Y18092D01*
X11572Y18093D01*
X11570Y18099D01*
X11569Y18104D01*
X11568Y18105D01*
X11568Y18106D01*
X11565Y18111D01*
X11562Y18116D01*
X11561Y18117D01*
X11560Y18117D01*
X11560Y18118D01*
X11557Y18121D01*
X11474Y18204D01*
X11469Y18208D01*
X11464Y18212D01*
X11463Y18213D01*
X11458Y18215D01*
X11452Y18218D01*
X11451Y18218D01*
X11445Y18220D01*
X11439Y18221D01*
X11438Y18221D01*
X11437Y18221D01*
X11436Y18221D01*
X11432Y18221D01*
X11130Y18221D01*
X10902Y18449D01*
X10902Y18771D01*
X11130Y18999D01*
X11452Y18999D01*
X11680Y18771D01*
X11680Y18469D01*
X11681Y18463D01*
X11681Y18458D01*
X11682Y18457D01*
X11682Y18456D01*
X11684Y18450D01*
X11686Y18445D01*
X11686Y18444D01*
X11686Y18443D01*
X11690Y18438D01*
X11693Y18433D01*
X11694Y18432D01*
X11694Y18431D01*
X11697Y18428D01*
X11891Y18235D01*
X11891Y16076D01*
X11612Y15798D01*
X11609Y15794D01*
X11607Y15791D01*
X11605Y15789D01*
X11604Y15787D01*
X11602Y15783D01*
X11600Y15780D01*
X11599Y15777D01*
X11598Y15775D01*
X11597Y15771D01*
X11596Y15767D01*
X11596Y15764D01*
X11595Y15762D01*
X11595Y15757D01*
X11595Y15753D01*
X11596Y15751D01*
X11596Y15748D01*
X11597Y15744D01*
X11597Y15740D01*
X11598Y15738D01*
X11599Y15735D01*
X11601Y15731D01*
X11603Y15727D01*
X11604Y15725D01*
X11606Y15723D01*
X11608Y15720D01*
X11611Y15717D01*
X11613Y15715D01*
X11615Y15713D01*
X11618Y15711D01*
X11621Y15708D01*
X11623Y15707D01*
X11626Y15705D01*
X11629Y15704D01*
X11633Y15702D01*
X11636Y15701D01*
X11638Y15700D01*
X11642Y15700D01*
X11646Y15699D01*
X11651Y15698D01*
X11652Y15698D01*
X11653Y15698D01*
X11703Y15698D01*
X11846Y15639D01*
X11956Y15530D01*
X12015Y15387D01*
X12015Y14692D01*
X11956Y14549D01*
X11846Y14440D01*
X11703Y14381D01*
X11549Y14381D01*
X11406Y14440D01*
X11360Y14485D01*
X11357Y14488D01*
X11354Y14491D01*
X11352Y14492D01*
X11350Y14494D01*
X11346Y14495D01*
X11342Y14498D01*
X11340Y14498D01*
X11337Y14499D01*
X11333Y14500D01*
X11329Y14501D01*
X11327Y14502D01*
X11324Y14502D01*
X11320Y14502D01*
X11316Y14502D01*
X11313Y14502D01*
X11310Y14502D01*
X11306Y14501D01*
X11302Y14500D01*
X11300Y14499D01*
X11297Y14498D01*
X11294Y14496D01*
X11290Y14495D01*
X11288Y14493D01*
X11285Y14492D01*
X11282Y14489D01*
X11279Y14487D01*
X11277Y14485D01*
X11275Y14483D01*
X11273Y14479D01*
X11270Y14476D01*
X11269Y14474D01*
X11268Y14472D01*
X11266Y14468D01*
X11264Y14464D01*
X11264Y14462D01*
X11263Y14459D01*
X11262Y14455D01*
X11261Y14451D01*
X11261Y14447D01*
X11261Y14446D01*
X11261Y14445D01*
X11261Y14444D01*
X11261Y14423D01*
X10875Y14037D01*
X10873Y14034D01*
X10870Y14031D01*
X10868Y14029D01*
X10867Y14027D01*
X10865Y14023D01*
X10863Y14019D01*
X10862Y14017D01*
X10861Y14014D01*
X10860Y14010D01*
X10859Y14006D01*
X10859Y14004D01*
X10858Y14001D01*
X10859Y13997D01*
X10858Y13993D01*
X10859Y13990D01*
X10859Y13988D01*
X10860Y13984D01*
X10861Y13979D01*
X10862Y13977D01*
X10862Y13975D01*
X10864Y13971D01*
X10866Y13967D01*
X10867Y13965D01*
X10869Y13963D01*
X10871Y13960D01*
X10874Y13956D01*
X10876Y13954D01*
X10878Y13953D01*
X10881Y13950D01*
X10884Y13947D01*
X10887Y13946D01*
X10889Y13945D01*
X10893Y13943D01*
X10896Y13941D01*
X10899Y13941D01*
X10901Y13940D01*
X10905Y13939D01*
X10910Y13938D01*
X10914Y13938D01*
X10915Y13938D01*
X10916Y13938D01*
X12821Y13938D01*
X13150Y13609D01*
X13150Y13465D01*
X13151Y13463D01*
X13150Y13461D01*
X13151Y13456D01*
X13152Y13451D01*
X13152Y13450D01*
X13153Y13448D01*
X13155Y13443D01*
X13157Y13438D01*
X13157Y13437D01*
X13158Y13435D01*
X13161Y13431D01*
X13164Y13427D01*
X13165Y13426D01*
X13166Y13425D01*
X13170Y13421D01*
X13174Y13418D01*
X13175Y13417D01*
X13177Y13416D01*
X13181Y13414D01*
X13186Y13411D01*
X13187Y13411D01*
X13189Y13410D01*
X13194Y13409D01*
X13198Y13407D01*
X13200Y13407D01*
X13202Y13407D01*
X13209Y13406D01*
X13337Y13406D01*
X13406Y13337D01*
X13406Y12648D01*
X13337Y12578D01*
X12648Y12578D01*
X12573Y12652D01*
X12570Y12655D01*
X12567Y12657D01*
X12565Y12659D01*
X12563Y12661D01*
X12559Y12662D01*
X12556Y12664D01*
X12553Y12665D01*
X12550Y12666D01*
X12547Y12667D01*
X12543Y12668D01*
X12540Y12669D01*
X12537Y12669D01*
X12533Y12669D01*
X12529Y12669D01*
X12527Y12669D01*
X12524Y12669D01*
X12520Y12668D01*
X12516Y12667D01*
X12513Y12666D01*
X12511Y12665D01*
X12507Y12664D01*
X12504Y12662D01*
X12499Y12659D01*
X12498Y12659D01*
X12498Y12658D01*
X12491Y12653D01*
X12435Y12625D01*
X12381Y12607D01*
X12381Y12953D01*
X12381Y12954D01*
X12381Y12956D01*
X12380Y12961D01*
X12380Y12966D01*
X12379Y12968D01*
X12379Y12969D01*
X12377Y12974D01*
X12375Y12979D01*
X12374Y12980D01*
X12373Y12982D01*
X12370Y12986D01*
X12368Y12990D01*
X12366Y12991D01*
X12366Y12992D01*
X12366Y12993D01*
X12370Y12997D01*
X12370Y12998D01*
X12371Y12999D01*
X12374Y13004D01*
X12376Y13008D01*
X12377Y13010D01*
X12378Y13011D01*
X12379Y13016D01*
X12380Y13021D01*
X12380Y13023D01*
X12381Y13025D01*
X12381Y13032D01*
X12381Y13377D01*
X12435Y13359D01*
X12491Y13331D01*
X12498Y13326D01*
X12501Y13324D01*
X12504Y13322D01*
X12507Y13321D01*
X12510Y13319D01*
X12513Y13318D01*
X12517Y13317D01*
X12520Y13316D01*
X12523Y13316D01*
X12526Y13315D01*
X12530Y13315D01*
X12533Y13315D01*
X12536Y13315D01*
X12540Y13316D01*
X12544Y13316D01*
X12546Y13317D01*
X12549Y13317D01*
X12553Y13319D01*
X12557Y13320D01*
X12559Y13322D01*
X12562Y13323D01*
X12565Y13325D01*
X12568Y13327D01*
X12572Y13331D01*
X12573Y13331D01*
X12573Y13332D01*
X12648Y13406D01*
X12765Y13406D01*
X12769Y13407D01*
X12773Y13407D01*
X12776Y13408D01*
X12778Y13408D01*
X12782Y13409D01*
X12786Y13410D01*
X12788Y13412D01*
X12791Y13412D01*
X12794Y13415D01*
X12798Y13417D01*
X12800Y13418D01*
X12802Y13420D01*
X12805Y13423D01*
X12808Y13426D01*
X12810Y13428D01*
X12811Y13430D01*
X12814Y13433D01*
X12816Y13437D01*
X12817Y13439D01*
X12818Y13441D01*
X12819Y13445D01*
X12821Y13449D01*
X12821Y13452D01*
X12822Y13454D01*
X12822Y13459D01*
X12823Y13463D01*
X12823Y13465D01*
X12823Y13468D01*
X12822Y13472D01*
X12822Y13476D01*
X12821Y13479D01*
X12821Y13481D01*
X12819Y13485D01*
X12818Y13489D01*
X12816Y13491D01*
X12815Y13494D01*
X12813Y13497D01*
X12810Y13501D01*
X12808Y13504D01*
X12807Y13505D01*
X12806Y13506D01*
X12707Y13604D01*
X12703Y13608D01*
X12698Y13612D01*
X12697Y13613D01*
X12692Y13615D01*
X12686Y13618D01*
X12685Y13618D01*
X12679Y13620D01*
X12673Y13621D01*
X12672Y13621D01*
X12671Y13621D01*
X12670Y13621D01*
X12666Y13621D01*
X11704Y13621D01*
X11700Y13621D01*
X11695Y13621D01*
X11693Y13620D01*
X11690Y13620D01*
X11686Y13618D01*
X11682Y13617D01*
X11680Y13616D01*
X11678Y13615D01*
X11674Y13613D01*
X11670Y13611D01*
X11669Y13609D01*
X11666Y13608D01*
X11664Y13605D01*
X11660Y13602D01*
X11659Y13600D01*
X11657Y13598D01*
X11655Y13594D01*
X11653Y13591D01*
X11652Y13588D01*
X11650Y13586D01*
X11649Y13582D01*
X11648Y13578D01*
X11647Y13576D01*
X11646Y13573D01*
X11646Y13569D01*
X11646Y13565D01*
X11646Y13562D01*
X11646Y13560D01*
X11646Y13556D01*
X11647Y13551D01*
X11648Y13549D01*
X11648Y13546D01*
X11650Y13542D01*
X11651Y13538D01*
X11652Y13536D01*
X11653Y13534D01*
X11656Y13531D01*
X11658Y13527D01*
X11661Y13524D01*
X11661Y13523D01*
X11662Y13523D01*
X11663Y13522D01*
X11733Y13451D01*
X11733Y13414D01*
X11733Y13410D01*
X11734Y13406D01*
X11734Y13403D01*
X11735Y13400D01*
X11736Y13397D01*
X11737Y13393D01*
X11738Y13390D01*
X11739Y13388D01*
X11741Y13384D01*
X11743Y13381D01*
X11745Y13379D01*
X11747Y13376D01*
X11749Y13374D01*
X11752Y13371D01*
X11754Y13369D01*
X11756Y13367D01*
X11760Y13365D01*
X11763Y13363D01*
X11768Y13361D01*
X11768Y13360D01*
X11769Y13360D01*
X11809Y13343D01*
X11901Y13252D01*
X11902Y13251D01*
X11903Y13250D01*
X11907Y13247D01*
X11911Y13244D01*
X11913Y13243D01*
X11914Y13242D01*
X11919Y13240D01*
X11924Y13238D01*
X11925Y13237D01*
X11927Y13237D01*
X11932Y13236D01*
X11937Y13235D01*
X11938Y13235D01*
X11940Y13235D01*
X11945Y13235D01*
X11950Y13235D01*
X11952Y13236D01*
X11954Y13236D01*
X11958Y13238D01*
X11963Y13239D01*
X11965Y13240D01*
X11966Y13240D01*
X11971Y13243D01*
X11975Y13245D01*
X11977Y13246D01*
X11978Y13247D01*
X11983Y13252D01*
X12025Y13294D01*
X12076Y13331D01*
X12131Y13359D01*
X12186Y13377D01*
X12186Y13032D01*
X12186Y13030D01*
X12186Y13028D01*
X12187Y13023D01*
X12187Y13018D01*
X12188Y13016D01*
X12188Y13015D01*
X12190Y13010D01*
X12192Y13005D01*
X12193Y13004D01*
X12194Y13002D01*
X12197Y12998D01*
X12199Y12994D01*
X12201Y12993D01*
X12201Y12992D01*
X12201Y12991D01*
X12197Y12988D01*
X12197Y12986D01*
X12195Y12985D01*
X12193Y12980D01*
X12191Y12976D01*
X12190Y12974D01*
X12189Y12973D01*
X12188Y12968D01*
X12187Y12963D01*
X12187Y12961D01*
X12186Y12960D01*
X12186Y12953D01*
X12186Y12607D01*
X12131Y12625D01*
X12076Y12653D01*
X12025Y12690D01*
X11983Y12732D01*
X11982Y12733D01*
X11981Y12735D01*
X11977Y12738D01*
X11973Y12741D01*
X11971Y12741D01*
X11970Y12742D01*
X11965Y12744D01*
X11960Y12746D01*
X11959Y12747D01*
X11957Y12747D01*
X11952Y12748D01*
X11947Y12749D01*
X11945Y12749D01*
X11944Y12749D01*
X11939Y12749D01*
X11934Y12749D01*
X11932Y12748D01*
X11930Y12748D01*
X11925Y12747D01*
X11920Y12745D01*
X11919Y12745D01*
X11917Y12744D01*
X11913Y12741D01*
X11909Y12739D01*
X11907Y12738D01*
X11906Y12737D01*
X11901Y12732D01*
X11809Y12641D01*
X11657Y12578D01*
X11492Y12578D01*
X11348Y12638D01*
X11346Y12638D01*
X11344Y12639D01*
X11340Y12640D01*
X11335Y12641D01*
X11333Y12642D01*
X11331Y12642D01*
X11326Y12642D01*
X11322Y12642D01*
X11320Y12642D01*
X11317Y12642D01*
X11313Y12640D01*
X11308Y12640D01*
X11306Y12639D01*
X11304Y12638D01*
X11300Y12636D01*
X11296Y12634D01*
X11294Y12633D01*
X11292Y12632D01*
X11289Y12629D01*
X11285Y12626D01*
X11284Y12624D01*
X11282Y12623D01*
X11280Y12619D01*
X11277Y12615D01*
X11276Y12613D01*
X11275Y12612D01*
X11273Y12607D01*
X11271Y12603D01*
X11270Y12601D01*
X11270Y12599D01*
X11269Y12594D01*
X11268Y12590D01*
X11268Y12588D01*
X11268Y12586D01*
X11268Y12581D01*
X11268Y12576D01*
X11268Y12574D01*
X11269Y12572D01*
X11270Y12568D01*
X11271Y12563D01*
X11272Y12561D01*
X11273Y12559D01*
X11275Y12555D01*
X11278Y12551D01*
X11279Y12550D01*
X11280Y12548D01*
X11285Y12543D01*
X11325Y12502D01*
X11327Y12497D01*
X11329Y12494D01*
X11330Y12491D01*
X11332Y12488D01*
X11333Y12486D01*
X11336Y12483D01*
X11338Y12480D01*
X11341Y12478D01*
X11343Y12476D01*
X11346Y12473D01*
X11349Y12471D01*
X11351Y12470D01*
X11354Y12468D01*
X11357Y12467D01*
X11361Y12465D01*
X11364Y12464D01*
X11366Y12463D01*
X11370Y12463D01*
X11374Y12462D01*
X11379Y12461D01*
X11380Y12461D01*
X11381Y12461D01*
X11880Y12461D01*
X11927Y12414D01*
X11929Y12413D01*
X11930Y12412D01*
X11934Y12409D01*
X11938Y12406D01*
X11939Y12405D01*
X11941Y12404D01*
X11946Y12402D01*
X11950Y12400D01*
X11952Y12400D01*
X11953Y12399D01*
X11958Y12398D01*
X11963Y12397D01*
X11965Y12397D01*
X11967Y12397D01*
X11972Y12397D01*
X11977Y12398D01*
X11979Y12398D01*
X11980Y12398D01*
X11985Y12400D01*
X11990Y12401D01*
X11991Y12402D01*
X11993Y12402D01*
X11997Y12405D01*
X12002Y12407D01*
X12003Y12409D01*
X12005Y12409D01*
X12010Y12414D01*
X12057Y12461D01*
X12549Y12461D01*
X12619Y12392D01*
X12619Y12343D01*
X12619Y12341D01*
X12619Y12339D01*
X12620Y12334D01*
X12620Y12329D01*
X12621Y12328D01*
X12621Y12326D01*
X12623Y12321D01*
X12625Y12316D01*
X12626Y12315D01*
X12627Y12313D01*
X12630Y12309D01*
X12632Y12305D01*
X12634Y12304D01*
X12635Y12303D01*
X12639Y12299D01*
X12642Y12296D01*
X12644Y12295D01*
X12645Y12294D01*
X12650Y12292D01*
X12654Y12289D01*
X12656Y12289D01*
X12657Y12288D01*
X12662Y12287D01*
X12667Y12285D01*
X12669Y12285D01*
X12670Y12285D01*
X12677Y12284D01*
X13623Y12284D01*
X13629Y12285D01*
X13635Y12285D01*
X13636Y12286D01*
X13637Y12286D01*
X13642Y12288D01*
X13648Y12290D01*
X13649Y12290D01*
X13654Y12294D01*
X13659Y12297D01*
X13660Y12298D01*
X13661Y12298D01*
X13664Y12301D01*
X13781Y12418D01*
X13802Y12426D01*
X13805Y12429D01*
X13809Y12430D01*
X13811Y12432D01*
X13813Y12433D01*
X13816Y12436D01*
X13820Y12438D01*
X13821Y12440D01*
X13823Y12442D01*
X13826Y12446D01*
X13828Y12449D01*
X13829Y12451D01*
X13831Y12453D01*
X13832Y12457D01*
X13834Y12461D01*
X13835Y12464D01*
X13836Y12466D01*
X13836Y12470D01*
X13837Y12474D01*
X13837Y12477D01*
X13838Y12479D01*
X13837Y12484D01*
X13837Y12488D01*
X13836Y12490D01*
X13836Y12493D01*
X13835Y12497D01*
X13834Y12501D01*
X13833Y12503D01*
X13832Y12506D01*
X13829Y12509D01*
X13828Y12513D01*
X13826Y12515D01*
X13824Y12517D01*
X13821Y12520D01*
X13819Y12523D01*
X13817Y12525D01*
X13815Y12527D01*
X13811Y12529D01*
X13808Y12531D01*
X13804Y12533D01*
X13803Y12533D01*
X13803Y12534D01*
X13802Y12534D01*
X13781Y12543D01*
X13665Y12659D01*
X13602Y12811D01*
X13602Y12976D01*
X13665Y13128D01*
X13782Y13246D01*
X13785Y13247D01*
X13787Y13249D01*
X13790Y13250D01*
X13793Y13253D01*
X13796Y13255D01*
X13798Y13257D01*
X13800Y13259D01*
X13802Y13263D01*
X13805Y13266D01*
X13806Y13268D01*
X13807Y13270D01*
X13809Y13274D01*
X13810Y13278D01*
X13811Y13281D01*
X13812Y13283D01*
X13813Y13287D01*
X13813Y13291D01*
X13813Y13294D01*
X13814Y13296D01*
X13813Y13301D01*
X13813Y13305D01*
X13813Y13307D01*
X13812Y13310D01*
X13811Y13314D01*
X13810Y13318D01*
X13809Y13320D01*
X13808Y13323D01*
X13806Y13326D01*
X13804Y13330D01*
X13802Y13332D01*
X13801Y13334D01*
X13798Y13337D01*
X13795Y13340D01*
X13793Y13342D01*
X13791Y13343D01*
X13787Y13346D01*
X13784Y13348D01*
X13782Y13349D01*
X13665Y13466D01*
X13602Y13618D01*
X13602Y13783D01*
X13665Y13935D01*
X13781Y14052D01*
X13933Y14115D01*
X14098Y14115D01*
X14250Y14052D01*
X14342Y13961D01*
X14343Y13960D01*
X14344Y13958D01*
X14348Y13955D01*
X14352Y13952D01*
X14354Y13951D01*
X14355Y13950D01*
X14360Y13949D01*
X14365Y13946D01*
X14366Y13946D01*
X14368Y13945D01*
X14373Y13945D01*
X14378Y13944D01*
X14379Y13944D01*
X14381Y13944D01*
X14386Y13944D01*
X14391Y13944D01*
X14393Y13945D01*
X14395Y13945D01*
X14399Y13946D01*
X14404Y13948D01*
X14406Y13948D01*
X14407Y13949D01*
X14412Y13952D01*
X14416Y13954D01*
X14418Y13955D01*
X14419Y13956D01*
X14424Y13961D01*
X14466Y14003D01*
X14517Y14040D01*
X14572Y14068D01*
X14627Y14085D01*
X14627Y13740D01*
X14627Y13739D01*
X14627Y13737D01*
X14628Y13732D01*
X14628Y13727D01*
X14629Y13725D01*
X14629Y13724D01*
X14631Y13719D01*
X14633Y13714D01*
X14634Y13713D01*
X14635Y13711D01*
X14638Y13707D01*
X14640Y13703D01*
X14642Y13702D01*
X14642Y13701D01*
X14642Y13700D01*
X14638Y13696D01*
X14637Y13695D01*
X14636Y13694D01*
X14634Y13689D01*
X14632Y13685D01*
X14631Y13683D01*
X14630Y13681D01*
X14629Y13676D01*
X14628Y13672D01*
X14628Y13670D01*
X14627Y13668D01*
X14627Y13661D01*
X14627Y12933D01*
X14627Y12931D01*
X14627Y12930D01*
X14628Y12925D01*
X14628Y12920D01*
X14629Y12918D01*
X14629Y12916D01*
X14631Y12912D01*
X14633Y12907D01*
X14634Y12906D01*
X14635Y12904D01*
X14638Y12900D01*
X14640Y12896D01*
X14642Y12894D01*
X14642Y12893D01*
X14638Y12889D01*
X14637Y12888D01*
X14636Y12886D01*
X14634Y12882D01*
X14632Y12877D01*
X14631Y12876D01*
X14630Y12874D01*
X14629Y12869D01*
X14628Y12865D01*
X14628Y12863D01*
X14627Y12861D01*
X14627Y12854D01*
X14627Y12106D01*
X14627Y12105D01*
X14627Y12103D01*
X14628Y12098D01*
X14628Y12093D01*
X14629Y12091D01*
X14629Y12090D01*
X14631Y12085D01*
X14633Y12080D01*
X14634Y12079D01*
X14635Y12077D01*
X14638Y12073D01*
X14640Y12069D01*
X14642Y12068D01*
X14642Y12067D01*
X14642Y12066D01*
X14638Y12062D01*
X14637Y12061D01*
X14636Y12060D01*
X14634Y12055D01*
X14632Y12051D01*
X14631Y12049D01*
X14630Y12048D01*
X14629Y12043D01*
X14628Y12038D01*
X14628Y12036D01*
X14627Y12034D01*
X14627Y12028D01*
X14627Y11280D01*
X14627Y11278D01*
X14627Y11276D01*
X14628Y11271D01*
X14628Y11266D01*
X14629Y11265D01*
X14629Y11263D01*
X14631Y11258D01*
X14633Y11253D01*
X14634Y11252D01*
X14635Y11250D01*
X14638Y11246D01*
X14640Y11242D01*
X14642Y11241D01*
X14642Y11240D01*
X14642Y11239D01*
X14638Y11236D01*
X14637Y11234D01*
X14636Y11233D01*
X14634Y11228D01*
X14632Y11224D01*
X14631Y11222D01*
X14630Y11221D01*
X14629Y11216D01*
X14628Y11211D01*
X14628Y11209D01*
X14627Y11208D01*
X14627Y11201D01*
X14627Y10453D01*
X14627Y10451D01*
X14627Y10449D01*
X14628Y10444D01*
X14628Y10439D01*
X14629Y10438D01*
X14629Y10436D01*
X14631Y10431D01*
X14633Y10427D01*
X14634Y10425D01*
X14635Y10424D01*
X14638Y10420D01*
X14640Y10415D01*
X14642Y10414D01*
X14642Y10413D01*
X14638Y10409D01*
X14637Y10407D01*
X14636Y10406D01*
X14634Y10402D01*
X14632Y10397D01*
X14631Y10396D01*
X14630Y10394D01*
X14629Y10389D01*
X14628Y10384D01*
X14628Y10383D01*
X14627Y10381D01*
X14627Y10374D01*
X14627Y9626D01*
X14627Y9624D01*
X14627Y9623D01*
X14628Y9618D01*
X14628Y9613D01*
X14629Y9611D01*
X14629Y9609D01*
X14631Y9605D01*
X14633Y9600D01*
X14634Y9598D01*
X14635Y9597D01*
X14638Y9593D01*
X14640Y9589D01*
X14642Y9587D01*
X14642Y9586D01*
X14638Y9582D01*
X14637Y9581D01*
X14636Y9579D01*
X14634Y9575D01*
X14632Y9570D01*
X14631Y9569D01*
X14630Y9567D01*
X14629Y9562D01*
X14628Y9557D01*
X14628Y9556D01*
X14627Y9554D01*
X14627Y9547D01*
X14627Y8799D01*
X14627Y8798D01*
X14627Y8796D01*
X14628Y8791D01*
X14628Y8786D01*
X14629Y8784D01*
X14629Y8783D01*
X14631Y8778D01*
X14633Y8773D01*
X14634Y8772D01*
X14635Y8770D01*
X14638Y8766D01*
X14640Y8762D01*
X14642Y8761D01*
X14642Y8760D01*
X14642Y8759D01*
X14638Y8755D01*
X14637Y8754D01*
X14636Y8753D01*
X14634Y8748D01*
X14632Y8744D01*
X14631Y8742D01*
X14630Y8741D01*
X14629Y8736D01*
X14628Y8731D01*
X14628Y8729D01*
X14627Y8727D01*
X14627Y8720D01*
X14627Y7972D01*
X14627Y7971D01*
X14627Y7969D01*
X14628Y7964D01*
X14628Y7959D01*
X14629Y7957D01*
X14629Y7956D01*
X14631Y7951D01*
X14633Y7946D01*
X14634Y7945D01*
X14635Y7943D01*
X14638Y7939D01*
X14640Y7935D01*
X14642Y7934D01*
X14642Y7933D01*
X14642Y7932D01*
X14638Y7929D01*
X14637Y7927D01*
X14636Y7926D01*
X14634Y7921D01*
X14632Y7917D01*
X14631Y7915D01*
X14630Y7914D01*
X14629Y7909D01*
X14628Y7904D01*
X14628Y7902D01*
X14627Y7901D01*
X14627Y7894D01*
X14627Y7146D01*
X14627Y7145D01*
X14627Y7144D01*
X14627Y7142D01*
X14628Y7137D01*
X14628Y7132D01*
X14629Y7131D01*
X14629Y7129D01*
X14631Y7124D01*
X14633Y7120D01*
X14634Y7118D01*
X14635Y7117D01*
X14638Y7113D01*
X14640Y7108D01*
X14642Y7107D01*
X14642Y7106D01*
X14642Y7105D01*
X14638Y7102D01*
X14637Y7100D01*
X14636Y7099D01*
X14634Y7094D01*
X14632Y7090D01*
X14631Y7088D01*
X14630Y7087D01*
X14629Y7082D01*
X14628Y7077D01*
X14628Y7075D01*
X14627Y7074D01*
X14627Y7067D01*
X14627Y6319D01*
X14627Y6317D01*
X14627Y6316D01*
X14628Y6311D01*
X14628Y6305D01*
X14629Y6304D01*
X14629Y6302D01*
X14631Y6298D01*
X14633Y6293D01*
X14634Y6291D01*
X14635Y6290D01*
X14638Y6286D01*
X14640Y6281D01*
X14642Y6280D01*
X14642Y6279D01*
X14638Y6275D01*
X14637Y6274D01*
X14636Y6272D01*
X14634Y6268D01*
X14632Y6263D01*
X14631Y6262D01*
X14630Y6260D01*
X14629Y6255D01*
X14628Y6250D01*
X14628Y6249D01*
X14627Y6247D01*
X14627Y6240D01*
X14627Y5895D01*
X14572Y5913D01*
X14517Y5941D01*
X14466Y5977D01*
X14424Y6020D01*
X14423Y6021D01*
X14422Y6022D01*
X14418Y6025D01*
X14414Y6028D01*
X14412Y6029D01*
X14411Y6030D01*
X14406Y6032D01*
X14401Y6034D01*
X14400Y6034D01*
X14398Y6035D01*
X14393Y6036D01*
X14388Y6037D01*
X14386Y6037D01*
X14385Y6037D01*
X14380Y6036D01*
X14374Y6036D01*
X14373Y6036D01*
X14371Y6036D01*
X14366Y6034D01*
X14361Y6033D01*
X14360Y6032D01*
X14358Y6031D01*
X14354Y6029D01*
X14349Y6026D01*
X14348Y6025D01*
X14347Y6024D01*
X14342Y6020D01*
X14250Y5928D01*
X14098Y5865D01*
X13933Y5865D01*
X13781Y5928D01*
X13665Y6045D01*
X13648Y6085D01*
X13646Y6089D01*
X13645Y6092D01*
X13643Y6094D01*
X13641Y6097D01*
X13639Y6100D01*
X13637Y6103D01*
X13634Y6105D01*
X13632Y6107D01*
X13629Y6109D01*
X13626Y6112D01*
X13624Y6113D01*
X13621Y6115D01*
X13617Y6116D01*
X13614Y6118D01*
X13611Y6118D01*
X13608Y6120D01*
X13605Y6120D01*
X13601Y6121D01*
X13596Y6121D01*
X13595Y6121D01*
X13594Y6121D01*
X13373Y6121D01*
X13369Y6121D01*
X13365Y6121D01*
X13363Y6120D01*
X13360Y6120D01*
X13356Y6118D01*
X13352Y6117D01*
X13350Y6116D01*
X13347Y6115D01*
X13344Y6113D01*
X13340Y6111D01*
X13338Y6109D01*
X13336Y6108D01*
X13333Y6105D01*
X13330Y6102D01*
X13328Y6100D01*
X13327Y6098D01*
X13325Y6094D01*
X13322Y6091D01*
X13321Y6088D01*
X13320Y6086D01*
X13319Y6082D01*
X13317Y6078D01*
X13317Y6076D01*
X13316Y6073D01*
X13316Y6069D01*
X13315Y6065D01*
X13315Y6062D01*
X13315Y6060D01*
X13316Y6056D01*
X13316Y6051D01*
X13317Y6049D01*
X13318Y6046D01*
X13319Y6042D01*
X13321Y6038D01*
X13322Y6036D01*
X13323Y6034D01*
X13325Y6031D01*
X13328Y6027D01*
X13330Y6024D01*
X13331Y6023D01*
X13332Y6022D01*
X13457Y5897D01*
X13457Y5599D01*
X13247Y5389D01*
X12950Y5389D01*
X12740Y5599D01*
X12740Y5859D01*
X12739Y5865D01*
X12738Y5871D01*
X12738Y5872D01*
X12736Y5878D01*
X12734Y5884D01*
X12733Y5885D01*
X12730Y5890D01*
X12727Y5895D01*
X12726Y5896D01*
X12725Y5897D01*
X12722Y5900D01*
X12421Y6202D01*
X12416Y6205D01*
X12412Y6209D01*
X12411Y6210D01*
X12410Y6210D01*
X12405Y6213D01*
X12400Y6215D01*
X12399Y6215D01*
X12398Y6216D01*
X12392Y6217D01*
X12387Y6218D01*
X12385Y6218D01*
X12385Y6219D01*
X12384Y6219D01*
X12380Y6219D01*
X11899Y6219D01*
X11894Y6221D01*
X11893Y6221D01*
X11892Y6222D01*
X11886Y6223D01*
X11881Y6224D01*
X11879Y6224D01*
X11878Y6224D01*
X11874Y6225D01*
X11311Y6225D01*
X11295Y6240D01*
X11292Y6243D01*
X11289Y6246D01*
X11287Y6247D01*
X11285Y6249D01*
X11281Y6250D01*
X11277Y6252D01*
X11275Y6253D01*
X11272Y6254D01*
X11268Y6255D01*
X11264Y6256D01*
X11262Y6256D01*
X11259Y6257D01*
X11255Y6257D01*
X11251Y6257D01*
X11248Y6257D01*
X11246Y6257D01*
X11241Y6256D01*
X11237Y6255D01*
X11235Y6254D01*
X11232Y6253D01*
X11229Y6251D01*
X11225Y6249D01*
X11223Y6248D01*
X11221Y6247D01*
X11217Y6244D01*
X11214Y6241D01*
X11212Y6239D01*
X11210Y6238D01*
X11208Y6234D01*
X11205Y6231D01*
X11204Y6229D01*
X11203Y6227D01*
X11201Y6223D01*
X11199Y6219D01*
X11199Y6216D01*
X11198Y6214D01*
X11197Y6210D01*
X11196Y6206D01*
X11196Y6202D01*
X11196Y6201D01*
X11196Y6200D01*
X11196Y6199D01*
X11196Y6044D01*
X11196Y6041D01*
X11196Y6039D01*
X11197Y6034D01*
X11197Y6030D01*
X11198Y6028D01*
X11199Y6025D01*
X11200Y6021D01*
X11202Y6017D01*
X11203Y6015D01*
X11204Y6013D01*
X11207Y6010D01*
X11209Y6006D01*
X11211Y6004D01*
X11213Y6002D01*
X11216Y6000D01*
X11219Y5997D01*
X11221Y5996D01*
X11223Y5994D01*
X11227Y5992D01*
X11231Y5990D01*
X11233Y5989D01*
X11236Y5988D01*
X11240Y5987D01*
X11244Y5986D01*
X11246Y5986D01*
X11249Y5986D01*
X11253Y5986D01*
X11257Y5985D01*
X11260Y5986D01*
X11262Y5986D01*
X11265Y5987D01*
X11398Y5987D01*
X11398Y5728D01*
X11399Y5727D01*
X11398Y5725D01*
X11399Y5720D01*
X11400Y5715D01*
X11401Y5713D01*
X11401Y5712D01*
X11403Y5707D01*
X11405Y5702D01*
X11405Y5701D01*
X11406Y5699D01*
X11409Y5695D01*
X11412Y5691D01*
X11413Y5690D01*
X11414Y5688D01*
X11418Y5685D01*
X11422Y5682D01*
X11423Y5681D01*
X11425Y5680D01*
X11429Y5677D01*
X11434Y5675D01*
X11435Y5674D01*
X11437Y5674D01*
X11442Y5672D01*
X11447Y5671D01*
X11448Y5671D01*
X11450Y5670D01*
X11457Y5670D01*
X11477Y5670D01*
X11477Y5650D01*
X11477Y5648D01*
X11477Y5646D01*
X11478Y5641D01*
X11479Y5636D01*
X11479Y5635D01*
X11480Y5633D01*
X11482Y5628D01*
X11483Y5623D01*
X11484Y5622D01*
X11485Y5621D01*
X11488Y5616D01*
X11491Y5612D01*
X11492Y5611D01*
X11493Y5610D01*
X11497Y5606D01*
X11501Y5603D01*
X11502Y5602D01*
X11503Y5601D01*
X11508Y5599D01*
X11512Y5596D01*
X11514Y5596D01*
X11515Y5595D01*
X11520Y5594D01*
X11525Y5592D01*
X11527Y5592D01*
X11529Y5592D01*
X11535Y5591D01*
X11699Y5591D01*
X11701Y5591D01*
X11703Y5591D01*
X11708Y5592D01*
X11713Y5593D01*
X11714Y5593D01*
X11716Y5594D01*
X11721Y5596D01*
X11726Y5597D01*
X11727Y5598D01*
X11728Y5599D01*
X11733Y5602D01*
X11737Y5605D01*
X11738Y5606D01*
X11739Y5607D01*
X11743Y5611D01*
X11746Y5615D01*
X11747Y5616D01*
X11748Y5617D01*
X11750Y5622D01*
X11753Y5626D01*
X11753Y5628D01*
X11754Y5630D01*
X11755Y5635D01*
X11757Y5639D01*
X11757Y5641D01*
X11757Y5643D01*
X11758Y5650D01*
X11758Y5669D01*
X12019Y5669D01*
X12019Y5407D01*
X11957Y5407D01*
X11899Y5466D01*
X11897Y5468D01*
X11895Y5469D01*
X11891Y5472D01*
X11888Y5474D01*
X11886Y5475D01*
X11884Y5477D01*
X11880Y5478D01*
X11876Y5480D01*
X11873Y5481D01*
X11871Y5481D01*
X11867Y5482D01*
X11862Y5483D01*
X11860Y5483D01*
X11857Y5483D01*
X11853Y5483D01*
X11849Y5482D01*
X11847Y5482D01*
X11844Y5482D01*
X11840Y5480D01*
X11836Y5479D01*
X11834Y5478D01*
X11831Y5477D01*
X11828Y5475D01*
X11824Y5473D01*
X11822Y5471D01*
X11820Y5469D01*
X11817Y5466D01*
X11814Y5464D01*
X11812Y5461D01*
X11811Y5460D01*
X11807Y5454D01*
X11793Y5430D01*
X11771Y5408D01*
X11770Y5407D01*
X11769Y5406D01*
X11766Y5402D01*
X11763Y5398D01*
X11762Y5396D01*
X11761Y5395D01*
X11759Y5390D01*
X11757Y5385D01*
X11757Y5384D01*
X11756Y5382D01*
X11755Y5377D01*
X11754Y5372D01*
X11755Y5371D01*
X11754Y5369D01*
X11755Y5364D01*
X11755Y5359D01*
X11755Y5357D01*
X11755Y5355D01*
X11757Y5351D01*
X11758Y5346D01*
X11759Y5344D01*
X11760Y5343D01*
X11762Y5338D01*
X11765Y5334D01*
X11766Y5332D01*
X11767Y5331D01*
X11771Y5326D01*
X11831Y5266D01*
X11831Y5215D01*
X11832Y5213D01*
X11832Y5211D01*
X11832Y5206D01*
X11833Y5201D01*
X11834Y5200D01*
X11834Y5198D01*
X11836Y5193D01*
X11838Y5188D01*
X11839Y5187D01*
X11839Y5185D01*
X11842Y5181D01*
X11845Y5177D01*
X11846Y5176D01*
X11847Y5175D01*
X11851Y5171D01*
X11855Y5168D01*
X11856Y5167D01*
X11858Y5166D01*
X11862Y5164D01*
X11867Y5161D01*
X11868Y5161D01*
X11870Y5160D01*
X11875Y5159D01*
X11880Y5157D01*
X11881Y5157D01*
X11883Y5157D01*
X11890Y5156D01*
X12225Y5156D01*
X12231Y5157D01*
X12237Y5157D01*
X12238Y5158D01*
X12244Y5160D01*
X12250Y5162D01*
X12251Y5162D01*
X12256Y5166D01*
X12261Y5169D01*
X12262Y5170D01*
X12263Y5171D01*
X12266Y5173D01*
X12450Y5357D01*
X12747Y5357D01*
X12957Y5147D01*
X12957Y4849D01*
X12774Y4666D01*
X12770Y4661D01*
X12766Y4657D01*
X12766Y4656D01*
X12765Y4655D01*
X12763Y4650D01*
X12760Y4645D01*
X12760Y4644D01*
X12760Y4643D01*
X12758Y4637D01*
X12757Y4631D01*
X12757Y4630D01*
X12757Y4629D01*
X12757Y4625D01*
X12757Y4606D01*
X12757Y4600D01*
X12758Y4594D01*
X12758Y4593D01*
X12758Y4592D01*
X12760Y4587D01*
X12762Y4581D01*
X12763Y4581D01*
X12763Y4580D01*
X12766Y4575D01*
X12769Y4570D01*
X12770Y4569D01*
X12770Y4568D01*
X12771Y4568D01*
X12774Y4565D01*
X12794Y4544D01*
X12794Y4275D01*
X12603Y4084D01*
X12334Y4084D01*
X12143Y4275D01*
X12143Y4544D01*
X12303Y4704D01*
X12304Y4705D01*
X12305Y4706D01*
X12308Y4711D01*
X12311Y4715D01*
X12312Y4716D01*
X12313Y4717D01*
X12315Y4722D01*
X12317Y4727D01*
X12317Y4728D01*
X12318Y4730D01*
X12318Y4735D01*
X12319Y4740D01*
X12319Y4742D01*
X12320Y4743D01*
X12319Y4748D01*
X12319Y4754D01*
X12319Y4755D01*
X12318Y4757D01*
X12317Y4762D01*
X12316Y4767D01*
X12315Y4768D01*
X12314Y4770D01*
X12312Y4774D01*
X12309Y4779D01*
X12308Y4780D01*
X12307Y4781D01*
X12303Y4786D01*
X12266Y4823D01*
X12262Y4826D01*
X12257Y4830D01*
X12256Y4831D01*
X12250Y4834D01*
X12245Y4836D01*
X12244Y4836D01*
X12243Y4837D01*
X12238Y4838D01*
X12232Y4839D01*
X12231Y4839D01*
X12230Y4840D01*
X12229Y4840D01*
X12225Y4840D01*
X11890Y4840D01*
X11888Y4840D01*
X11886Y4840D01*
X11881Y4839D01*
X11876Y4838D01*
X11875Y4838D01*
X11873Y4837D01*
X11868Y4835D01*
X11864Y4834D01*
X11862Y4833D01*
X11861Y4832D01*
X11857Y4829D01*
X11852Y4826D01*
X11851Y4825D01*
X11850Y4824D01*
X11847Y4820D01*
X11843Y4816D01*
X11842Y4815D01*
X11841Y4814D01*
X11839Y4809D01*
X11836Y4805D01*
X11836Y4803D01*
X11835Y4802D01*
X11834Y4797D01*
X11832Y4792D01*
X11832Y4790D01*
X11832Y4788D01*
X11831Y4781D01*
X11831Y4774D01*
X11759Y4702D01*
X11758Y4701D01*
X11754Y4700D01*
X11751Y4699D01*
X11749Y4698D01*
X11745Y4695D01*
X11742Y4693D01*
X11740Y4692D01*
X11738Y4690D01*
X11735Y4687D01*
X11732Y4684D01*
X11730Y4682D01*
X11728Y4681D01*
X11726Y4677D01*
X11724Y4673D01*
X11723Y4671D01*
X11722Y4669D01*
X11720Y4665D01*
X11719Y4661D01*
X11718Y4658D01*
X11718Y4656D01*
X11717Y4652D01*
X11717Y4647D01*
X11717Y4645D01*
X11717Y4642D01*
X11718Y4638D01*
X11718Y4634D01*
X11719Y4632D01*
X11719Y4629D01*
X11721Y4625D01*
X11722Y4621D01*
X11724Y4619D01*
X11725Y4617D01*
X11727Y4613D01*
X11729Y4610D01*
X11732Y4606D01*
X11733Y4606D01*
X11733Y4605D01*
X11734Y4604D01*
X11794Y4544D01*
X11794Y4275D01*
X11603Y4084D01*
X11556Y4084D01*
X11552Y4083D01*
X11548Y4083D01*
X11545Y4083D01*
X11543Y4082D01*
X11539Y4081D01*
X11535Y4080D01*
X11532Y4079D01*
X11530Y4078D01*
X11527Y4075D01*
X11523Y4073D01*
X11521Y4072D01*
X11519Y4070D01*
X11516Y4067D01*
X11513Y4064D01*
X11511Y4062D01*
X11509Y4060D01*
X11507Y4057D01*
X11505Y4053D01*
X11504Y4051D01*
X11503Y4049D01*
X11501Y4045D01*
X11500Y4041D01*
X11500Y4038D01*
X11499Y4036D01*
X11499Y4032D01*
X11498Y4027D01*
X11498Y4025D01*
X11498Y4022D01*
X11499Y4018D01*
X11499Y4014D01*
X11500Y4011D01*
X11500Y4009D01*
X11502Y4005D01*
X11503Y4001D01*
X11505Y3999D01*
X11506Y3997D01*
X11508Y3993D01*
X11510Y3990D01*
X11513Y3986D01*
X11514Y3986D01*
X11514Y3985D01*
X11515Y3984D01*
X11702Y3797D01*
X11707Y3794D01*
X11711Y3790D01*
X11712Y3790D01*
X11713Y3789D01*
X11718Y3786D01*
X11723Y3784D01*
X11724Y3784D01*
X11725Y3783D01*
X11731Y3782D01*
X11736Y3781D01*
X11738Y3781D01*
X11739Y3781D01*
X11743Y3780D01*
X11772Y3780D01*
X11778Y3781D01*
X11784Y3781D01*
X11785Y3782D01*
X11786Y3782D01*
X11791Y3784D01*
X11797Y3786D01*
X11798Y3786D01*
X11803Y3790D01*
X11808Y3793D01*
X11809Y3794D01*
X11810Y3794D01*
X11810Y3795D01*
X11813Y3797D01*
X11964Y3948D01*
X12233Y3948D01*
X12424Y3757D01*
X12424Y3487D01*
X12324Y3388D01*
X12323Y3386D01*
X12322Y3385D01*
X12319Y3381D01*
X12316Y3377D01*
X12315Y3376D01*
X12314Y3374D01*
X12313Y3369D01*
X12310Y3365D01*
X12310Y3363D01*
X12309Y3362D01*
X12309Y3357D01*
X12308Y3352D01*
X12308Y3350D01*
X12307Y3348D01*
X12308Y3343D01*
X12308Y3338D01*
X12308Y3336D01*
X12309Y3335D01*
X12310Y3330D01*
X12311Y3325D01*
X12312Y3324D01*
X12313Y3322D01*
X12315Y3318D01*
X12318Y3313D01*
X12319Y3312D01*
X12320Y3310D01*
X12324Y3305D01*
X12424Y3206D01*
X12424Y2981D01*
X12424Y2980D01*
X12424Y2978D01*
X12425Y2973D01*
X12426Y2968D01*
X12426Y2966D01*
X12426Y2965D01*
X12428Y2960D01*
X12430Y2955D01*
X12431Y2954D01*
X12432Y2952D01*
X12435Y2948D01*
X12438Y2944D01*
X12439Y2943D01*
X12440Y2941D01*
X12444Y2938D01*
X12447Y2935D01*
X12449Y2934D01*
X12450Y2933D01*
X12455Y2930D01*
X12459Y2928D01*
X12461Y2927D01*
X12462Y2927D01*
X12467Y2925D01*
X12472Y2924D01*
X12474Y2924D01*
X12475Y2923D01*
X12482Y2923D01*
X12733Y2923D01*
X12734Y2923D01*
X12736Y2923D01*
X12741Y2924D01*
X12746Y2925D01*
X12748Y2925D01*
X12749Y2925D01*
X12754Y2927D01*
X12759Y2929D01*
X12760Y2930D01*
X12762Y2931D01*
X12766Y2934D01*
X12770Y2937D01*
X12771Y2938D01*
X12773Y2939D01*
X12776Y2943D01*
X12779Y2946D01*
X12780Y2948D01*
X12781Y2949D01*
X12784Y2954D01*
X12786Y2958D01*
X12787Y2960D01*
X12787Y2961D01*
X12789Y2966D01*
X12790Y2971D01*
X12790Y2973D01*
X12791Y2974D01*
X12791Y2981D01*
X12791Y3003D01*
X13089Y3003D01*
X13090Y3003D01*
X13092Y3003D01*
X13097Y3004D01*
X13098Y3004D01*
X13100Y3004D01*
X13101Y3003D01*
X13108Y3003D01*
X13406Y3003D01*
X13406Y2944D01*
X13219Y2757D01*
X13218Y2755D01*
X13217Y2754D01*
X13215Y2752D01*
X13214Y2751D01*
X13213Y2750D01*
X13211Y2746D01*
X13210Y2744D01*
X13209Y2743D01*
X13207Y2738D01*
X13205Y2734D01*
X13204Y2732D01*
X13204Y2731D01*
X13203Y2725D01*
X13202Y2720D01*
X13202Y2719D01*
X13202Y2717D01*
X13202Y2712D01*
X13202Y2707D01*
X13203Y2705D01*
X13203Y2704D01*
X13205Y2699D01*
X13206Y2694D01*
X13207Y2692D01*
X13207Y2691D01*
X13210Y2686D01*
X13212Y2682D01*
X13213Y2681D01*
X13214Y2679D01*
X13219Y2674D01*
X13308Y2585D01*
X13308Y2401D01*
X13309Y2395D01*
X13309Y2389D01*
X13309Y2388D01*
X13311Y2382D01*
X13313Y2377D01*
X13314Y2376D01*
X13314Y2375D01*
X13317Y2370D01*
X13320Y2365D01*
X13321Y2364D01*
X13322Y2363D01*
X13325Y2360D01*
X13446Y2239D01*
X13449Y2237D01*
X13452Y2234D01*
X13454Y2233D01*
X13456Y2231D01*
X13460Y2229D01*
X13463Y2227D01*
X13466Y2226D01*
X13468Y2225D01*
X13472Y2224D01*
X13476Y2223D01*
X13479Y2223D01*
X13482Y2222D01*
X13486Y2223D01*
X13490Y2222D01*
X13492Y2223D01*
G37*
G36*
X14239Y152D02*
X14239Y152D01*
X14245Y152D01*
X14246Y152D01*
X14252Y155D01*
X14258Y157D01*
X14264Y161D01*
X14269Y164D01*
X14270Y164D01*
X14274Y169D01*
X14279Y174D01*
X14282Y180D01*
X14286Y186D01*
X14288Y192D01*
X14290Y199D01*
X14290Y205D01*
X14290Y212D01*
X14289Y219D01*
X14288Y225D01*
X14288Y226D01*
X14286Y232D01*
X14283Y238D01*
X14279Y243D01*
X14275Y249D01*
X14270Y253D01*
X14265Y258D01*
X14264Y258D01*
X14259Y261D01*
X13931Y428D01*
X13617Y742D01*
X13530Y913D01*
X13528Y916D01*
X13526Y919D01*
X13524Y922D01*
X13523Y924D01*
X13520Y927D01*
X13517Y930D01*
X13515Y931D01*
X13513Y933D01*
X13509Y935D01*
X13506Y937D01*
X13503Y938D01*
X13501Y940D01*
X13497Y941D01*
X13493Y942D01*
X13491Y943D01*
X13488Y944D01*
X13484Y944D01*
X13480Y944D01*
X13477Y944D01*
X13474Y944D01*
X13470Y944D01*
X13466Y943D01*
X13464Y942D01*
X13461Y942D01*
X13457Y940D01*
X13454Y939D01*
X13451Y938D01*
X13449Y936D01*
X13445Y934D01*
X13442Y932D01*
X13439Y929D01*
X13438Y928D01*
X13437Y927D01*
X13277Y767D01*
X13218Y767D01*
X13218Y1065D01*
X13218Y1067D01*
X13218Y1068D01*
X13217Y1073D01*
X13217Y1074D01*
X13217Y1076D01*
X13217Y1078D01*
X13218Y1085D01*
X13218Y1382D01*
X13279Y1382D01*
X13281Y1381D01*
X13283Y1380D01*
X13287Y1378D01*
X13292Y1376D01*
X13294Y1376D01*
X13296Y1375D01*
X13300Y1374D01*
X13305Y1373D01*
X13307Y1374D01*
X13309Y1373D01*
X13314Y1374D01*
X13318Y1374D01*
X13320Y1374D01*
X13322Y1375D01*
X13327Y1376D01*
X13332Y1377D01*
X13333Y1378D01*
X13335Y1379D01*
X13339Y1382D01*
X13343Y1384D01*
X13345Y1385D01*
X13347Y1386D01*
X13350Y1390D01*
X13354Y1393D01*
X13355Y1394D01*
X13356Y1396D01*
X13359Y1400D01*
X13361Y1404D01*
X13362Y1406D01*
X13363Y1407D01*
X13365Y1412D01*
X13366Y1416D01*
X13367Y1418D01*
X13367Y1420D01*
X13368Y1425D01*
X13368Y1430D01*
X13368Y1432D01*
X13368Y1434D01*
X13368Y1441D01*
X13346Y1575D01*
X13363Y1682D01*
X13364Y1688D01*
X13364Y1694D01*
X13364Y1695D01*
X13363Y1701D01*
X13362Y1708D01*
X13361Y1708D01*
X13361Y1709D01*
X13359Y1714D01*
X13356Y1720D01*
X13356Y1721D01*
X13352Y1726D01*
X13348Y1731D01*
X13348Y1732D01*
X13343Y1736D01*
X13338Y1740D01*
X13337Y1740D01*
X13331Y1743D01*
X13326Y1746D01*
X13325Y1746D01*
X13319Y1747D01*
X13313Y1749D01*
X13312Y1749D01*
X13311Y1749D01*
X13306Y1749D01*
X13015Y1749D01*
X12915Y1849D01*
X12914Y1850D01*
X12913Y1851D01*
X12909Y1854D01*
X12905Y1857D01*
X12903Y1858D01*
X12902Y1859D01*
X12897Y1861D01*
X12892Y1863D01*
X12891Y1863D01*
X12889Y1864D01*
X12884Y1865D01*
X12879Y1866D01*
X12877Y1866D01*
X12876Y1866D01*
X12871Y1865D01*
X12866Y1865D01*
X12864Y1865D01*
X12862Y1865D01*
X12857Y1863D01*
X12853Y1862D01*
X12851Y1861D01*
X12849Y1860D01*
X12845Y1858D01*
X12841Y1855D01*
X12839Y1854D01*
X12838Y1853D01*
X12833Y1849D01*
X12733Y1749D01*
X12464Y1749D01*
X12364Y1849D01*
X12363Y1850D01*
X12362Y1851D01*
X12357Y1854D01*
X12353Y1857D01*
X12352Y1858D01*
X12351Y1859D01*
X12346Y1861D01*
X12341Y1863D01*
X12340Y1863D01*
X12338Y1864D01*
X12333Y1865D01*
X12328Y1866D01*
X12326Y1866D01*
X12325Y1866D01*
X12320Y1865D01*
X12314Y1865D01*
X12313Y1865D01*
X12311Y1865D01*
X12306Y1863D01*
X12301Y1862D01*
X12300Y1861D01*
X12298Y1860D01*
X12294Y1858D01*
X12289Y1855D01*
X12288Y1854D01*
X12287Y1853D01*
X12282Y1849D01*
X12182Y1749D01*
X11912Y1749D01*
X11813Y1849D01*
X11812Y1850D01*
X11810Y1851D01*
X11806Y1854D01*
X11802Y1857D01*
X11801Y1858D01*
X11799Y1859D01*
X11795Y1861D01*
X11790Y1863D01*
X11788Y1863D01*
X11787Y1864D01*
X11782Y1865D01*
X11777Y1866D01*
X11775Y1866D01*
X11773Y1866D01*
X11768Y1865D01*
X11763Y1865D01*
X11762Y1865D01*
X11760Y1865D01*
X11755Y1863D01*
X11750Y1862D01*
X11749Y1861D01*
X11747Y1860D01*
X11743Y1858D01*
X11738Y1855D01*
X11737Y1854D01*
X11736Y1853D01*
X11730Y1849D01*
X11631Y1749D01*
X11361Y1749D01*
X11262Y1849D01*
X11260Y1850D01*
X11259Y1851D01*
X11255Y1854D01*
X11251Y1857D01*
X11250Y1858D01*
X11248Y1859D01*
X11243Y1861D01*
X11239Y1863D01*
X11237Y1863D01*
X11236Y1864D01*
X11231Y1865D01*
X11226Y1866D01*
X11224Y1866D01*
X11222Y1866D01*
X11217Y1865D01*
X11212Y1865D01*
X11210Y1865D01*
X11209Y1865D01*
X11204Y1863D01*
X11199Y1862D01*
X11198Y1861D01*
X11196Y1860D01*
X11192Y1858D01*
X11187Y1855D01*
X11186Y1854D01*
X11184Y1853D01*
X11179Y1849D01*
X11080Y1749D01*
X10810Y1749D01*
X10711Y1849D01*
X10709Y1850D01*
X10708Y1851D01*
X10704Y1854D01*
X10700Y1857D01*
X10698Y1858D01*
X10697Y1859D01*
X10692Y1861D01*
X10688Y1863D01*
X10686Y1863D01*
X10684Y1864D01*
X10679Y1865D01*
X10674Y1866D01*
X10673Y1866D01*
X10671Y1866D01*
X10666Y1865D01*
X10661Y1865D01*
X10659Y1865D01*
X10658Y1865D01*
X10653Y1863D01*
X10648Y1862D01*
X10646Y1861D01*
X10645Y1860D01*
X10640Y1858D01*
X10636Y1855D01*
X10635Y1854D01*
X10633Y1853D01*
X10628Y1849D01*
X10529Y1749D01*
X10259Y1749D01*
X10068Y1940D01*
X10068Y2210D01*
X10259Y2400D01*
X10529Y2400D01*
X10628Y2301D01*
X10629Y2300D01*
X10630Y2299D01*
X10635Y2296D01*
X10639Y2292D01*
X10640Y2292D01*
X10642Y2291D01*
X10646Y2289D01*
X10651Y2287D01*
X10653Y2286D01*
X10654Y2286D01*
X10659Y2285D01*
X10664Y2284D01*
X10666Y2284D01*
X10668Y2284D01*
X10673Y2284D01*
X10678Y2284D01*
X10679Y2285D01*
X10681Y2285D01*
X10686Y2287D01*
X10691Y2288D01*
X10692Y2289D01*
X10694Y2289D01*
X10698Y2292D01*
X10703Y2294D01*
X10704Y2295D01*
X10705Y2296D01*
X10711Y2301D01*
X10770Y2360D01*
X10773Y2364D01*
X10777Y2369D01*
X10777Y2370D01*
X10778Y2371D01*
X10780Y2376D01*
X10783Y2381D01*
X10783Y2382D01*
X10784Y2383D01*
X10785Y2389D01*
X10786Y2394D01*
X10786Y2395D01*
X10786Y2396D01*
X10786Y2397D01*
X10787Y2401D01*
X10787Y2666D01*
X10786Y2672D01*
X10785Y2678D01*
X10785Y2679D01*
X10785Y2680D01*
X10783Y2685D01*
X10781Y2691D01*
X10781Y2692D01*
X10780Y2692D01*
X10777Y2697D01*
X10774Y2702D01*
X10773Y2703D01*
X10773Y2704D01*
X10772Y2704D01*
X10770Y2707D01*
X10424Y3053D01*
X10419Y3057D01*
X10415Y3060D01*
X10414Y3061D01*
X10413Y3061D01*
X10408Y3064D01*
X10403Y3067D01*
X10402Y3067D01*
X10401Y3067D01*
X10395Y3068D01*
X10390Y3070D01*
X10388Y3070D01*
X10387Y3070D01*
X10383Y3070D01*
X10018Y3070D01*
X10016Y3070D01*
X10014Y3070D01*
X10009Y3069D01*
X10004Y3069D01*
X10003Y3068D01*
X10001Y3068D01*
X9996Y3066D01*
X9992Y3064D01*
X9990Y3063D01*
X9989Y3062D01*
X9985Y3059D01*
X9980Y3056D01*
X9979Y3055D01*
X9978Y3054D01*
X9974Y3050D01*
X9971Y3047D01*
X9970Y3045D01*
X9969Y3044D01*
X9967Y3039D01*
X9964Y3035D01*
X9964Y3033D01*
X9963Y3032D01*
X9962Y3027D01*
X9960Y3022D01*
X9960Y3020D01*
X9960Y3019D01*
X9959Y3012D01*
X9959Y2779D01*
X9850Y2669D01*
X9849Y2668D01*
X9848Y2667D01*
X9845Y2663D01*
X9842Y2659D01*
X9841Y2657D01*
X9840Y2656D01*
X9838Y2651D01*
X9836Y2646D01*
X9836Y2645D01*
X9835Y2643D01*
X9834Y2638D01*
X9833Y2633D01*
X9833Y2631D01*
X9833Y2630D01*
X9833Y2625D01*
X9834Y2620D01*
X9834Y2618D01*
X9834Y2616D01*
X9836Y2611D01*
X9837Y2606D01*
X9838Y2605D01*
X9838Y2603D01*
X9841Y2599D01*
X9843Y2595D01*
X9845Y2593D01*
X9845Y2592D01*
X9850Y2587D01*
X9881Y2556D01*
X9881Y2286D01*
X9811Y2216D01*
X9810Y2215D01*
X9808Y2214D01*
X9805Y2210D01*
X9802Y2206D01*
X9802Y2204D01*
X9801Y2203D01*
X9799Y2198D01*
X9797Y2194D01*
X9796Y2192D01*
X9796Y2190D01*
X9795Y2185D01*
X9794Y2180D01*
X9794Y2179D01*
X9794Y2177D01*
X9794Y2172D01*
X9794Y2167D01*
X9795Y2165D01*
X9795Y2164D01*
X9796Y2159D01*
X9798Y2154D01*
X9798Y2152D01*
X9799Y2151D01*
X9802Y2146D01*
X9804Y2142D01*
X9805Y2141D01*
X9806Y2139D01*
X9811Y2134D01*
X9881Y2064D01*
X9881Y1794D01*
X9745Y1659D01*
X9744Y1658D01*
X9743Y1657D01*
X9740Y1652D01*
X9737Y1648D01*
X9736Y1647D01*
X9735Y1645D01*
X9733Y1641D01*
X9731Y1636D01*
X9731Y1634D01*
X9730Y1633D01*
X9730Y1628D01*
X9729Y1623D01*
X9729Y1621D01*
X9728Y1620D01*
X9729Y1614D01*
X9729Y1609D01*
X9729Y1608D01*
X9729Y1606D01*
X9731Y1601D01*
X9732Y1596D01*
X9733Y1595D01*
X9734Y1593D01*
X9736Y1589D01*
X9739Y1584D01*
X9740Y1583D01*
X9741Y1582D01*
X9745Y1577D01*
X9787Y1535D01*
X9821Y1488D01*
X9848Y1436D01*
X9866Y1380D01*
X9875Y1323D01*
X9875Y1113D01*
X9535Y1113D01*
X9533Y1113D01*
X9532Y1113D01*
X9527Y1112D01*
X9521Y1111D01*
X9520Y1111D01*
X9518Y1110D01*
X9514Y1108D01*
X9509Y1107D01*
X9507Y1106D01*
X9506Y1105D01*
X9504Y1104D01*
X9501Y1106D01*
X9496Y1108D01*
X9495Y1109D01*
X9493Y1109D01*
X9488Y1111D01*
X9483Y1112D01*
X9481Y1112D01*
X9480Y1112D01*
X9473Y1113D01*
X9133Y1113D01*
X9133Y1323D01*
X9142Y1380D01*
X9160Y1436D01*
X9187Y1488D01*
X9221Y1535D01*
X9262Y1576D01*
X9312Y1613D01*
X9314Y1613D01*
X9316Y1615D01*
X9318Y1617D01*
X9321Y1620D01*
X9324Y1622D01*
X9325Y1625D01*
X9327Y1627D01*
X9329Y1630D01*
X9332Y1633D01*
X9333Y1636D01*
X9334Y1638D01*
X9335Y1642D01*
X9337Y1646D01*
X9337Y1649D01*
X9338Y1651D01*
X9338Y1655D01*
X9339Y1659D01*
X9338Y1662D01*
X9338Y1665D01*
X9338Y1669D01*
X9337Y1673D01*
X9336Y1675D01*
X9336Y1678D01*
X9334Y1682D01*
X9333Y1686D01*
X9332Y1688D01*
X9331Y1691D01*
X9328Y1694D01*
X9326Y1697D01*
X9323Y1701D01*
X9322Y1701D01*
X9322Y1702D01*
X9321Y1702D01*
X9230Y1794D01*
X9230Y2064D01*
X9300Y2134D01*
X9301Y2135D01*
X9302Y2136D01*
X9305Y2141D01*
X9308Y2145D01*
X9309Y2146D01*
X9310Y2147D01*
X9312Y2152D01*
X9314Y2157D01*
X9314Y2158D01*
X9315Y2160D01*
X9315Y2165D01*
X9316Y2170D01*
X9316Y2172D01*
X9317Y2173D01*
X9316Y2179D01*
X9316Y2184D01*
X9316Y2185D01*
X9315Y2187D01*
X9314Y2192D01*
X9313Y2197D01*
X9312Y2198D01*
X9311Y2200D01*
X9309Y2204D01*
X9306Y2209D01*
X9305Y2210D01*
X9304Y2211D01*
X9300Y2216D01*
X9230Y2286D01*
X9230Y2556D01*
X9339Y2665D01*
X9340Y2667D01*
X9341Y2668D01*
X9344Y2672D01*
X9347Y2676D01*
X9348Y2678D01*
X9349Y2679D01*
X9351Y2684D01*
X9353Y2688D01*
X9353Y2690D01*
X9354Y2692D01*
X9355Y2697D01*
X9356Y2702D01*
X9356Y2703D01*
X9356Y2705D01*
X9356Y2710D01*
X9355Y2715D01*
X9355Y2717D01*
X9355Y2718D01*
X9353Y2723D01*
X9352Y2728D01*
X9351Y2730D01*
X9351Y2731D01*
X9348Y2736D01*
X9345Y2740D01*
X9344Y2741D01*
X9344Y2743D01*
X9339Y2748D01*
X9308Y2779D01*
X9308Y3012D01*
X9308Y3013D01*
X9308Y3015D01*
X9307Y3020D01*
X9307Y3025D01*
X9306Y3027D01*
X9306Y3028D01*
X9304Y3033D01*
X9302Y3038D01*
X9301Y3039D01*
X9301Y3041D01*
X9297Y3045D01*
X9295Y3049D01*
X9293Y3050D01*
X9292Y3052D01*
X9289Y3055D01*
X9285Y3059D01*
X9283Y3059D01*
X9282Y3060D01*
X9278Y3063D01*
X9273Y3065D01*
X9272Y3066D01*
X9270Y3067D01*
X9265Y3068D01*
X9260Y3069D01*
X9259Y3069D01*
X9257Y3070D01*
X9250Y3070D01*
X9000Y3070D01*
X8998Y3070D01*
X8996Y3070D01*
X8991Y3069D01*
X8986Y3069D01*
X8985Y3068D01*
X8983Y3068D01*
X8978Y3066D01*
X8973Y3064D01*
X8972Y3063D01*
X8971Y3062D01*
X8966Y3059D01*
X8962Y3056D01*
X8961Y3055D01*
X8960Y3054D01*
X8956Y3050D01*
X8953Y3047D01*
X8952Y3045D01*
X8951Y3044D01*
X8949Y3039D01*
X8946Y3035D01*
X8946Y3033D01*
X8945Y3032D01*
X8944Y3027D01*
X8942Y3022D01*
X8942Y3020D01*
X8942Y3019D01*
X8941Y3012D01*
X8941Y2982D01*
X8644Y2982D01*
X8642Y2981D01*
X8640Y2981D01*
X8635Y2981D01*
X8635Y2980D01*
X8634Y2981D01*
X8633Y2981D01*
X8631Y2981D01*
X8624Y2982D01*
X8326Y2982D01*
X8326Y3012D01*
X8326Y3013D01*
X8326Y3015D01*
X8325Y3020D01*
X8325Y3025D01*
X8324Y3027D01*
X8324Y3028D01*
X8322Y3033D01*
X8320Y3038D01*
X8319Y3039D01*
X8319Y3041D01*
X8316Y3045D01*
X8313Y3049D01*
X8312Y3050D01*
X8311Y3052D01*
X8307Y3055D01*
X8303Y3059D01*
X8302Y3059D01*
X8300Y3060D01*
X8296Y3063D01*
X8291Y3065D01*
X8290Y3066D01*
X8288Y3067D01*
X8283Y3068D01*
X8278Y3069D01*
X8277Y3069D01*
X8275Y3070D01*
X8268Y3070D01*
X7808Y3070D01*
X6959Y3919D01*
X6955Y3923D01*
X6950Y3927D01*
X6949Y3928D01*
X6943Y3930D01*
X6938Y3933D01*
X6937Y3933D01*
X6931Y3934D01*
X6925Y3936D01*
X6924Y3936D01*
X6923Y3936D01*
X6922Y3936D01*
X6918Y3936D01*
X6470Y3936D01*
X6139Y4267D01*
X6139Y5466D01*
X6138Y5472D01*
X6138Y5478D01*
X6138Y5479D01*
X6136Y5485D01*
X6134Y5490D01*
X6133Y5491D01*
X6133Y5492D01*
X6130Y5497D01*
X6127Y5501D01*
X6127Y6191D01*
X6197Y6261D01*
X6260Y6261D01*
X6261Y6261D01*
X6263Y6261D01*
X6268Y6262D01*
X6273Y6262D01*
X6275Y6263D01*
X6276Y6263D01*
X6281Y6265D01*
X6286Y6267D01*
X6287Y6268D01*
X6289Y6268D01*
X6293Y6271D01*
X6297Y6274D01*
X6298Y6275D01*
X6300Y6276D01*
X6303Y6280D01*
X6307Y6284D01*
X6307Y6285D01*
X6309Y6287D01*
X6311Y6291D01*
X6313Y6296D01*
X6314Y6297D01*
X6315Y6299D01*
X6316Y6304D01*
X6317Y6309D01*
X6317Y6310D01*
X6318Y6312D01*
X6318Y6319D01*
X6318Y6321D01*
X6318Y6322D01*
X6317Y6327D01*
X6317Y6332D01*
X6316Y6334D01*
X6316Y6336D01*
X6314Y6340D01*
X6312Y6345D01*
X6311Y6346D01*
X6310Y6348D01*
X6307Y6352D01*
X6305Y6356D01*
X6303Y6358D01*
X6302Y6359D01*
X6298Y6362D01*
X6295Y6366D01*
X6293Y6366D01*
X6292Y6368D01*
X6287Y6370D01*
X6283Y6372D01*
X6281Y6373D01*
X6280Y6374D01*
X6275Y6375D01*
X6270Y6376D01*
X6268Y6376D01*
X6267Y6377D01*
X6260Y6377D01*
X5993Y6377D01*
X5987Y6377D01*
X5981Y6376D01*
X5980Y6376D01*
X5979Y6376D01*
X5974Y6374D01*
X5968Y6372D01*
X5967Y6371D01*
X5962Y6368D01*
X5957Y6365D01*
X5956Y6364D01*
X5955Y6364D01*
X5955Y6363D01*
X5335Y6363D01*
X5333Y6363D01*
X5331Y6363D01*
X5326Y6362D01*
X5321Y6362D01*
X5320Y6361D01*
X5318Y6361D01*
X5313Y6359D01*
X5308Y6357D01*
X5307Y6356D01*
X5306Y6356D01*
X5301Y6353D01*
X5297Y6350D01*
X5296Y6349D01*
X5295Y6348D01*
X5291Y6344D01*
X5288Y6340D01*
X5287Y6339D01*
X5286Y6337D01*
X5284Y6333D01*
X5281Y6328D01*
X5281Y6327D01*
X5280Y6325D01*
X5279Y6320D01*
X5277Y6315D01*
X5277Y6314D01*
X5277Y6312D01*
X5276Y6305D01*
X5276Y5602D01*
X5277Y5596D01*
X5278Y5590D01*
X5278Y5589D01*
X5278Y5588D01*
X5280Y5583D01*
X5282Y5577D01*
X5282Y5576D01*
X5283Y5575D01*
X5286Y5570D01*
X5289Y5565D01*
X5290Y5565D01*
X5290Y5564D01*
X5291Y5563D01*
X5293Y5560D01*
X5434Y5420D01*
X5434Y3184D01*
X5434Y3179D01*
X5434Y3175D01*
X5435Y3173D01*
X5435Y3170D01*
X5437Y3166D01*
X5438Y3162D01*
X5439Y3160D01*
X5440Y3157D01*
X5442Y3154D01*
X5444Y3150D01*
X5446Y3148D01*
X5447Y3146D01*
X5451Y3143D01*
X5453Y3140D01*
X5455Y3139D01*
X5457Y3137D01*
X5461Y3135D01*
X5464Y3132D01*
X5467Y3131D01*
X5469Y3130D01*
X5473Y3129D01*
X5477Y3127D01*
X5479Y3127D01*
X5482Y3126D01*
X5486Y3126D01*
X5490Y3125D01*
X5493Y3126D01*
X5495Y3125D01*
X5500Y3126D01*
X5504Y3126D01*
X5506Y3127D01*
X5509Y3128D01*
X5513Y3129D01*
X5517Y3131D01*
X5519Y3132D01*
X5521Y3133D01*
X5525Y3136D01*
X5528Y3138D01*
X5531Y3141D01*
X5532Y3141D01*
X5532Y3142D01*
X5533Y3142D01*
X5561Y3170D01*
X6093Y3170D01*
X6162Y3100D01*
X6162Y2608D01*
X6115Y2561D01*
X6114Y2560D01*
X6113Y2558D01*
X6110Y2554D01*
X6106Y2550D01*
X6106Y2549D01*
X6105Y2547D01*
X6103Y2543D01*
X6101Y2538D01*
X6100Y2536D01*
X6100Y2535D01*
X6099Y2530D01*
X6098Y2525D01*
X6098Y2523D01*
X6098Y2521D01*
X6098Y2516D01*
X6098Y2511D01*
X6099Y2510D01*
X6099Y2508D01*
X6101Y2503D01*
X6102Y2498D01*
X6103Y2497D01*
X6103Y2495D01*
X6106Y2491D01*
X6108Y2486D01*
X6109Y2485D01*
X6110Y2484D01*
X6115Y2478D01*
X6162Y2431D01*
X6162Y2402D01*
X6162Y2400D01*
X6162Y2398D01*
X6163Y2393D01*
X6164Y2388D01*
X6164Y2387D01*
X6165Y2385D01*
X6167Y2380D01*
X6168Y2375D01*
X6169Y2374D01*
X6170Y2372D01*
X6173Y2368D01*
X6176Y2364D01*
X6177Y2363D01*
X6178Y2362D01*
X6182Y2358D01*
X6186Y2355D01*
X6187Y2354D01*
X6188Y2353D01*
X6193Y2351D01*
X6197Y2348D01*
X6199Y2348D01*
X6200Y2347D01*
X6205Y2346D01*
X6210Y2344D01*
X6212Y2344D01*
X6214Y2344D01*
X6220Y2343D01*
X6747Y2343D01*
X6967Y2123D01*
X6972Y2120D01*
X6976Y2116D01*
X6977Y2115D01*
X6978Y2115D01*
X6983Y2112D01*
X6988Y2110D01*
X6989Y2109D01*
X6990Y2109D01*
X6996Y2108D01*
X7001Y2107D01*
X7003Y2106D01*
X7004Y2106D01*
X7008Y2106D01*
X7057Y2106D01*
X7148Y2068D01*
X7218Y1999D01*
X7255Y1908D01*
X7255Y1809D01*
X7218Y1718D01*
X7216Y1717D01*
X7215Y1715D01*
X7213Y1714D01*
X7211Y1710D01*
X7208Y1706D01*
X7207Y1704D01*
X7206Y1703D01*
X7204Y1698D01*
X7202Y1694D01*
X7202Y1692D01*
X7201Y1690D01*
X7200Y1685D01*
X7199Y1681D01*
X7200Y1679D01*
X7199Y1676D01*
X7200Y1672D01*
X7200Y1667D01*
X7200Y1665D01*
X7201Y1663D01*
X7202Y1659D01*
X7203Y1654D01*
X7204Y1652D01*
X7205Y1650D01*
X7208Y1646D01*
X7209Y1643D01*
X7206Y1645D01*
X7202Y1648D01*
X7200Y1648D01*
X7198Y1649D01*
X7194Y1651D01*
X7189Y1653D01*
X7187Y1653D01*
X7185Y1654D01*
X7181Y1654D01*
X7176Y1655D01*
X7174Y1654D01*
X7172Y1655D01*
X7167Y1654D01*
X7163Y1653D01*
X7161Y1653D01*
X7158Y1652D01*
X7152Y1650D01*
X7057Y1611D01*
X6959Y1611D01*
X6868Y1649D01*
X6798Y1718D01*
X6760Y1809D01*
X6760Y1858D01*
X6760Y1864D01*
X6759Y1870D01*
X6759Y1871D01*
X6759Y1872D01*
X6757Y1877D01*
X6755Y1883D01*
X6754Y1883D01*
X6754Y1884D01*
X6751Y1889D01*
X6748Y1894D01*
X6747Y1895D01*
X6747Y1896D01*
X6746Y1896D01*
X6743Y1899D01*
X6633Y2010D01*
X6628Y2013D01*
X6624Y2017D01*
X6623Y2018D01*
X6622Y2018D01*
X6617Y2021D01*
X6612Y2023D01*
X6611Y2023D01*
X6610Y2024D01*
X6604Y2025D01*
X6599Y2026D01*
X6597Y2026D01*
X6597Y2027D01*
X6596Y2027D01*
X6592Y2027D01*
X6220Y2027D01*
X6219Y2027D01*
X6217Y2027D01*
X6212Y2026D01*
X6207Y2025D01*
X6205Y2025D01*
X6204Y2024D01*
X6199Y2022D01*
X6194Y2021D01*
X6193Y2020D01*
X6191Y2019D01*
X6187Y2016D01*
X6183Y2013D01*
X6182Y2012D01*
X6181Y2011D01*
X6177Y2007D01*
X6174Y2003D01*
X6173Y2002D01*
X6172Y2001D01*
X6170Y1996D01*
X6167Y1992D01*
X6166Y1990D01*
X6166Y1989D01*
X6165Y1984D01*
X6163Y1979D01*
X6163Y1977D01*
X6163Y1975D01*
X6162Y1969D01*
X6162Y1939D01*
X6093Y1869D01*
X5561Y1869D01*
X5533Y1897D01*
X5532Y1898D01*
X5531Y1899D01*
X5527Y1902D01*
X5523Y1905D01*
X5521Y1906D01*
X5520Y1907D01*
X5515Y1909D01*
X5510Y1911D01*
X5509Y1911D01*
X5507Y1912D01*
X5502Y1913D01*
X5497Y1914D01*
X5496Y1914D01*
X5494Y1914D01*
X5489Y1914D01*
X5484Y1913D01*
X5482Y1913D01*
X5480Y1913D01*
X5476Y1911D01*
X5471Y1910D01*
X5469Y1909D01*
X5468Y1909D01*
X5089Y1909D01*
X5019Y1978D01*
X5019Y2313D01*
X5089Y2383D01*
X5433Y2383D01*
X5435Y2383D01*
X5436Y2383D01*
X5441Y2384D01*
X5447Y2384D01*
X5448Y2385D01*
X5450Y2385D01*
X5454Y2387D01*
X5459Y2389D01*
X5461Y2390D01*
X5462Y2390D01*
X5466Y2393D01*
X5471Y2396D01*
X5472Y2397D01*
X5473Y2398D01*
X5476Y2402D01*
X5480Y2406D01*
X5481Y2408D01*
X5482Y2409D01*
X5484Y2413D01*
X5487Y2418D01*
X5487Y2419D01*
X5488Y2421D01*
X5489Y2426D01*
X5490Y2430D01*
X5539Y2478D01*
X5540Y2480D01*
X5541Y2481D01*
X5544Y2485D01*
X5547Y2489D01*
X5548Y2491D01*
X5549Y2492D01*
X5551Y2497D01*
X5553Y2501D01*
X5553Y2503D01*
X5554Y2505D01*
X5555Y2510D01*
X5556Y2515D01*
X5556Y2516D01*
X5556Y2518D01*
X5555Y2523D01*
X5555Y2528D01*
X5555Y2530D01*
X5555Y2531D01*
X5553Y2536D01*
X5552Y2541D01*
X5551Y2543D01*
X5550Y2544D01*
X5548Y2549D01*
X5545Y2553D01*
X5544Y2554D01*
X5543Y2556D01*
X5539Y2561D01*
X5490Y2610D01*
X5490Y2612D01*
X5489Y2613D01*
X5489Y2615D01*
X5487Y2620D01*
X5485Y2625D01*
X5484Y2626D01*
X5484Y2628D01*
X5481Y2632D01*
X5478Y2636D01*
X5477Y2637D01*
X5476Y2638D01*
X5472Y2642D01*
X5468Y2645D01*
X5466Y2646D01*
X5465Y2647D01*
X5461Y2649D01*
X5456Y2652D01*
X5455Y2652D01*
X5453Y2653D01*
X5448Y2654D01*
X5443Y2656D01*
X5442Y2656D01*
X5440Y2656D01*
X5433Y2657D01*
X5089Y2657D01*
X5019Y2726D01*
X5019Y3061D01*
X5100Y3142D01*
X5103Y3146D01*
X5105Y3148D01*
X5105Y3149D01*
X5108Y3151D01*
X5108Y3152D01*
X5109Y3153D01*
X5111Y3158D01*
X5114Y3164D01*
X5114Y3165D01*
X5116Y3171D01*
X5117Y3177D01*
X5117Y3178D01*
X5117Y3179D01*
X5117Y3184D01*
X5117Y5265D01*
X5117Y5270D01*
X5116Y5276D01*
X5116Y5277D01*
X5116Y5278D01*
X5114Y5284D01*
X5112Y5289D01*
X5111Y5290D01*
X5111Y5291D01*
X5108Y5296D01*
X5105Y5301D01*
X5104Y5302D01*
X5103Y5303D01*
X5100Y5306D01*
X4960Y5446D01*
X4960Y7467D01*
X5070Y7577D01*
X5129Y7636D01*
X5131Y7639D01*
X5134Y7642D01*
X5136Y7645D01*
X5137Y7647D01*
X5139Y7650D01*
X5141Y7654D01*
X5142Y7656D01*
X5143Y7659D01*
X5144Y7663D01*
X5145Y7667D01*
X5145Y7670D01*
X5146Y7672D01*
X5145Y7676D01*
X5146Y7680D01*
X5145Y7683D01*
X5145Y7686D01*
X5144Y7690D01*
X5143Y7694D01*
X5142Y7696D01*
X5142Y7699D01*
X5140Y7702D01*
X5138Y7706D01*
X5136Y7708D01*
X5135Y7711D01*
X5132Y7714D01*
X5130Y7717D01*
X5128Y7719D01*
X5126Y7721D01*
X5123Y7723D01*
X5120Y7726D01*
X5117Y7727D01*
X5115Y7728D01*
X5111Y7730D01*
X5108Y7732D01*
X5105Y7733D01*
X5103Y7733D01*
X5098Y7734D01*
X5094Y7735D01*
X5090Y7735D01*
X5089Y7735D01*
X5087Y7735D01*
X4592Y7735D01*
X4392Y7935D01*
X4388Y7939D01*
X4383Y7942D01*
X4382Y7943D01*
X4376Y7946D01*
X4371Y7948D01*
X4370Y7949D01*
X4369Y7949D01*
X4364Y7950D01*
X4358Y7952D01*
X4357Y7952D01*
X4356Y7952D01*
X4355Y7952D01*
X4351Y7952D01*
X4045Y7952D01*
X3976Y8022D01*
X3976Y8327D01*
X3975Y8333D01*
X3974Y8339D01*
X3974Y8340D01*
X3974Y8341D01*
X3972Y8346D01*
X3970Y8352D01*
X3970Y8353D01*
X3969Y8354D01*
X3966Y8358D01*
X3963Y8363D01*
X3962Y8364D01*
X3962Y8365D01*
X3961Y8365D01*
X3959Y8369D01*
X3858Y8470D01*
X3858Y8504D01*
X3857Y8506D01*
X3857Y8507D01*
X3857Y8512D01*
X3856Y8517D01*
X3855Y8519D01*
X3855Y8521D01*
X3853Y8525D01*
X3851Y8530D01*
X3850Y8531D01*
X3850Y8533D01*
X3847Y8537D01*
X3844Y8541D01*
X3843Y8543D01*
X3842Y8544D01*
X3838Y8547D01*
X3834Y8551D01*
X3833Y8552D01*
X3831Y8553D01*
X3827Y8555D01*
X3822Y8557D01*
X3821Y8558D01*
X3819Y8559D01*
X3814Y8560D01*
X3809Y8561D01*
X3808Y8561D01*
X3806Y8562D01*
X3799Y8562D01*
X3730Y8562D01*
X3708Y8585D01*
X3705Y8587D01*
X3702Y8590D01*
X3699Y8591D01*
X3697Y8593D01*
X3694Y8595D01*
X3690Y8597D01*
X3687Y8598D01*
X3685Y8599D01*
X3681Y8600D01*
X3677Y8601D01*
X3674Y8601D01*
X3672Y8601D01*
X3668Y8601D01*
X3663Y8602D01*
X3661Y8601D01*
X3658Y8601D01*
X3654Y8600D01*
X3650Y8599D01*
X3648Y8598D01*
X3645Y8598D01*
X3642Y8596D01*
X3638Y8594D01*
X3636Y8592D01*
X3633Y8591D01*
X3630Y8588D01*
X3627Y8586D01*
X3625Y8584D01*
X3623Y8582D01*
X3621Y8579D01*
X3618Y8575D01*
X3617Y8573D01*
X3615Y8571D01*
X3614Y8567D01*
X3612Y8563D01*
X3611Y8561D01*
X3610Y8559D01*
X3610Y8554D01*
X3609Y8550D01*
X3609Y8546D01*
X3608Y8545D01*
X3609Y8545D01*
X3608Y8543D01*
X3608Y4114D01*
X3524Y4029D01*
X3194Y4029D01*
X3193Y4029D01*
X3191Y4029D01*
X3186Y4028D01*
X3181Y4028D01*
X3179Y4027D01*
X3178Y4027D01*
X3173Y4025D01*
X3168Y4023D01*
X3167Y4022D01*
X3165Y4022D01*
X3161Y4019D01*
X3157Y4016D01*
X3156Y4015D01*
X3154Y4014D01*
X3151Y4010D01*
X3148Y4006D01*
X3147Y4004D01*
X3146Y4003D01*
X3143Y3999D01*
X3141Y3994D01*
X3140Y3993D01*
X3140Y3991D01*
X3138Y3986D01*
X3137Y3981D01*
X3137Y3980D01*
X3136Y3978D01*
X3136Y3971D01*
X3136Y3858D01*
X3136Y3857D01*
X3136Y3855D01*
X3137Y3850D01*
X3138Y3845D01*
X3138Y3843D01*
X3138Y3842D01*
X3140Y3837D01*
X3142Y3832D01*
X3143Y3831D01*
X3144Y3829D01*
X3147Y3825D01*
X3150Y3821D01*
X3151Y3820D01*
X3152Y3818D01*
X3156Y3815D01*
X3159Y3812D01*
X3161Y3811D01*
X3162Y3810D01*
X3167Y3807D01*
X3171Y3805D01*
X3173Y3804D01*
X3174Y3804D01*
X3179Y3802D01*
X3184Y3801D01*
X3186Y3801D01*
X3187Y3800D01*
X3194Y3800D01*
X3691Y3800D01*
X3738Y3753D01*
X3740Y3752D01*
X3741Y3750D01*
X3745Y3747D01*
X3749Y3744D01*
X3750Y3744D01*
X3752Y3743D01*
X3757Y3741D01*
X3761Y3739D01*
X3763Y3738D01*
X3764Y3738D01*
X3769Y3737D01*
X3774Y3736D01*
X3776Y3736D01*
X3778Y3736D01*
X3783Y3736D01*
X3788Y3736D01*
X3790Y3737D01*
X3791Y3737D01*
X3796Y3738D01*
X3801Y3740D01*
X3802Y3740D01*
X3804Y3741D01*
X3808Y3744D01*
X3813Y3746D01*
X3814Y3747D01*
X3816Y3748D01*
X3821Y3753D01*
X3868Y3800D01*
X3878Y3800D01*
X3880Y3800D01*
X3881Y3800D01*
X3886Y3801D01*
X3891Y3802D01*
X3893Y3802D01*
X3895Y3802D01*
X3899Y3804D01*
X3904Y3806D01*
X3905Y3807D01*
X3907Y3808D01*
X3911Y3811D01*
X3915Y3814D01*
X3917Y3815D01*
X3918Y3816D01*
X3921Y3820D01*
X3925Y3823D01*
X3926Y3825D01*
X3927Y3826D01*
X3929Y3831D01*
X3931Y3835D01*
X3932Y3837D01*
X3933Y3838D01*
X3934Y3843D01*
X3935Y3848D01*
X3935Y3850D01*
X3936Y3851D01*
X3936Y3858D01*
X3936Y3878D01*
X3936Y3884D01*
X3935Y3890D01*
X3935Y3891D01*
X3935Y3892D01*
X3933Y3897D01*
X3931Y3903D01*
X3930Y3904D01*
X3930Y3905D01*
X3927Y3909D01*
X3924Y3914D01*
X3923Y3915D01*
X3923Y3916D01*
X3922Y3916D01*
X3919Y3920D01*
X3885Y3954D01*
X3847Y4045D01*
X3847Y4144D01*
X3885Y4235D01*
X3954Y4304D01*
X4045Y4342D01*
X4144Y4342D01*
X4235Y4304D01*
X4304Y4235D01*
X4342Y4144D01*
X4342Y4045D01*
X4304Y3954D01*
X4270Y3920D01*
X4266Y3915D01*
X4262Y3911D01*
X4262Y3910D01*
X4261Y3909D01*
X4259Y3904D01*
X4256Y3898D01*
X4256Y3897D01*
X4254Y3891D01*
X4253Y3885D01*
X4253Y3884D01*
X4253Y3883D01*
X4253Y3878D01*
X4253Y3858D01*
X4253Y3857D01*
X4253Y3855D01*
X4254Y3850D01*
X4254Y3845D01*
X4255Y3843D01*
X4255Y3842D01*
X4257Y3837D01*
X4259Y3832D01*
X4260Y3831D01*
X4260Y3829D01*
X4264Y3825D01*
X4266Y3821D01*
X4268Y3820D01*
X4269Y3818D01*
X4272Y3815D01*
X4276Y3812D01*
X4278Y3811D01*
X4279Y3810D01*
X4283Y3807D01*
X4288Y3805D01*
X4289Y3804D01*
X4291Y3804D01*
X4296Y3802D01*
X4301Y3801D01*
X4303Y3801D01*
X4304Y3800D01*
X4311Y3800D01*
X4360Y3800D01*
X4430Y3730D01*
X4430Y3199D01*
X4360Y3129D01*
X3868Y3129D01*
X3821Y3177D01*
X3819Y3178D01*
X3818Y3179D01*
X3814Y3182D01*
X3810Y3185D01*
X3809Y3186D01*
X3807Y3187D01*
X3803Y3188D01*
X3798Y3191D01*
X3796Y3191D01*
X3795Y3192D01*
X3790Y3192D01*
X3785Y3193D01*
X3783Y3193D01*
X3781Y3194D01*
X3776Y3193D01*
X3771Y3193D01*
X3769Y3193D01*
X3768Y3192D01*
X3763Y3191D01*
X3758Y3189D01*
X3757Y3189D01*
X3755Y3188D01*
X3751Y3185D01*
X3746Y3183D01*
X3745Y3182D01*
X3743Y3181D01*
X3738Y3177D01*
X3691Y3129D01*
X3661Y3129D01*
X3660Y3129D01*
X3658Y3129D01*
X3653Y3128D01*
X3648Y3128D01*
X3646Y3127D01*
X3645Y3127D01*
X3640Y3125D01*
X3635Y3123D01*
X3634Y3122D01*
X3632Y3121D01*
X3628Y3118D01*
X3624Y3116D01*
X3623Y3114D01*
X3621Y3113D01*
X3618Y3109D01*
X3615Y3106D01*
X3614Y3104D01*
X3613Y3103D01*
X3610Y3098D01*
X3608Y3094D01*
X3607Y3092D01*
X3607Y3091D01*
X3605Y3086D01*
X3604Y3081D01*
X3604Y3079D01*
X3604Y3078D01*
X3603Y3071D01*
X3603Y2865D01*
X3604Y2859D01*
X3604Y2854D01*
X3605Y2853D01*
X3605Y2852D01*
X3607Y2846D01*
X3609Y2841D01*
X3609Y2840D01*
X3609Y2839D01*
X3613Y2834D01*
X3616Y2829D01*
X3616Y2828D01*
X3617Y2828D01*
X3617Y2827D01*
X3620Y2824D01*
X3710Y2734D01*
X3714Y2731D01*
X3719Y2727D01*
X3720Y2727D01*
X3720Y2726D01*
X3726Y2723D01*
X3731Y2721D01*
X3732Y2721D01*
X3733Y2720D01*
X3738Y2719D01*
X3744Y2718D01*
X3745Y2718D01*
X3746Y2718D01*
X3747Y2718D01*
X3751Y2717D01*
X4238Y2717D01*
X4243Y2718D01*
X4249Y2718D01*
X4250Y2719D01*
X4251Y2719D01*
X4257Y2721D01*
X4262Y2723D01*
X4263Y2723D01*
X4264Y2723D01*
X4269Y2727D01*
X4274Y2730D01*
X4275Y2731D01*
X4276Y2732D01*
X4279Y2734D01*
X4301Y2757D01*
X4675Y2757D01*
X4745Y2687D01*
X4745Y2352D01*
X4675Y2283D01*
X4301Y2283D01*
X4279Y2305D01*
X4274Y2309D01*
X4270Y2312D01*
X4269Y2313D01*
X4268Y2313D01*
X4263Y2316D01*
X4258Y2319D01*
X4257Y2319D01*
X4256Y2319D01*
X4250Y2320D01*
X4245Y2322D01*
X4243Y2322D01*
X4242Y2322D01*
X4238Y2322D01*
X3807Y2322D01*
X3801Y2321D01*
X3795Y2321D01*
X3794Y2321D01*
X3793Y2321D01*
X3788Y2319D01*
X3782Y2317D01*
X3781Y2316D01*
X3776Y2313D01*
X3771Y2310D01*
X3770Y2309D01*
X3769Y2308D01*
X3766Y2305D01*
X3690Y2229D01*
X3686Y2225D01*
X3682Y2220D01*
X3682Y2219D01*
X3681Y2219D01*
X3679Y2213D01*
X3676Y2208D01*
X3676Y2207D01*
X3676Y2206D01*
X3675Y2201D01*
X3674Y2197D01*
X3635Y2104D01*
X3565Y2034D01*
X3474Y1996D01*
X3376Y1996D01*
X3285Y2034D01*
X3215Y2104D01*
X3178Y2195D01*
X3178Y2293D01*
X3215Y2384D01*
X3285Y2454D01*
X3387Y2496D01*
X3392Y2499D01*
X3398Y2502D01*
X3398Y2503D01*
X3403Y2507D01*
X3408Y2511D01*
X3408Y2512D01*
X3412Y2517D01*
X3416Y2522D01*
X3416Y2523D01*
X3418Y2529D01*
X3421Y2535D01*
X3421Y2536D01*
X3422Y2542D01*
X3423Y2548D01*
X3423Y2549D01*
X3422Y2555D01*
X3421Y2562D01*
X3421Y2563D01*
X3419Y2569D01*
X3417Y2575D01*
X3413Y2581D01*
X3410Y2586D01*
X3410Y2587D01*
X3409Y2587D01*
X3406Y2591D01*
X3287Y2710D01*
X3287Y3071D01*
X3286Y3073D01*
X3287Y3074D01*
X3286Y3079D01*
X3285Y3084D01*
X3285Y3086D01*
X3284Y3088D01*
X3282Y3092D01*
X3280Y3097D01*
X3280Y3098D01*
X3279Y3100D01*
X3276Y3104D01*
X3273Y3108D01*
X3272Y3109D01*
X3271Y3111D01*
X3267Y3114D01*
X3263Y3118D01*
X3262Y3118D01*
X3260Y3120D01*
X3256Y3122D01*
X3251Y3124D01*
X3250Y3125D01*
X3248Y3126D01*
X3243Y3127D01*
X3239Y3128D01*
X3237Y3128D01*
X3235Y3129D01*
X3228Y3129D01*
X3199Y3129D01*
X3189Y3139D01*
X3188Y3140D01*
X3186Y3141D01*
X3182Y3144D01*
X3178Y3148D01*
X3177Y3148D01*
X3175Y3149D01*
X3171Y3151D01*
X3166Y3153D01*
X3164Y3154D01*
X3163Y3154D01*
X3158Y3155D01*
X3153Y3156D01*
X3151Y3156D01*
X3149Y3156D01*
X3144Y3156D01*
X3139Y3156D01*
X3138Y3155D01*
X3136Y3155D01*
X3131Y3153D01*
X3126Y3152D01*
X3125Y3151D01*
X3123Y3151D01*
X3119Y3148D01*
X3114Y3146D01*
X3113Y3145D01*
X3112Y3144D01*
X3106Y3139D01*
X3052Y3084D01*
X1536Y3084D01*
X1534Y3084D01*
X1531Y3084D01*
X1527Y3083D01*
X1522Y3083D01*
X1520Y3082D01*
X1518Y3082D01*
X1514Y3080D01*
X1510Y3078D01*
X1508Y3077D01*
X1506Y3076D01*
X1502Y3073D01*
X1498Y3071D01*
X1497Y3069D01*
X1495Y3068D01*
X1492Y3064D01*
X1489Y3061D01*
X1488Y3059D01*
X1487Y3057D01*
X1485Y3053D01*
X1482Y3049D01*
X1482Y3047D01*
X1481Y3045D01*
X1480Y3041D01*
X1478Y3036D01*
X1478Y3034D01*
X1478Y3032D01*
X1478Y3027D01*
X1478Y3023D01*
X1478Y3021D01*
X1478Y3018D01*
X1479Y3014D01*
X1480Y3010D01*
X1481Y3008D01*
X1481Y3005D01*
X1483Y3001D01*
X1485Y2997D01*
X1487Y2995D01*
X1488Y2993D01*
X1491Y2990D01*
X1493Y2986D01*
X1495Y2985D01*
X1496Y2983D01*
X1500Y2980D01*
X1504Y2978D01*
X1506Y2977D01*
X1507Y2975D01*
X1512Y2973D01*
X1516Y2971D01*
X1518Y2971D01*
X1520Y2970D01*
X1527Y2969D01*
X1816Y2923D01*
X2211Y2721D01*
X2525Y2408D01*
X2726Y2013D01*
X2795Y1575D01*
X2726Y1137D01*
X2525Y742D01*
X2211Y428D01*
X1883Y261D01*
X1878Y257D01*
X1872Y254D01*
X1867Y249D01*
X1863Y244D01*
X1859Y238D01*
X1856Y232D01*
X1854Y226D01*
X1852Y219D01*
X1852Y212D01*
X1851Y206D01*
X1851Y205D01*
X1852Y199D01*
X1854Y192D01*
X1856Y186D01*
X1859Y180D01*
X1863Y174D01*
X1867Y169D01*
X1872Y165D01*
X1877Y160D01*
X1878Y160D01*
X1884Y157D01*
X1889Y154D01*
X1890Y154D01*
X1896Y153D01*
X1903Y151D01*
X1909Y151D01*
X14232Y151D01*
X14239Y152D01*
G37*
G36*
X8240Y6555D02*
X8240Y6555D01*
X8244Y6555D01*
X8247Y6556D01*
X8250Y6556D01*
X8253Y6558D01*
X8257Y6559D01*
X8259Y6560D01*
X8262Y6561D01*
X8265Y6563D01*
X8269Y6565D01*
X8271Y6567D01*
X8274Y6569D01*
X8276Y6571D01*
X8279Y6574D01*
X8281Y6576D01*
X8283Y6578D01*
X8285Y6582D01*
X8287Y6585D01*
X8289Y6590D01*
X8290Y6590D01*
X8290Y6591D01*
X8297Y6608D01*
X8549Y6860D01*
X8622Y6891D01*
X10020Y6891D01*
X10026Y6891D01*
X10032Y6892D01*
X10033Y6892D01*
X10034Y6892D01*
X10039Y6894D01*
X10045Y6896D01*
X10046Y6897D01*
X10051Y6900D01*
X10056Y6903D01*
X10057Y6904D01*
X10058Y6904D01*
X10058Y6905D01*
X10061Y6908D01*
X10192Y7039D01*
X10235Y7056D01*
X10236Y7057D01*
X10237Y7057D01*
X10242Y7060D01*
X10247Y7063D01*
X10248Y7064D01*
X10249Y7064D01*
X10254Y7069D01*
X10287Y7101D01*
X10290Y7106D01*
X10294Y7110D01*
X10294Y7111D01*
X10295Y7112D01*
X10297Y7117D01*
X10300Y7123D01*
X10301Y7124D01*
X10302Y7130D01*
X10303Y7134D01*
X10342Y7229D01*
X10344Y7231D01*
X10344Y7232D01*
X10345Y7233D01*
X10347Y7238D01*
X10349Y7240D01*
X10349Y7241D01*
X10350Y7243D01*
X10350Y7244D01*
X10351Y7245D01*
X10352Y7251D01*
X10353Y7254D01*
X10353Y7255D01*
X10353Y7256D01*
X10353Y7258D01*
X10353Y7259D01*
X10354Y7263D01*
X10354Y9143D01*
X10353Y9145D01*
X10353Y9146D01*
X10353Y9151D01*
X10352Y9156D01*
X10351Y9158D01*
X10351Y9160D01*
X10349Y9164D01*
X10347Y9169D01*
X10346Y9170D01*
X10346Y9172D01*
X10343Y9176D01*
X10340Y9180D01*
X10339Y9182D01*
X10338Y9183D01*
X10334Y9186D01*
X10330Y9190D01*
X10329Y9190D01*
X10327Y9192D01*
X10323Y9194D01*
X10318Y9196D01*
X10317Y9197D01*
X10315Y9198D01*
X10310Y9199D01*
X10305Y9200D01*
X10304Y9200D01*
X10302Y9201D01*
X10295Y9201D01*
X10266Y9201D01*
X10175Y9239D01*
X10105Y9309D01*
X10067Y9400D01*
X10067Y9498D01*
X10105Y9589D01*
X10175Y9659D01*
X10266Y9696D01*
X10295Y9696D01*
X10297Y9697D01*
X10299Y9697D01*
X10304Y9697D01*
X10309Y9698D01*
X10310Y9699D01*
X10312Y9699D01*
X10317Y9701D01*
X10321Y9703D01*
X10323Y9704D01*
X10324Y9704D01*
X10328Y9707D01*
X10333Y9710D01*
X10334Y9711D01*
X10335Y9712D01*
X10339Y9716D01*
X10342Y9720D01*
X10343Y9721D01*
X10344Y9723D01*
X10346Y9727D01*
X10349Y9732D01*
X10349Y9733D01*
X10350Y9735D01*
X10351Y9740D01*
X10353Y9745D01*
X10353Y9746D01*
X10353Y9748D01*
X10354Y9755D01*
X10354Y10052D01*
X10353Y10057D01*
X10352Y10063D01*
X10352Y10064D01*
X10352Y10065D01*
X10350Y10071D01*
X10348Y10076D01*
X10348Y10077D01*
X10347Y10078D01*
X10344Y10083D01*
X10341Y10088D01*
X10340Y10089D01*
X10339Y10090D01*
X10337Y10093D01*
X10325Y10105D01*
X10295Y10177D01*
X10295Y10819D01*
X10294Y10825D01*
X10293Y10831D01*
X10293Y10832D01*
X10291Y10838D01*
X10289Y10844D01*
X10288Y10845D01*
X10285Y10850D01*
X10282Y10855D01*
X10281Y10856D01*
X10281Y10857D01*
X10280Y10857D01*
X10278Y10860D01*
X10250Y10888D01*
X10246Y10891D01*
X10241Y10895D01*
X10240Y10896D01*
X10234Y10899D01*
X10229Y10901D01*
X10228Y10901D01*
X10227Y10902D01*
X10222Y10903D01*
X10216Y10904D01*
X10215Y10904D01*
X10214Y10905D01*
X10213Y10905D01*
X10209Y10905D01*
X8661Y10905D01*
X8655Y10904D01*
X8649Y10904D01*
X8648Y10903D01*
X8647Y10903D01*
X8642Y10901D01*
X8636Y10899D01*
X8635Y10899D01*
X8630Y10895D01*
X8625Y10892D01*
X8624Y10891D01*
X8623Y10891D01*
X8623Y10890D01*
X8620Y10888D01*
X7633Y9901D01*
X7184Y9901D01*
X7179Y9900D01*
X7173Y9900D01*
X7172Y9899D01*
X7171Y9899D01*
X7166Y9897D01*
X7160Y9895D01*
X7159Y9895D01*
X7158Y9895D01*
X7153Y9891D01*
X7148Y9888D01*
X7147Y9888D01*
X7147Y9887D01*
X7146Y9887D01*
X7143Y9884D01*
X6415Y9156D01*
X6412Y9151D01*
X6408Y9147D01*
X6408Y9146D01*
X6407Y9145D01*
X6405Y9140D01*
X6402Y9135D01*
X6402Y9134D01*
X6401Y9133D01*
X6400Y9127D01*
X6399Y9122D01*
X6399Y9120D01*
X6399Y9119D01*
X6398Y9115D01*
X6398Y7958D01*
X6176Y7735D01*
X6083Y7735D01*
X6081Y7735D01*
X6079Y7735D01*
X6074Y7734D01*
X6069Y7734D01*
X6068Y7733D01*
X6066Y7733D01*
X6061Y7731D01*
X6057Y7729D01*
X6055Y7728D01*
X6054Y7728D01*
X6050Y7725D01*
X6045Y7722D01*
X6044Y7721D01*
X6043Y7720D01*
X6039Y7716D01*
X6036Y7712D01*
X6035Y7711D01*
X6034Y7709D01*
X6032Y7705D01*
X6029Y7700D01*
X6029Y7699D01*
X6028Y7697D01*
X6027Y7692D01*
X6025Y7687D01*
X6025Y7686D01*
X6025Y7684D01*
X6024Y7677D01*
X6024Y7343D01*
X6025Y7341D01*
X6024Y7339D01*
X6025Y7334D01*
X6026Y7329D01*
X6027Y7328D01*
X6027Y7326D01*
X6029Y7321D01*
X6031Y7316D01*
X6031Y7315D01*
X6032Y7313D01*
X6035Y7309D01*
X6038Y7305D01*
X6039Y7304D01*
X6040Y7303D01*
X6044Y7299D01*
X6048Y7296D01*
X6049Y7295D01*
X6051Y7294D01*
X6055Y7292D01*
X6060Y7289D01*
X6061Y7289D01*
X6063Y7288D01*
X6068Y7287D01*
X6072Y7285D01*
X6074Y7285D01*
X6076Y7285D01*
X6083Y7284D01*
X6685Y7284D01*
X6691Y7285D01*
X6697Y7285D01*
X6698Y7286D01*
X6699Y7286D01*
X6704Y7288D01*
X6710Y7290D01*
X6711Y7290D01*
X6716Y7294D01*
X6721Y7297D01*
X6722Y7298D01*
X6723Y7298D01*
X6726Y7301D01*
X6800Y7375D01*
X6891Y7413D01*
X6990Y7413D01*
X7081Y7375D01*
X7151Y7306D01*
X7193Y7204D01*
X7195Y7199D01*
X7198Y7194D01*
X7199Y7193D01*
X7203Y7188D01*
X7207Y7184D01*
X7208Y7183D01*
X7213Y7179D01*
X7218Y7176D01*
X7219Y7175D01*
X7220Y7175D01*
X7224Y7173D01*
X7306Y7139D01*
X7345Y7100D01*
X7348Y7098D01*
X7350Y7095D01*
X7353Y7094D01*
X7355Y7092D01*
X7359Y7090D01*
X7362Y7088D01*
X7365Y7087D01*
X7367Y7086D01*
X7371Y7085D01*
X7375Y7084D01*
X7378Y7084D01*
X7381Y7083D01*
X7384Y7083D01*
X7388Y7083D01*
X7391Y7084D01*
X7394Y7084D01*
X7398Y7085D01*
X7402Y7085D01*
X7407Y7087D01*
X7408Y7087D01*
X7434Y7098D01*
X7532Y7098D01*
X7613Y7064D01*
X7619Y7063D01*
X7624Y7061D01*
X7625Y7061D01*
X7626Y7061D01*
X7632Y7060D01*
X7638Y7060D01*
X7639Y7060D01*
X7640Y7060D01*
X7645Y7061D01*
X7651Y7062D01*
X7652Y7063D01*
X7653Y7063D01*
X7654Y7063D01*
X7658Y7064D01*
X7751Y7103D01*
X7850Y7103D01*
X7941Y7065D01*
X8010Y6996D01*
X8048Y6905D01*
X8048Y6806D01*
X8010Y6715D01*
X7949Y6654D01*
X7947Y6651D01*
X7944Y6648D01*
X7943Y6646D01*
X7941Y6644D01*
X7939Y6640D01*
X7937Y6636D01*
X7936Y6634D01*
X7935Y6632D01*
X7935Y6627D01*
X7933Y6623D01*
X7933Y6621D01*
X7933Y6618D01*
X7933Y6614D01*
X7933Y6610D01*
X7933Y6607D01*
X7933Y6605D01*
X7934Y6601D01*
X7935Y6597D01*
X7936Y6594D01*
X7937Y6592D01*
X7939Y6588D01*
X7940Y6584D01*
X7942Y6582D01*
X7943Y6580D01*
X7946Y6577D01*
X7948Y6573D01*
X7950Y6572D01*
X7952Y6570D01*
X7955Y6567D01*
X7959Y6565D01*
X7961Y6563D01*
X7963Y6562D01*
X7967Y6560D01*
X7971Y6558D01*
X7973Y6558D01*
X7976Y6557D01*
X7980Y6556D01*
X7984Y6555D01*
X7988Y6555D01*
X7989Y6555D01*
X7991Y6555D01*
X8236Y6555D01*
X8240Y6555D01*
G37*
%LPC*%
G36*
X15089Y5865D02*
X15089Y5865D01*
X15014Y5940D01*
X15011Y5942D01*
X15008Y5945D01*
X15006Y5946D01*
X15004Y5948D01*
X15000Y5950D01*
X14997Y5952D01*
X14994Y5953D01*
X14991Y5954D01*
X14988Y5955D01*
X14984Y5956D01*
X14981Y5956D01*
X14978Y5957D01*
X14974Y5957D01*
X14970Y5957D01*
X14967Y5956D01*
X14965Y5956D01*
X14961Y5955D01*
X14957Y5955D01*
X14954Y5953D01*
X14951Y5953D01*
X14948Y5951D01*
X14945Y5949D01*
X14940Y5947D01*
X14940Y5946D01*
X14939Y5946D01*
X14932Y5941D01*
X14876Y5913D01*
X14822Y5895D01*
X14822Y6240D01*
X14822Y6242D01*
X14822Y6243D01*
X14821Y6248D01*
X14821Y6254D01*
X14820Y6255D01*
X14820Y6257D01*
X14818Y6261D01*
X14816Y6266D01*
X14815Y6268D01*
X14814Y6269D01*
X14811Y6273D01*
X14808Y6278D01*
X14807Y6279D01*
X14807Y6280D01*
X14811Y6284D01*
X14811Y6286D01*
X14812Y6287D01*
X14815Y6291D01*
X14817Y6296D01*
X14818Y6297D01*
X14819Y6299D01*
X14820Y6304D01*
X14821Y6309D01*
X14821Y6310D01*
X14822Y6312D01*
X14822Y6319D01*
X14822Y7067D01*
X14822Y7069D01*
X14822Y7070D01*
X14821Y7075D01*
X14821Y7080D01*
X14820Y7082D01*
X14820Y7084D01*
X14818Y7088D01*
X14816Y7093D01*
X14815Y7094D01*
X14814Y7096D01*
X14811Y7100D01*
X14808Y7104D01*
X14807Y7106D01*
X14807Y7107D01*
X14811Y7111D01*
X14811Y7112D01*
X14812Y7114D01*
X14815Y7118D01*
X14817Y7123D01*
X14818Y7124D01*
X14819Y7126D01*
X14820Y7131D01*
X14821Y7135D01*
X14821Y7137D01*
X14822Y7139D01*
X14822Y7146D01*
X14822Y7894D01*
X14822Y7895D01*
X14822Y7897D01*
X14821Y7902D01*
X14821Y7907D01*
X14820Y7909D01*
X14820Y7910D01*
X14818Y7915D01*
X14816Y7920D01*
X14815Y7921D01*
X14814Y7923D01*
X14811Y7927D01*
X14808Y7931D01*
X14807Y7932D01*
X14807Y7933D01*
X14807Y7934D01*
X14811Y7938D01*
X14811Y7939D01*
X14812Y7940D01*
X14815Y7945D01*
X14817Y7949D01*
X14818Y7951D01*
X14819Y7952D01*
X14820Y7957D01*
X14821Y7962D01*
X14821Y7964D01*
X14822Y7966D01*
X14822Y7972D01*
X14822Y8720D01*
X14822Y8722D01*
X14822Y8724D01*
X14821Y8729D01*
X14821Y8734D01*
X14820Y8735D01*
X14820Y8737D01*
X14818Y8742D01*
X14816Y8747D01*
X14815Y8748D01*
X14814Y8750D01*
X14811Y8754D01*
X14808Y8758D01*
X14807Y8759D01*
X14807Y8760D01*
X14807Y8761D01*
X14811Y8764D01*
X14811Y8766D01*
X14812Y8767D01*
X14815Y8772D01*
X14817Y8776D01*
X14818Y8778D01*
X14819Y8779D01*
X14820Y8784D01*
X14821Y8789D01*
X14821Y8791D01*
X14822Y8792D01*
X14822Y8799D01*
X14822Y9547D01*
X14822Y9549D01*
X14822Y9551D01*
X14821Y9556D01*
X14821Y9561D01*
X14820Y9562D01*
X14820Y9564D01*
X14818Y9569D01*
X14816Y9573D01*
X14815Y9575D01*
X14814Y9576D01*
X14811Y9580D01*
X14808Y9585D01*
X14807Y9586D01*
X14807Y9587D01*
X14811Y9591D01*
X14811Y9593D01*
X14812Y9594D01*
X14815Y9598D01*
X14817Y9603D01*
X14818Y9604D01*
X14819Y9606D01*
X14820Y9611D01*
X14821Y9616D01*
X14821Y9617D01*
X14822Y9619D01*
X14822Y9626D01*
X14822Y10374D01*
X14822Y10376D01*
X14822Y10377D01*
X14821Y10382D01*
X14821Y10387D01*
X14820Y10389D01*
X14820Y10391D01*
X14818Y10395D01*
X14816Y10400D01*
X14815Y10402D01*
X14814Y10403D01*
X14811Y10407D01*
X14808Y10411D01*
X14807Y10413D01*
X14807Y10414D01*
X14811Y10418D01*
X14811Y10419D01*
X14812Y10421D01*
X14815Y10425D01*
X14817Y10430D01*
X14818Y10431D01*
X14819Y10433D01*
X14820Y10438D01*
X14821Y10443D01*
X14821Y10444D01*
X14822Y10446D01*
X14822Y10453D01*
X14822Y11201D01*
X14822Y11202D01*
X14822Y11204D01*
X14821Y11209D01*
X14821Y11214D01*
X14820Y11216D01*
X14820Y11217D01*
X14818Y11222D01*
X14816Y11227D01*
X14815Y11228D01*
X14814Y11230D01*
X14811Y11234D01*
X14808Y11238D01*
X14807Y11239D01*
X14807Y11240D01*
X14807Y11241D01*
X14811Y11245D01*
X14811Y11246D01*
X14812Y11247D01*
X14815Y11252D01*
X14817Y11256D01*
X14818Y11258D01*
X14819Y11259D01*
X14820Y11264D01*
X14821Y11269D01*
X14821Y11271D01*
X14822Y11273D01*
X14822Y11280D01*
X14822Y12028D01*
X14822Y12029D01*
X14822Y12031D01*
X14821Y12036D01*
X14821Y12041D01*
X14820Y12043D01*
X14820Y12044D01*
X14818Y12049D01*
X14816Y12054D01*
X14815Y12055D01*
X14814Y12057D01*
X14811Y12061D01*
X14808Y12065D01*
X14807Y12066D01*
X14807Y12067D01*
X14807Y12068D01*
X14811Y12071D01*
X14811Y12073D01*
X14812Y12074D01*
X14815Y12079D01*
X14817Y12083D01*
X14818Y12085D01*
X14819Y12086D01*
X14820Y12091D01*
X14821Y12096D01*
X14821Y12098D01*
X14822Y12099D01*
X14822Y12106D01*
X14822Y12854D01*
X14822Y12856D01*
X14822Y12858D01*
X14821Y12863D01*
X14821Y12868D01*
X14820Y12869D01*
X14820Y12871D01*
X14818Y12876D01*
X14816Y12880D01*
X14815Y12882D01*
X14814Y12883D01*
X14811Y12887D01*
X14808Y12892D01*
X14807Y12893D01*
X14807Y12894D01*
X14807Y12895D01*
X14811Y12898D01*
X14811Y12900D01*
X14812Y12901D01*
X14815Y12906D01*
X14817Y12910D01*
X14818Y12912D01*
X14819Y12913D01*
X14820Y12918D01*
X14821Y12923D01*
X14821Y12925D01*
X14822Y12926D01*
X14822Y12933D01*
X14822Y13661D01*
X14822Y13663D01*
X14822Y13665D01*
X14821Y13670D01*
X14821Y13675D01*
X14820Y13676D01*
X14820Y13678D01*
X14818Y13683D01*
X14816Y13688D01*
X14815Y13689D01*
X14814Y13690D01*
X14811Y13695D01*
X14808Y13699D01*
X14807Y13700D01*
X14807Y13701D01*
X14807Y13702D01*
X14811Y13705D01*
X14811Y13707D01*
X14812Y13708D01*
X14815Y13713D01*
X14817Y13717D01*
X14818Y13719D01*
X14819Y13720D01*
X14820Y13725D01*
X14821Y13730D01*
X14821Y13732D01*
X14822Y13733D01*
X14822Y13740D01*
X14822Y14085D01*
X14876Y14068D01*
X14932Y14039D01*
X14939Y14035D01*
X14942Y14033D01*
X14945Y14030D01*
X14948Y14029D01*
X14950Y14028D01*
X14954Y14027D01*
X14958Y14025D01*
X14961Y14025D01*
X14963Y14024D01*
X14967Y14024D01*
X14971Y14024D01*
X14974Y14024D01*
X14977Y14024D01*
X14981Y14024D01*
X14985Y14025D01*
X14987Y14026D01*
X14990Y14026D01*
X14994Y14028D01*
X14998Y14029D01*
X15000Y14030D01*
X15003Y14032D01*
X15006Y14034D01*
X15009Y14036D01*
X15013Y14039D01*
X15013Y14040D01*
X15014Y14040D01*
X15014Y14041D01*
X15089Y14115D01*
X15778Y14115D01*
X15847Y14045D01*
X15847Y13356D01*
X15829Y13338D01*
X15828Y13337D01*
X15827Y13336D01*
X15824Y13332D01*
X15821Y13328D01*
X15820Y13326D01*
X15819Y13325D01*
X15817Y13320D01*
X15815Y13316D01*
X15815Y13314D01*
X15814Y13312D01*
X15814Y13307D01*
X15813Y13302D01*
X15813Y13301D01*
X15812Y13299D01*
X15813Y13294D01*
X15813Y13289D01*
X15813Y13287D01*
X15814Y13286D01*
X15815Y13281D01*
X15816Y13276D01*
X15817Y13274D01*
X15818Y13273D01*
X15820Y13268D01*
X15823Y13264D01*
X15824Y13263D01*
X15825Y13261D01*
X15829Y13256D01*
X15847Y13238D01*
X15847Y12549D01*
X15820Y12522D01*
X15819Y12520D01*
X15817Y12519D01*
X15814Y12515D01*
X15811Y12511D01*
X15810Y12509D01*
X15809Y12508D01*
X15808Y12503D01*
X15805Y12499D01*
X15805Y12497D01*
X15804Y12495D01*
X15804Y12490D01*
X15803Y12485D01*
X15803Y12484D01*
X15803Y12482D01*
X15803Y12477D01*
X15803Y12472D01*
X15804Y12470D01*
X15804Y12469D01*
X15805Y12464D01*
X15807Y12459D01*
X15807Y12457D01*
X15808Y12456D01*
X15811Y12451D01*
X15813Y12447D01*
X15814Y12446D01*
X15815Y12444D01*
X15820Y12439D01*
X15847Y12411D01*
X15847Y11722D01*
X15820Y11695D01*
X15819Y11693D01*
X15817Y11692D01*
X15814Y11688D01*
X15811Y11684D01*
X15810Y11683D01*
X15809Y11681D01*
X15808Y11677D01*
X15805Y11672D01*
X15805Y11670D01*
X15804Y11669D01*
X15804Y11664D01*
X15803Y11659D01*
X15803Y11657D01*
X15803Y11655D01*
X15803Y11650D01*
X15803Y11645D01*
X15804Y11644D01*
X15804Y11642D01*
X15805Y11637D01*
X15807Y11632D01*
X15807Y11631D01*
X15808Y11629D01*
X15811Y11625D01*
X15813Y11620D01*
X15814Y11619D01*
X15815Y11617D01*
X15820Y11612D01*
X15847Y11585D01*
X15847Y10896D01*
X15820Y10868D01*
X15819Y10867D01*
X15817Y10866D01*
X15814Y10861D01*
X15811Y10857D01*
X15810Y10856D01*
X15809Y10855D01*
X15808Y10850D01*
X15805Y10845D01*
X15805Y10843D01*
X15804Y10842D01*
X15804Y10837D01*
X15803Y10832D01*
X15803Y10830D01*
X15803Y10829D01*
X15803Y10823D01*
X15803Y10818D01*
X15804Y10817D01*
X15804Y10815D01*
X15805Y10810D01*
X15807Y10805D01*
X15807Y10804D01*
X15808Y10802D01*
X15811Y10798D01*
X15813Y10793D01*
X15814Y10792D01*
X15815Y10791D01*
X15820Y10786D01*
X15847Y10758D01*
X15847Y10069D01*
X15820Y10041D01*
X15819Y10040D01*
X15817Y10039D01*
X15814Y10035D01*
X15811Y10031D01*
X15810Y10029D01*
X15809Y10028D01*
X15808Y10023D01*
X15805Y10018D01*
X15805Y10017D01*
X15804Y10015D01*
X15804Y10010D01*
X15803Y10005D01*
X15803Y10003D01*
X15803Y10002D01*
X15803Y9997D01*
X15803Y9992D01*
X15804Y9990D01*
X15804Y9988D01*
X15805Y9983D01*
X15807Y9979D01*
X15807Y9977D01*
X15808Y9975D01*
X15811Y9971D01*
X15813Y9967D01*
X15814Y9965D01*
X15815Y9964D01*
X15820Y9959D01*
X15847Y9931D01*
X15847Y9242D01*
X15820Y9214D01*
X15819Y9213D01*
X15817Y9212D01*
X15814Y9208D01*
X15811Y9204D01*
X15810Y9202D01*
X15809Y9201D01*
X15808Y9196D01*
X15805Y9192D01*
X15805Y9190D01*
X15804Y9188D01*
X15804Y9183D01*
X15803Y9178D01*
X15803Y9177D01*
X15803Y9175D01*
X15803Y9170D01*
X15803Y9165D01*
X15804Y9163D01*
X15804Y9162D01*
X15805Y9157D01*
X15807Y9152D01*
X15807Y9150D01*
X15808Y9149D01*
X15811Y9144D01*
X15813Y9140D01*
X15814Y9139D01*
X15815Y9137D01*
X15820Y9132D01*
X15847Y9104D01*
X15847Y8415D01*
X15820Y8388D01*
X15819Y8386D01*
X15817Y8385D01*
X15814Y8381D01*
X15811Y8377D01*
X15810Y8376D01*
X15809Y8374D01*
X15808Y8369D01*
X15805Y8365D01*
X15805Y8363D01*
X15804Y8362D01*
X15804Y8357D01*
X15803Y8352D01*
X15803Y8350D01*
X15803Y8348D01*
X15803Y8343D01*
X15803Y8338D01*
X15804Y8336D01*
X15804Y8335D01*
X15805Y8330D01*
X15807Y8325D01*
X15807Y8324D01*
X15808Y8322D01*
X15811Y8318D01*
X15813Y8313D01*
X15814Y8312D01*
X15815Y8310D01*
X15820Y8305D01*
X15847Y8278D01*
X15847Y7589D01*
X15820Y7561D01*
X15819Y7560D01*
X15817Y7558D01*
X15814Y7554D01*
X15811Y7550D01*
X15810Y7549D01*
X15809Y7547D01*
X15808Y7543D01*
X15805Y7538D01*
X15805Y7536D01*
X15804Y7535D01*
X15804Y7530D01*
X15803Y7525D01*
X15803Y7523D01*
X15803Y7521D01*
X15803Y7516D01*
X15803Y7511D01*
X15804Y7510D01*
X15804Y7508D01*
X15805Y7503D01*
X15807Y7498D01*
X15807Y7497D01*
X15808Y7495D01*
X15811Y7491D01*
X15813Y7486D01*
X15814Y7485D01*
X15815Y7484D01*
X15820Y7478D01*
X15847Y7451D01*
X15847Y6762D01*
X15820Y6734D01*
X15819Y6733D01*
X15817Y6732D01*
X15814Y6728D01*
X15811Y6724D01*
X15810Y6722D01*
X15809Y6721D01*
X15808Y6716D01*
X15805Y6711D01*
X15805Y6710D01*
X15804Y6708D01*
X15804Y6703D01*
X15803Y6698D01*
X15803Y6696D01*
X15803Y6695D01*
X15803Y6690D01*
X15803Y6684D01*
X15804Y6683D01*
X15804Y6681D01*
X15805Y6676D01*
X15807Y6671D01*
X15807Y6670D01*
X15808Y6668D01*
X15811Y6664D01*
X15813Y6660D01*
X15814Y6658D01*
X15815Y6657D01*
X15820Y6652D01*
X15847Y6624D01*
X15847Y5935D01*
X15778Y5865D01*
X15089Y5865D01*
G37*
%LPD*%
G36*
X6225Y13978D02*
X6225Y13978D01*
X6229Y13978D01*
X6230Y13979D01*
X6231Y13979D01*
X6235Y13980D01*
X6239Y13982D01*
X6240Y13983D01*
X6241Y13983D01*
X6244Y13986D01*
X6248Y13988D01*
X6563Y14303D01*
X6565Y14307D01*
X6568Y14310D01*
X6569Y14311D01*
X6569Y14312D01*
X6571Y14316D01*
X6573Y14320D01*
X6573Y14321D01*
X6573Y14323D01*
X6573Y14327D01*
X6574Y14331D01*
X6574Y16378D01*
X6573Y16382D01*
X6573Y16386D01*
X6573Y16388D01*
X6572Y16389D01*
X6571Y16393D01*
X6569Y16397D01*
X6568Y16398D01*
X6568Y16399D01*
X6565Y16402D01*
X6563Y16405D01*
X6248Y16720D01*
X6244Y16723D01*
X6241Y16725D01*
X6240Y16726D01*
X6239Y16727D01*
X6235Y16728D01*
X6231Y16730D01*
X6230Y16730D01*
X6229Y16731D01*
X6225Y16731D01*
X6220Y16732D01*
X4488Y16732D01*
X4484Y16731D01*
X4480Y16731D01*
X4479Y16730D01*
X4477Y16730D01*
X4474Y16728D01*
X4470Y16727D01*
X4469Y16726D01*
X4467Y16725D01*
X4464Y16723D01*
X4461Y16720D01*
X4146Y16405D01*
X4143Y16402D01*
X4141Y16399D01*
X4140Y16398D01*
X4139Y16396D01*
X4138Y16393D01*
X4136Y16389D01*
X4136Y16387D01*
X4135Y16386D01*
X4135Y16382D01*
X4135Y16378D01*
X4135Y16079D01*
X3842Y15787D01*
X2756Y15787D01*
X2752Y15786D01*
X2748Y15786D01*
X2746Y15785D01*
X2745Y15785D01*
X2741Y15783D01*
X2737Y15782D01*
X2736Y15781D01*
X2735Y15781D01*
X2732Y15778D01*
X2729Y15775D01*
X2650Y15697D01*
X2647Y15693D01*
X2645Y15690D01*
X2644Y15689D01*
X2643Y15688D01*
X2642Y15684D01*
X2640Y15680D01*
X2640Y15679D01*
X2639Y15677D01*
X2639Y15673D01*
X2639Y15669D01*
X2639Y15039D01*
X2639Y15035D01*
X2639Y15031D01*
X2640Y15030D01*
X2640Y15028D01*
X2642Y15025D01*
X2643Y15021D01*
X2644Y15020D01*
X2645Y15018D01*
X2647Y15015D01*
X2650Y15012D01*
X2729Y14933D01*
X2732Y14931D01*
X2735Y14928D01*
X2736Y14928D01*
X2737Y14927D01*
X2741Y14925D01*
X2745Y14924D01*
X2746Y14923D01*
X2748Y14923D01*
X2752Y14923D01*
X2756Y14922D01*
X3842Y14922D01*
X4135Y14630D01*
X4135Y14331D01*
X4135Y14327D01*
X4136Y14322D01*
X4136Y14321D01*
X4136Y14320D01*
X4138Y14316D01*
X4139Y14312D01*
X4140Y14311D01*
X4141Y14310D01*
X4143Y14307D01*
X4146Y14303D01*
X4461Y13988D01*
X4464Y13986D01*
X4467Y13983D01*
X4469Y13983D01*
X4470Y13982D01*
X4474Y13980D01*
X4477Y13979D01*
X4479Y13978D01*
X4480Y13978D01*
X4484Y13978D01*
X4488Y13977D01*
X6220Y13977D01*
X6225Y13978D01*
G37*
%LPC*%
G36*
X8427Y365D02*
X8427Y365D01*
X8284Y424D01*
X8174Y533D01*
X8115Y676D01*
X8115Y1371D01*
X8174Y1514D01*
X8203Y1542D01*
X8204Y1544D01*
X8205Y1545D01*
X8208Y1549D01*
X8211Y1553D01*
X8212Y1555D01*
X8213Y1556D01*
X8215Y1561D01*
X8217Y1565D01*
X8217Y1567D01*
X8218Y1568D01*
X8219Y1574D01*
X8220Y1579D01*
X8220Y1580D01*
X8220Y1582D01*
X8219Y1587D01*
X8219Y1592D01*
X8219Y1594D01*
X8219Y1595D01*
X8217Y1600D01*
X8216Y1605D01*
X8215Y1607D01*
X8214Y1608D01*
X8212Y1613D01*
X8209Y1617D01*
X8208Y1618D01*
X8207Y1620D01*
X8203Y1625D01*
X8091Y1737D01*
X8091Y1897D01*
X8090Y1903D01*
X8090Y1909D01*
X8089Y1910D01*
X8089Y1911D01*
X8087Y1916D01*
X8085Y1922D01*
X8085Y1923D01*
X8085Y1924D01*
X8081Y1929D01*
X8078Y1934D01*
X8077Y1935D01*
X8077Y1936D01*
X8074Y1939D01*
X7600Y2412D01*
X7595Y2416D01*
X7591Y2420D01*
X7590Y2420D01*
X7589Y2421D01*
X7584Y2423D01*
X7579Y2426D01*
X7578Y2426D01*
X7577Y2427D01*
X7571Y2428D01*
X7566Y2429D01*
X7564Y2429D01*
X7563Y2429D01*
X7559Y2430D01*
X7510Y2430D01*
X7419Y2467D01*
X7349Y2537D01*
X7311Y2628D01*
X7311Y2726D01*
X7349Y2817D01*
X7419Y2887D01*
X7510Y2925D01*
X7608Y2925D01*
X7699Y2887D01*
X7769Y2817D01*
X7807Y2726D01*
X7807Y2677D01*
X7807Y2672D01*
X7808Y2666D01*
X7808Y2665D01*
X7808Y2664D01*
X7810Y2659D01*
X7812Y2653D01*
X7813Y2652D01*
X7813Y2651D01*
X7816Y2646D01*
X7819Y2641D01*
X7820Y2640D01*
X7821Y2639D01*
X7824Y2636D01*
X8148Y2312D01*
X8151Y2309D01*
X8155Y2306D01*
X8157Y2305D01*
X8159Y2303D01*
X8163Y2302D01*
X8166Y2300D01*
X8169Y2299D01*
X8171Y2298D01*
X8175Y2297D01*
X8179Y2296D01*
X8182Y2296D01*
X8184Y2295D01*
X8188Y2295D01*
X8193Y2295D01*
X8195Y2295D01*
X8198Y2295D01*
X8202Y2296D01*
X8206Y2297D01*
X8208Y2298D01*
X8211Y2299D01*
X8215Y2301D01*
X8218Y2303D01*
X8221Y2304D01*
X8223Y2305D01*
X8226Y2308D01*
X8229Y2311D01*
X8231Y2313D01*
X8233Y2314D01*
X8235Y2318D01*
X8238Y2321D01*
X8239Y2323D01*
X8241Y2325D01*
X8242Y2329D01*
X8244Y2333D01*
X8245Y2336D01*
X8246Y2338D01*
X8246Y2342D01*
X8247Y2346D01*
X8248Y2350D01*
X8248Y2351D01*
X8248Y2352D01*
X8248Y2353D01*
X8487Y2353D01*
X8487Y1939D01*
X8487Y1937D01*
X8487Y1936D01*
X8488Y1931D01*
X8489Y1926D01*
X8489Y1924D01*
X8489Y1922D01*
X8491Y1918D01*
X8493Y1913D01*
X8494Y1911D01*
X8495Y1910D01*
X8498Y1906D01*
X8501Y1902D01*
X8502Y1900D01*
X8503Y1899D01*
X8507Y1896D01*
X8510Y1892D01*
X8512Y1891D01*
X8513Y1890D01*
X8515Y1889D01*
X8517Y1886D01*
X8520Y1882D01*
X8522Y1881D01*
X8522Y1879D01*
X8526Y1876D01*
X8530Y1873D01*
X8532Y1872D01*
X8533Y1871D01*
X8537Y1868D01*
X8542Y1866D01*
X8543Y1865D01*
X8545Y1865D01*
X8550Y1863D01*
X8555Y1862D01*
X8556Y1862D01*
X8558Y1861D01*
X8565Y1861D01*
X8863Y1861D01*
X8863Y1802D01*
X8745Y1685D01*
X8744Y1683D01*
X8743Y1682D01*
X8740Y1678D01*
X8737Y1674D01*
X8736Y1672D01*
X8735Y1671D01*
X8733Y1666D01*
X8731Y1662D01*
X8731Y1660D01*
X8730Y1659D01*
X8730Y1653D01*
X8729Y1648D01*
X8729Y1647D01*
X8728Y1645D01*
X8729Y1640D01*
X8729Y1635D01*
X8729Y1633D01*
X8729Y1632D01*
X8731Y1627D01*
X8732Y1622D01*
X8733Y1620D01*
X8734Y1619D01*
X8736Y1614D01*
X8739Y1610D01*
X8740Y1609D01*
X8741Y1607D01*
X8745Y1602D01*
X8834Y1514D01*
X8893Y1371D01*
X8893Y676D01*
X8834Y533D01*
X8724Y424D01*
X8581Y365D01*
X8427Y365D01*
G37*
%LPD*%
%LPC*%
G36*
X7427Y365D02*
X7427Y365D01*
X7284Y424D01*
X7174Y533D01*
X7115Y676D01*
X7115Y1371D01*
X7174Y1514D01*
X7215Y1555D01*
X7217Y1557D01*
X7218Y1558D01*
X7221Y1562D01*
X7224Y1566D01*
X7225Y1568D01*
X7226Y1569D01*
X7228Y1574D01*
X7230Y1578D01*
X7230Y1580D01*
X7231Y1582D01*
X7231Y1587D01*
X7232Y1591D01*
X7232Y1593D01*
X7233Y1595D01*
X7232Y1600D01*
X7232Y1605D01*
X7231Y1607D01*
X7231Y1609D01*
X7230Y1613D01*
X7228Y1618D01*
X7227Y1620D01*
X7227Y1622D01*
X7224Y1626D01*
X7222Y1629D01*
X7226Y1627D01*
X7230Y1624D01*
X7232Y1624D01*
X7234Y1622D01*
X7238Y1621D01*
X7242Y1619D01*
X7244Y1619D01*
X7247Y1618D01*
X7251Y1618D01*
X7256Y1617D01*
X7258Y1617D01*
X7260Y1617D01*
X7265Y1618D01*
X7269Y1618D01*
X7271Y1619D01*
X7273Y1619D01*
X7280Y1622D01*
X7427Y1682D01*
X7581Y1682D01*
X7724Y1623D01*
X7834Y1514D01*
X7893Y1371D01*
X7893Y676D01*
X7834Y533D01*
X7724Y424D01*
X7581Y365D01*
X7427Y365D01*
G37*
%LPD*%
%LPC*%
G36*
X13549Y14381D02*
X13549Y14381D01*
X13406Y14440D01*
X13296Y14549D01*
X13237Y14692D01*
X13237Y15387D01*
X13296Y15530D01*
X13406Y15639D01*
X13549Y15698D01*
X13703Y15698D01*
X13846Y15639D01*
X13956Y15530D01*
X14015Y15387D01*
X14015Y14692D01*
X13956Y14549D01*
X13846Y14440D01*
X13703Y14381D01*
X13549Y14381D01*
G37*
%LPD*%
%LPC*%
G36*
X14549Y14381D02*
X14549Y14381D01*
X14406Y14440D01*
X14296Y14549D01*
X14237Y14692D01*
X14237Y15387D01*
X14296Y15530D01*
X14406Y15639D01*
X14549Y15698D01*
X14703Y15698D01*
X14846Y15639D01*
X14956Y15530D01*
X15015Y15387D01*
X15015Y14692D01*
X14956Y14549D01*
X14846Y14440D01*
X14703Y14381D01*
X14549Y14381D01*
G37*
%LPD*%
%LPC*%
G36*
X12549Y14381D02*
X12549Y14381D01*
X12406Y14440D01*
X12296Y14549D01*
X12237Y14692D01*
X12237Y15387D01*
X12296Y15530D01*
X12406Y15639D01*
X12549Y15698D01*
X12703Y15698D01*
X12846Y15639D01*
X12956Y15530D01*
X13015Y15387D01*
X13015Y14692D01*
X12956Y14549D01*
X12846Y14440D01*
X12703Y14381D01*
X12549Y14381D01*
G37*
%LPD*%
G36*
X9608Y4332D02*
X9608Y4332D01*
X9610Y4332D01*
X9615Y4332D01*
X9620Y4333D01*
X9621Y4334D01*
X9623Y4334D01*
X9628Y4336D01*
X9632Y4338D01*
X9634Y4339D01*
X9635Y4339D01*
X9639Y4342D01*
X9644Y4345D01*
X9645Y4346D01*
X9646Y4347D01*
X9650Y4351D01*
X9653Y4355D01*
X9654Y4356D01*
X9655Y4358D01*
X9657Y4362D01*
X9660Y4367D01*
X9660Y4368D01*
X9661Y4370D01*
X9662Y4375D01*
X9664Y4380D01*
X9664Y4381D01*
X9664Y4383D01*
X9665Y4390D01*
X9665Y4793D01*
X9712Y4841D01*
X9713Y4842D01*
X9714Y4843D01*
X9717Y4847D01*
X9720Y4851D01*
X9721Y4853D01*
X9722Y4854D01*
X9724Y4859D01*
X9726Y4864D01*
X9726Y4865D01*
X9727Y4867D01*
X9728Y4872D01*
X9729Y4877D01*
X9729Y4878D01*
X9729Y4880D01*
X9729Y4885D01*
X9728Y4890D01*
X9728Y4892D01*
X9728Y4894D01*
X9726Y4898D01*
X9725Y4903D01*
X9724Y4905D01*
X9724Y4906D01*
X9721Y4911D01*
X9719Y4915D01*
X9717Y4917D01*
X9717Y4918D01*
X9712Y4923D01*
X9665Y4970D01*
X9665Y5374D01*
X9664Y5376D01*
X9665Y5377D01*
X9664Y5382D01*
X9663Y5387D01*
X9662Y5389D01*
X9662Y5391D01*
X9660Y5395D01*
X9658Y5400D01*
X9657Y5402D01*
X9657Y5403D01*
X9654Y5407D01*
X9651Y5411D01*
X9650Y5413D01*
X9649Y5414D01*
X9645Y5417D01*
X9641Y5421D01*
X9640Y5422D01*
X9638Y5423D01*
X9634Y5425D01*
X9629Y5428D01*
X9628Y5428D01*
X9626Y5429D01*
X9621Y5430D01*
X9616Y5431D01*
X9615Y5432D01*
X9613Y5432D01*
X9606Y5432D01*
X9096Y5432D01*
X9094Y5432D01*
X9093Y5432D01*
X9088Y5431D01*
X9083Y5431D01*
X9081Y5430D01*
X9079Y5430D01*
X9075Y5428D01*
X9070Y5426D01*
X9069Y5425D01*
X9067Y5425D01*
X9063Y5422D01*
X9059Y5419D01*
X9057Y5417D01*
X9056Y5416D01*
X9053Y5413D01*
X9049Y5409D01*
X9048Y5407D01*
X9047Y5406D01*
X9045Y5402D01*
X9043Y5397D01*
X9042Y5396D01*
X9041Y5394D01*
X9040Y5389D01*
X9039Y5384D01*
X9039Y5383D01*
X9038Y5381D01*
X9038Y5374D01*
X9038Y5314D01*
X8780Y5314D01*
X8778Y5314D01*
X8776Y5314D01*
X8771Y5313D01*
X8766Y5313D01*
X8765Y5312D01*
X8763Y5312D01*
X8758Y5310D01*
X8753Y5308D01*
X8752Y5307D01*
X8750Y5306D01*
X8746Y5303D01*
X8742Y5301D01*
X8741Y5299D01*
X8740Y5298D01*
X8736Y5294D01*
X8733Y5291D01*
X8732Y5289D01*
X8731Y5288D01*
X8729Y5283D01*
X8726Y5279D01*
X8726Y5277D01*
X8725Y5276D01*
X8724Y5271D01*
X8722Y5266D01*
X8722Y5264D01*
X8722Y5263D01*
X8721Y5256D01*
X8721Y5177D01*
X8721Y5176D01*
X8721Y5174D01*
X8722Y5169D01*
X8723Y5164D01*
X8723Y5162D01*
X8724Y5161D01*
X8726Y5156D01*
X8727Y5151D01*
X8728Y5150D01*
X8729Y5148D01*
X8732Y5144D01*
X8735Y5140D01*
X8736Y5139D01*
X8737Y5137D01*
X8741Y5134D01*
X8745Y5130D01*
X8746Y5130D01*
X8747Y5129D01*
X8752Y5126D01*
X8756Y5124D01*
X8758Y5123D01*
X8759Y5122D01*
X8764Y5121D01*
X8769Y5120D01*
X8771Y5120D01*
X8773Y5119D01*
X8780Y5119D01*
X9038Y5119D01*
X9038Y4987D01*
X9031Y4961D01*
X9018Y4938D01*
X9015Y4936D01*
X9014Y4935D01*
X9013Y4934D01*
X9010Y4929D01*
X9007Y4925D01*
X9006Y4924D01*
X9005Y4922D01*
X9003Y4918D01*
X9001Y4913D01*
X9001Y4911D01*
X9000Y4910D01*
X9000Y4905D01*
X8999Y4900D01*
X8999Y4898D01*
X8998Y4896D01*
X8999Y4891D01*
X8999Y4886D01*
X8999Y4885D01*
X9000Y4883D01*
X9001Y4878D01*
X9002Y4873D01*
X9003Y4872D01*
X9004Y4870D01*
X9006Y4866D01*
X9009Y4861D01*
X9010Y4860D01*
X9011Y4859D01*
X9015Y4853D01*
X9056Y4813D01*
X9056Y4390D01*
X9056Y4388D01*
X9056Y4386D01*
X9057Y4381D01*
X9057Y4376D01*
X9058Y4375D01*
X9058Y4373D01*
X9060Y4368D01*
X9062Y4364D01*
X9063Y4362D01*
X9064Y4361D01*
X9067Y4357D01*
X9069Y4352D01*
X9071Y4351D01*
X9072Y4350D01*
X9076Y4347D01*
X9079Y4343D01*
X9081Y4342D01*
X9082Y4341D01*
X9087Y4339D01*
X9091Y4336D01*
X9093Y4336D01*
X9094Y4335D01*
X9099Y4334D01*
X9104Y4332D01*
X9106Y4332D01*
X9107Y4332D01*
X9114Y4331D01*
X9606Y4331D01*
X9608Y4332D01*
G37*
G36*
X12049Y11432D02*
X12049Y11432D01*
X12051Y11432D01*
X12056Y11433D01*
X12061Y11433D01*
X12062Y11434D01*
X12064Y11434D01*
X12069Y11436D01*
X12073Y11438D01*
X12075Y11439D01*
X12076Y11440D01*
X12080Y11443D01*
X12085Y11445D01*
X12086Y11447D01*
X12087Y11448D01*
X12090Y11452D01*
X12094Y11455D01*
X12095Y11457D01*
X12096Y11458D01*
X12098Y11463D01*
X12101Y11467D01*
X12101Y11469D01*
X12102Y11470D01*
X12103Y11475D01*
X12105Y11480D01*
X12105Y11482D01*
X12105Y11483D01*
X12106Y11490D01*
X12106Y11604D01*
X12175Y11674D01*
X12667Y11674D01*
X12715Y11627D01*
X12716Y11626D01*
X12717Y11624D01*
X12721Y11621D01*
X12725Y11618D01*
X12727Y11618D01*
X12728Y11617D01*
X12733Y11615D01*
X12738Y11613D01*
X12739Y11612D01*
X12741Y11612D01*
X12746Y11611D01*
X12751Y11610D01*
X12752Y11610D01*
X12754Y11610D01*
X12759Y11610D01*
X12764Y11610D01*
X12766Y11611D01*
X12768Y11611D01*
X12772Y11612D01*
X12777Y11614D01*
X12779Y11614D01*
X12780Y11615D01*
X12785Y11618D01*
X12789Y11620D01*
X12791Y11621D01*
X12792Y11622D01*
X12797Y11627D01*
X12844Y11674D01*
X13337Y11674D01*
X13339Y11672D01*
X13341Y11670D01*
X13344Y11667D01*
X13347Y11666D01*
X13349Y11664D01*
X13353Y11662D01*
X13356Y11660D01*
X13359Y11659D01*
X13361Y11658D01*
X13365Y11657D01*
X13369Y11656D01*
X13372Y11656D01*
X13375Y11655D01*
X13378Y11655D01*
X13382Y11655D01*
X13385Y11656D01*
X13388Y11656D01*
X13392Y11657D01*
X13396Y11657D01*
X13401Y11659D01*
X13402Y11659D01*
X13415Y11665D01*
X13514Y11665D01*
X13605Y11627D01*
X13670Y11562D01*
X13671Y11561D01*
X13672Y11560D01*
X13676Y11557D01*
X13680Y11554D01*
X13682Y11553D01*
X13683Y11552D01*
X13688Y11550D01*
X13693Y11548D01*
X13694Y11548D01*
X13696Y11547D01*
X13701Y11546D01*
X13706Y11545D01*
X13708Y11545D01*
X13709Y11545D01*
X13714Y11546D01*
X13719Y11546D01*
X13721Y11546D01*
X13723Y11546D01*
X13728Y11548D01*
X13732Y11549D01*
X13734Y11550D01*
X13736Y11551D01*
X13740Y11553D01*
X13744Y11556D01*
X13746Y11557D01*
X13747Y11558D01*
X13752Y11562D01*
X13781Y11591D01*
X13802Y11600D01*
X13805Y11602D01*
X13809Y11603D01*
X13811Y11605D01*
X13813Y11606D01*
X13816Y11609D01*
X13820Y11612D01*
X13821Y11614D01*
X13823Y11615D01*
X13826Y11619D01*
X13828Y11622D01*
X13829Y11624D01*
X13831Y11627D01*
X13832Y11631D01*
X13834Y11634D01*
X13835Y11637D01*
X13836Y11639D01*
X13836Y11643D01*
X13837Y11648D01*
X13837Y11650D01*
X13838Y11653D01*
X13837Y11657D01*
X13837Y11661D01*
X13836Y11664D01*
X13836Y11666D01*
X13835Y11670D01*
X13834Y11674D01*
X13833Y11676D01*
X13832Y11679D01*
X13829Y11682D01*
X13828Y11686D01*
X13826Y11688D01*
X13824Y11690D01*
X13821Y11693D01*
X13819Y11696D01*
X13817Y11698D01*
X13815Y11700D01*
X13811Y11702D01*
X13808Y11704D01*
X13804Y11706D01*
X13803Y11707D01*
X13802Y11707D01*
X13781Y11716D01*
X13665Y11832D01*
X13623Y11932D01*
X13622Y11935D01*
X13620Y11939D01*
X13618Y11941D01*
X13617Y11944D01*
X13614Y11946D01*
X13612Y11949D01*
X13610Y11951D01*
X13608Y11954D01*
X13605Y11956D01*
X13602Y11958D01*
X13599Y11959D01*
X13597Y11961D01*
X13593Y11962D01*
X13590Y11964D01*
X13587Y11965D01*
X13584Y11966D01*
X13580Y11966D01*
X13577Y11967D01*
X13571Y11968D01*
X13570Y11968D01*
X12677Y11968D01*
X12676Y11968D01*
X12674Y11968D01*
X12669Y11967D01*
X12664Y11966D01*
X12662Y11966D01*
X12661Y11965D01*
X12656Y11963D01*
X12651Y11962D01*
X12650Y11961D01*
X12648Y11960D01*
X12644Y11957D01*
X12640Y11954D01*
X12639Y11953D01*
X12637Y11952D01*
X12634Y11948D01*
X12630Y11944D01*
X12630Y11943D01*
X12629Y11942D01*
X12626Y11937D01*
X12624Y11933D01*
X12623Y11931D01*
X12622Y11929D01*
X12621Y11925D01*
X12620Y11920D01*
X12620Y11918D01*
X12619Y11916D01*
X12619Y11909D01*
X12619Y11860D01*
X12549Y11791D01*
X12057Y11791D01*
X12010Y11838D01*
X12008Y11839D01*
X12007Y11840D01*
X12003Y11843D01*
X11999Y11846D01*
X11998Y11847D01*
X11996Y11848D01*
X11991Y11850D01*
X11987Y11852D01*
X11985Y11852D01*
X11984Y11853D01*
X11979Y11854D01*
X11974Y11855D01*
X11972Y11855D01*
X11970Y11855D01*
X11965Y11855D01*
X11960Y11854D01*
X11958Y11854D01*
X11957Y11854D01*
X11952Y11852D01*
X11947Y11851D01*
X11946Y11850D01*
X11944Y11850D01*
X11940Y11847D01*
X11935Y11844D01*
X11934Y11843D01*
X11932Y11843D01*
X11927Y11838D01*
X11880Y11791D01*
X11850Y11791D01*
X11849Y11790D01*
X11847Y11790D01*
X11842Y11790D01*
X11837Y11789D01*
X11835Y11788D01*
X11834Y11788D01*
X11829Y11786D01*
X11824Y11784D01*
X11823Y11783D01*
X11821Y11783D01*
X11817Y11780D01*
X11813Y11777D01*
X11812Y11776D01*
X11810Y11775D01*
X11807Y11771D01*
X11804Y11767D01*
X11803Y11766D01*
X11802Y11764D01*
X11799Y11760D01*
X11797Y11755D01*
X11796Y11754D01*
X11796Y11752D01*
X11794Y11747D01*
X11793Y11742D01*
X11793Y11741D01*
X11792Y11739D01*
X11792Y11732D01*
X11792Y11490D01*
X11792Y11488D01*
X11792Y11487D01*
X11793Y11482D01*
X11794Y11477D01*
X11794Y11475D01*
X11795Y11474D01*
X11797Y11469D01*
X11798Y11464D01*
X11799Y11463D01*
X11800Y11461D01*
X11803Y11457D01*
X11806Y11453D01*
X11807Y11452D01*
X11808Y11450D01*
X11812Y11447D01*
X11816Y11443D01*
X11817Y11443D01*
X11818Y11441D01*
X11823Y11439D01*
X11827Y11437D01*
X11829Y11436D01*
X11830Y11435D01*
X11835Y11434D01*
X11840Y11433D01*
X11842Y11433D01*
X11844Y11432D01*
X11850Y11432D01*
X12047Y11432D01*
X12049Y11432D01*
G37*
G36*
X6083Y9351D02*
X6083Y9351D01*
X6086Y9351D01*
X6090Y9351D01*
X6094Y9352D01*
X6097Y9353D01*
X6099Y9353D01*
X6103Y9355D01*
X6107Y9356D01*
X6109Y9357D01*
X6112Y9358D01*
X6115Y9361D01*
X6119Y9363D01*
X6122Y9366D01*
X6123Y9366D01*
X6123Y9367D01*
X6124Y9368D01*
X6164Y9408D01*
X6766Y10010D01*
X6769Y10013D01*
X6771Y10016D01*
X6773Y10018D01*
X6774Y10020D01*
X6776Y10024D01*
X6778Y10028D01*
X6779Y10030D01*
X6780Y10033D01*
X6781Y10037D01*
X6782Y10041D01*
X6782Y10043D01*
X6783Y10046D01*
X6783Y10050D01*
X6783Y10054D01*
X6782Y10057D01*
X6782Y10059D01*
X6781Y10063D01*
X6781Y10068D01*
X6780Y10070D01*
X6779Y10072D01*
X6777Y10076D01*
X6775Y10080D01*
X6774Y10082D01*
X6772Y10084D01*
X6770Y10087D01*
X6767Y10091D01*
X6765Y10092D01*
X6763Y10094D01*
X6760Y10097D01*
X6757Y10100D01*
X6755Y10101D01*
X6752Y10102D01*
X6748Y10104D01*
X6745Y10106D01*
X6742Y10106D01*
X6740Y10107D01*
X6736Y10108D01*
X6732Y10109D01*
X6727Y10109D01*
X6726Y10109D01*
X6725Y10109D01*
X6083Y10109D01*
X6081Y10109D01*
X6079Y10109D01*
X6074Y10108D01*
X6069Y10108D01*
X6068Y10107D01*
X6066Y10107D01*
X6061Y10105D01*
X6057Y10103D01*
X6055Y10102D01*
X6054Y10101D01*
X6050Y10098D01*
X6045Y10096D01*
X6044Y10094D01*
X6043Y10093D01*
X6039Y10089D01*
X6036Y10086D01*
X6035Y10084D01*
X6034Y10083D01*
X6032Y10078D01*
X6029Y10074D01*
X6029Y10072D01*
X6028Y10071D01*
X6027Y10066D01*
X6025Y10061D01*
X6025Y10059D01*
X6025Y10058D01*
X6024Y10051D01*
X6024Y9976D01*
X6023Y9975D01*
X6020Y9971D01*
X6016Y9966D01*
X6016Y9965D01*
X6015Y9965D01*
X6012Y9959D01*
X6010Y9954D01*
X6010Y9953D01*
X6009Y9952D01*
X6008Y9947D01*
X6007Y9941D01*
X6007Y9940D01*
X6004Y9940D01*
X6002Y9939D01*
X6001Y9939D01*
X6000Y9939D01*
X5999Y9939D01*
X5995Y9937D01*
X5991Y9936D01*
X5989Y9935D01*
X5988Y9935D01*
X5987Y9934D01*
X5986Y9934D01*
X5983Y9932D01*
X5979Y9930D01*
X5978Y9929D01*
X5976Y9928D01*
X5975Y9927D01*
X5974Y9926D01*
X5971Y9923D01*
X5970Y9922D01*
X5969Y9921D01*
X5967Y9919D01*
X5966Y9917D01*
X5964Y9915D01*
X5963Y9913D01*
X5962Y9911D01*
X5961Y9910D01*
X5960Y9907D01*
X5959Y9905D01*
X5958Y9903D01*
X5957Y9900D01*
X5957Y9899D01*
X5956Y9897D01*
X5956Y9895D01*
X5955Y9892D01*
X5955Y9890D01*
X5954Y9887D01*
X5954Y9885D01*
X5954Y9884D01*
X5954Y9881D01*
X5954Y9879D01*
X5955Y9876D01*
X5955Y9873D01*
X5955Y9872D01*
X5955Y9870D01*
X5956Y9868D01*
X5956Y9865D01*
X5957Y9863D01*
X5958Y9860D01*
X5959Y9859D01*
X5959Y9857D01*
X5961Y9855D01*
X5962Y9853D01*
X5963Y9851D01*
X5965Y9848D01*
X5966Y9847D01*
X5967Y9846D01*
X5969Y9843D01*
X5970Y9842D01*
X5971Y9841D01*
X5972Y9840D01*
X5974Y9838D01*
X5977Y9836D01*
X5980Y9833D01*
X5981Y9833D01*
X5982Y9832D01*
X5983Y9832D01*
X5985Y9831D01*
X5989Y9829D01*
X5992Y9827D01*
X5993Y9827D01*
X5994Y9827D01*
X5996Y9826D01*
X5997Y9826D01*
X6001Y9825D01*
X6005Y9824D01*
X6007Y9824D01*
X6007Y9818D01*
X6008Y9817D01*
X6008Y9816D01*
X6009Y9813D01*
X6010Y9811D01*
X6012Y9805D01*
X6012Y9804D01*
X6014Y9801D01*
X6014Y9800D01*
X6016Y9798D01*
X6019Y9794D01*
X6020Y9793D01*
X6020Y9792D01*
X6021Y9792D01*
X6022Y9790D01*
X6022Y9789D01*
X6023Y9789D01*
X6023Y9788D01*
X6024Y9787D01*
X6024Y9409D01*
X6025Y9405D01*
X6025Y9400D01*
X6026Y9398D01*
X6026Y9395D01*
X6027Y9391D01*
X6028Y9387D01*
X6030Y9385D01*
X6031Y9383D01*
X6033Y9379D01*
X6035Y9375D01*
X6037Y9374D01*
X6038Y9371D01*
X6041Y9369D01*
X6044Y9365D01*
X6046Y9364D01*
X6048Y9362D01*
X6051Y9360D01*
X6055Y9358D01*
X6057Y9357D01*
X6060Y9355D01*
X6064Y9354D01*
X6068Y9353D01*
X6070Y9352D01*
X6072Y9351D01*
X6077Y9351D01*
X6081Y9351D01*
X6083Y9351D01*
G37*
G36*
X8719Y6243D02*
X8719Y6243D01*
X8725Y6244D01*
X8726Y6244D01*
X8727Y6244D01*
X8733Y6246D01*
X8738Y6248D01*
X8739Y6248D01*
X8740Y6249D01*
X8745Y6252D01*
X8750Y6255D01*
X8751Y6256D01*
X8752Y6257D01*
X8755Y6260D01*
X8756Y6261D01*
X9626Y6261D01*
X9628Y6261D01*
X9629Y6261D01*
X9634Y6262D01*
X9639Y6262D01*
X9641Y6263D01*
X9643Y6263D01*
X9647Y6265D01*
X9652Y6267D01*
X9654Y6268D01*
X9655Y6268D01*
X9659Y6271D01*
X9663Y6274D01*
X9665Y6275D01*
X9666Y6276D01*
X9669Y6280D01*
X9673Y6284D01*
X9674Y6285D01*
X9675Y6287D01*
X9677Y6291D01*
X9680Y6296D01*
X9680Y6297D01*
X9681Y6299D01*
X9682Y6304D01*
X9683Y6309D01*
X9683Y6310D01*
X9684Y6312D01*
X9684Y6319D01*
X9684Y6365D01*
X9715Y6396D01*
X9718Y6399D01*
X9721Y6402D01*
X9722Y6404D01*
X9724Y6406D01*
X9725Y6410D01*
X9728Y6414D01*
X9728Y6416D01*
X9729Y6419D01*
X9730Y6423D01*
X9731Y6427D01*
X9732Y6429D01*
X9732Y6432D01*
X9732Y6436D01*
X9732Y6440D01*
X9732Y6443D01*
X9732Y6445D01*
X9731Y6450D01*
X9730Y6454D01*
X9729Y6456D01*
X9728Y6458D01*
X9726Y6462D01*
X9725Y6466D01*
X9723Y6468D01*
X9722Y6470D01*
X9719Y6474D01*
X9717Y6477D01*
X9715Y6479D01*
X9713Y6481D01*
X9709Y6483D01*
X9706Y6486D01*
X9704Y6487D01*
X9702Y6488D01*
X9698Y6490D01*
X9694Y6492D01*
X9692Y6492D01*
X9689Y6493D01*
X9685Y6494D01*
X9681Y6495D01*
X9677Y6495D01*
X9676Y6495D01*
X9675Y6495D01*
X9674Y6495D01*
X8767Y6495D01*
X8762Y6495D01*
X8756Y6494D01*
X8755Y6494D01*
X8754Y6494D01*
X8748Y6492D01*
X8743Y6490D01*
X8742Y6489D01*
X8741Y6489D01*
X8736Y6486D01*
X8731Y6483D01*
X8730Y6482D01*
X8729Y6481D01*
X8726Y6478D01*
X8660Y6412D01*
X8656Y6407D01*
X8652Y6403D01*
X8652Y6402D01*
X8651Y6401D01*
X8649Y6396D01*
X8646Y6390D01*
X8645Y6389D01*
X8644Y6383D01*
X8643Y6377D01*
X8643Y6376D01*
X8643Y6375D01*
X8642Y6370D01*
X8642Y6301D01*
X8643Y6299D01*
X8643Y6297D01*
X8643Y6292D01*
X8644Y6287D01*
X8645Y6286D01*
X8645Y6284D01*
X8647Y6279D01*
X8649Y6275D01*
X8650Y6273D01*
X8650Y6272D01*
X8653Y6268D01*
X8656Y6263D01*
X8657Y6262D01*
X8658Y6261D01*
X8662Y6258D01*
X8666Y6254D01*
X8667Y6253D01*
X8669Y6252D01*
X8673Y6250D01*
X8678Y6247D01*
X8679Y6247D01*
X8681Y6246D01*
X8686Y6245D01*
X8691Y6243D01*
X8692Y6243D01*
X8694Y6243D01*
X8701Y6242D01*
X8714Y6242D01*
X8719Y6243D01*
G37*
%LPC*%
G36*
X8555Y2489D02*
X8555Y2489D01*
X8554Y2489D01*
X8552Y2489D01*
X8545Y2489D01*
X8248Y2489D01*
X8248Y2549D01*
X8365Y2665D01*
X8366Y2667D01*
X8367Y2668D01*
X8370Y2672D01*
X8373Y2676D01*
X8374Y2678D01*
X8375Y2679D01*
X8376Y2684D01*
X8379Y2688D01*
X8379Y2690D01*
X8380Y2692D01*
X8380Y2697D01*
X8381Y2702D01*
X8381Y2703D01*
X8382Y2705D01*
X8381Y2710D01*
X8381Y2715D01*
X8381Y2717D01*
X8380Y2718D01*
X8379Y2723D01*
X8378Y2728D01*
X8377Y2730D01*
X8376Y2731D01*
X8374Y2736D01*
X8371Y2740D01*
X8370Y2741D01*
X8369Y2743D01*
X8365Y2748D01*
X8326Y2786D01*
X8326Y2845D01*
X8624Y2845D01*
X8626Y2845D01*
X8627Y2845D01*
X8632Y2846D01*
X8633Y2846D01*
X8634Y2846D01*
X8635Y2846D01*
X8637Y2846D01*
X8644Y2845D01*
X8941Y2845D01*
X8941Y2786D01*
X8824Y2669D01*
X8823Y2668D01*
X8822Y2667D01*
X8819Y2663D01*
X8816Y2659D01*
X8815Y2657D01*
X8814Y2656D01*
X8812Y2651D01*
X8810Y2646D01*
X8810Y2645D01*
X8809Y2643D01*
X8809Y2638D01*
X8808Y2633D01*
X8808Y2631D01*
X8807Y2630D01*
X8808Y2625D01*
X8808Y2620D01*
X8808Y2618D01*
X8809Y2616D01*
X8810Y2611D01*
X8811Y2606D01*
X8812Y2605D01*
X8813Y2603D01*
X8815Y2599D01*
X8818Y2595D01*
X8819Y2593D01*
X8820Y2592D01*
X8824Y2587D01*
X8863Y2549D01*
X8863Y2489D01*
X8565Y2489D01*
X8563Y2489D01*
X8562Y2489D01*
X8557Y2488D01*
X8556Y2488D01*
X8555Y2489D01*
G37*
%LPD*%
%LPC*%
G36*
X3021Y12795D02*
X3021Y12795D01*
X3021Y13132D01*
X3196Y13132D01*
X3202Y13133D01*
X3207Y13133D01*
X3208Y13134D01*
X3209Y13134D01*
X3215Y13136D01*
X3220Y13138D01*
X3221Y13138D01*
X3222Y13138D01*
X3227Y13142D01*
X3232Y13145D01*
X3233Y13146D01*
X3237Y13150D01*
X3241Y13154D01*
X3242Y13155D01*
X3242Y13156D01*
X3245Y13161D01*
X3248Y13166D01*
X3249Y13167D01*
X3251Y13173D01*
X3253Y13179D01*
X3253Y13180D01*
X3253Y13186D01*
X3254Y13192D01*
X3254Y13193D01*
X3254Y13194D01*
X3253Y13200D01*
X3252Y13206D01*
X3252Y13207D01*
X3249Y13213D01*
X3247Y13218D01*
X3247Y13219D01*
X3246Y13220D01*
X3243Y13224D01*
X3239Y13229D01*
X3239Y13230D01*
X3238Y13230D01*
X3234Y13234D01*
X3229Y13238D01*
X3228Y13239D01*
X3223Y13242D01*
X3217Y13245D01*
X3216Y13245D01*
X3215Y13246D01*
X3211Y13247D01*
X3189Y13253D01*
X3166Y13266D01*
X3148Y13285D01*
X3134Y13308D01*
X3128Y13333D01*
X3128Y13446D01*
X3347Y13446D01*
X3347Y13244D01*
X3346Y13244D01*
X3340Y13242D01*
X3335Y13240D01*
X3334Y13240D01*
X3333Y13240D01*
X3328Y13236D01*
X3323Y13233D01*
X3322Y13232D01*
X3318Y13228D01*
X3314Y13224D01*
X3313Y13223D01*
X3313Y13222D01*
X3310Y13217D01*
X3307Y13212D01*
X3306Y13211D01*
X3304Y13205D01*
X3302Y13199D01*
X3302Y13198D01*
X3302Y13192D01*
X3301Y13186D01*
X3301Y13185D01*
X3301Y13184D01*
X3302Y13178D01*
X3303Y13172D01*
X3304Y13171D01*
X3306Y13165D01*
X3308Y13160D01*
X3309Y13159D01*
X3309Y13158D01*
X3312Y13154D01*
X3316Y13149D01*
X3316Y13148D01*
X3317Y13147D01*
X3322Y13144D01*
X3326Y13140D01*
X3327Y13139D01*
X3333Y13136D01*
X3338Y13133D01*
X3339Y13133D01*
X3340Y13132D01*
X3344Y13131D01*
X3366Y13125D01*
X3389Y13112D01*
X3407Y13093D01*
X3421Y13070D01*
X3428Y13045D01*
X3428Y12795D01*
X3021Y12795D01*
G37*
%LPD*%
G36*
X11104Y4706D02*
X11104Y4706D01*
X11106Y4706D01*
X11111Y4706D01*
X11116Y4707D01*
X11117Y4708D01*
X11119Y4708D01*
X11124Y4710D01*
X11129Y4712D01*
X11130Y4713D01*
X11131Y4713D01*
X11136Y4716D01*
X11140Y4719D01*
X11141Y4720D01*
X11142Y4721D01*
X11146Y4725D01*
X11149Y4729D01*
X11150Y4730D01*
X11151Y4732D01*
X11153Y4736D01*
X11156Y4741D01*
X11156Y4742D01*
X11157Y4744D01*
X11158Y4749D01*
X11160Y4754D01*
X11160Y4755D01*
X11160Y4757D01*
X11161Y4764D01*
X11161Y5266D01*
X11221Y5326D01*
X11222Y5327D01*
X11223Y5328D01*
X11226Y5333D01*
X11229Y5337D01*
X11230Y5338D01*
X11231Y5339D01*
X11233Y5344D01*
X11235Y5349D01*
X11235Y5350D01*
X11236Y5352D01*
X11237Y5357D01*
X11238Y5362D01*
X11238Y5364D01*
X11238Y5365D01*
X11237Y5370D01*
X11237Y5376D01*
X11237Y5377D01*
X11237Y5379D01*
X11235Y5384D01*
X11234Y5389D01*
X11233Y5390D01*
X11232Y5392D01*
X11230Y5396D01*
X11227Y5401D01*
X11226Y5402D01*
X11225Y5403D01*
X11221Y5408D01*
X11203Y5427D01*
X11201Y5428D01*
X11200Y5429D01*
X11196Y5432D01*
X11192Y5435D01*
X11191Y5436D01*
X11189Y5437D01*
X11184Y5438D01*
X11180Y5441D01*
X11178Y5441D01*
X11177Y5442D01*
X11172Y5442D01*
X11167Y5443D01*
X11165Y5443D01*
X11163Y5444D01*
X11158Y5443D01*
X11153Y5443D01*
X11151Y5443D01*
X11150Y5442D01*
X11145Y5441D01*
X11140Y5439D01*
X11138Y5439D01*
X11137Y5438D01*
X11133Y5436D01*
X11128Y5433D01*
X11127Y5432D01*
X11065Y5432D01*
X11063Y5432D01*
X11061Y5432D01*
X11056Y5431D01*
X11051Y5431D01*
X11050Y5430D01*
X11048Y5430D01*
X11043Y5428D01*
X11038Y5426D01*
X11037Y5425D01*
X11035Y5425D01*
X11031Y5422D01*
X11027Y5419D01*
X11026Y5417D01*
X11025Y5416D01*
X11021Y5413D01*
X11018Y5409D01*
X11017Y5407D01*
X11016Y5406D01*
X11014Y5402D01*
X11011Y5397D01*
X11011Y5396D01*
X11010Y5394D01*
X11009Y5389D01*
X11007Y5384D01*
X11007Y5383D01*
X11007Y5381D01*
X11006Y5374D01*
X11006Y5314D01*
X10748Y5314D01*
X10746Y5314D01*
X10745Y5314D01*
X10740Y5313D01*
X10735Y5313D01*
X10733Y5312D01*
X10731Y5312D01*
X10727Y5310D01*
X10722Y5308D01*
X10720Y5307D01*
X10719Y5306D01*
X10715Y5303D01*
X10711Y5301D01*
X10709Y5299D01*
X10708Y5298D01*
X10705Y5294D01*
X10701Y5291D01*
X10700Y5289D01*
X10699Y5288D01*
X10697Y5283D01*
X10695Y5279D01*
X10694Y5277D01*
X10693Y5276D01*
X10692Y5271D01*
X10691Y5266D01*
X10691Y5264D01*
X10690Y5263D01*
X10690Y5256D01*
X10690Y5177D01*
X10690Y5176D01*
X10690Y5174D01*
X10691Y5169D01*
X10691Y5164D01*
X10692Y5162D01*
X10692Y5161D01*
X10694Y5156D01*
X10696Y5151D01*
X10697Y5150D01*
X10698Y5148D01*
X10701Y5144D01*
X10703Y5140D01*
X10705Y5139D01*
X10706Y5137D01*
X10709Y5134D01*
X10713Y5130D01*
X10715Y5130D01*
X10716Y5129D01*
X10720Y5126D01*
X10725Y5124D01*
X10727Y5123D01*
X10728Y5122D01*
X10733Y5121D01*
X10738Y5120D01*
X10740Y5120D01*
X10741Y5119D01*
X10748Y5119D01*
X11006Y5119D01*
X11006Y4987D01*
X10999Y4961D01*
X10986Y4938D01*
X10984Y4936D01*
X10983Y4935D01*
X10982Y4934D01*
X10979Y4929D01*
X10976Y4925D01*
X10975Y4924D01*
X10974Y4922D01*
X10972Y4918D01*
X10970Y4913D01*
X10969Y4911D01*
X10969Y4910D01*
X10968Y4905D01*
X10967Y4900D01*
X10967Y4898D01*
X10967Y4896D01*
X10967Y4891D01*
X10967Y4886D01*
X10968Y4885D01*
X10968Y4883D01*
X10970Y4878D01*
X10971Y4873D01*
X10972Y4872D01*
X10972Y4870D01*
X10975Y4866D01*
X10977Y4861D01*
X10978Y4860D01*
X10979Y4859D01*
X10984Y4853D01*
X11024Y4813D01*
X11024Y4764D01*
X11025Y4762D01*
X11024Y4760D01*
X11025Y4755D01*
X11026Y4750D01*
X11027Y4749D01*
X11027Y4747D01*
X11029Y4742D01*
X11031Y4738D01*
X11031Y4736D01*
X11032Y4735D01*
X11035Y4731D01*
X11038Y4726D01*
X11039Y4725D01*
X11040Y4724D01*
X11044Y4721D01*
X11048Y4717D01*
X11049Y4716D01*
X11051Y4715D01*
X11055Y4713D01*
X11060Y4710D01*
X11061Y4710D01*
X11063Y4709D01*
X11068Y4708D01*
X11072Y4706D01*
X11074Y4706D01*
X11076Y4706D01*
X11083Y4705D01*
X11102Y4705D01*
X11104Y4706D01*
G37*
%LPC*%
G36*
X1456Y14191D02*
X1456Y14191D01*
X1456Y14597D01*
X1794Y14597D01*
X1794Y14278D01*
X1787Y14252D01*
X1774Y14229D01*
X1755Y14211D01*
X1732Y14197D01*
X1706Y14191D01*
X1456Y14191D01*
G37*
%LPD*%
%LPC*%
G36*
X2380Y12795D02*
X2380Y12795D01*
X2380Y13045D01*
X2386Y13070D01*
X2400Y13093D01*
X2418Y13112D01*
X2441Y13125D01*
X2467Y13132D01*
X2786Y13132D01*
X2786Y12795D01*
X2380Y12795D01*
G37*
%LPD*%
%LPC*%
G36*
X3021Y12222D02*
X3021Y12222D01*
X3021Y12560D01*
X3428Y12560D01*
X3428Y12310D01*
X3421Y12284D01*
X3407Y12261D01*
X3389Y12242D01*
X3366Y12229D01*
X3340Y12222D01*
X3021Y12222D01*
G37*
%LPD*%
%LPC*%
G36*
X2467Y12222D02*
X2467Y12222D01*
X2441Y12229D01*
X2418Y12242D01*
X2400Y12261D01*
X2386Y12284D01*
X2380Y12310D01*
X2380Y12560D01*
X2786Y12560D01*
X2786Y12222D01*
X2467Y12222D01*
G37*
%LPD*%
%LPC*%
G36*
X1928Y13160D02*
X1928Y13160D01*
X1928Y13702D01*
X1981Y13684D01*
X2033Y13658D01*
X2080Y13624D01*
X2121Y13582D01*
X2156Y13535D01*
X2182Y13483D01*
X2200Y13428D01*
X2209Y13370D01*
X2209Y13160D01*
X1928Y13160D01*
G37*
%LPD*%
%LPC*%
G36*
X9593Y934D02*
X9593Y934D01*
X9875Y934D01*
X9875Y724D01*
X9866Y667D01*
X9848Y611D01*
X9821Y559D01*
X9787Y512D01*
X9745Y471D01*
X9698Y437D01*
X9646Y410D01*
X9593Y393D01*
X9593Y934D01*
G37*
%LPD*%
%LPC*%
G36*
X1928Y12982D02*
X1928Y12982D01*
X2209Y12982D01*
X2209Y12772D01*
X2200Y12714D01*
X2182Y12659D01*
X2156Y12607D01*
X2121Y12559D01*
X2080Y12518D01*
X2033Y12484D01*
X1981Y12457D01*
X1928Y12440D01*
X1928Y12982D01*
G37*
%LPD*%
%LPC*%
G36*
X1468Y13160D02*
X1468Y13160D01*
X1468Y13370D01*
X1477Y13428D01*
X1495Y13483D01*
X1521Y13535D01*
X1556Y13582D01*
X1597Y13624D01*
X1644Y13658D01*
X1696Y13684D01*
X1749Y13702D01*
X1749Y13160D01*
X1468Y13160D01*
G37*
%LPD*%
%LPC*%
G36*
X1696Y12457D02*
X1696Y12457D01*
X1644Y12484D01*
X1597Y12518D01*
X1556Y12559D01*
X1521Y12607D01*
X1495Y12659D01*
X1477Y12714D01*
X1468Y12772D01*
X1468Y12982D01*
X1749Y12982D01*
X1749Y12440D01*
X1696Y12457D01*
G37*
%LPD*%
%LPC*%
G36*
X9362Y410D02*
X9362Y410D01*
X9310Y437D01*
X9262Y471D01*
X9221Y512D01*
X9187Y559D01*
X9160Y611D01*
X9142Y667D01*
X9133Y724D01*
X9133Y934D01*
X9415Y934D01*
X9415Y393D01*
X9362Y410D01*
G37*
%LPD*%
G36*
X11260Y7895D02*
X11260Y7895D01*
X11262Y7895D01*
X11267Y7895D01*
X11272Y7896D01*
X11273Y7897D01*
X11275Y7897D01*
X11280Y7899D01*
X11284Y7901D01*
X11286Y7902D01*
X11287Y7902D01*
X11291Y7905D01*
X11296Y7908D01*
X11297Y7909D01*
X11298Y7910D01*
X11301Y7914D01*
X11305Y7918D01*
X11306Y7919D01*
X11307Y7921D01*
X11309Y7925D01*
X11312Y7930D01*
X11312Y7931D01*
X11313Y7933D01*
X11314Y7938D01*
X11316Y7943D01*
X11316Y7944D01*
X11316Y7946D01*
X11317Y7953D01*
X11317Y7966D01*
X11316Y7967D01*
X11316Y7968D01*
X11316Y7971D01*
X11315Y7977D01*
X11315Y7978D01*
X11315Y7979D01*
X11313Y7985D01*
X11311Y7990D01*
X11311Y7991D01*
X11310Y7992D01*
X11307Y7997D01*
X11304Y8002D01*
X11303Y8003D01*
X11302Y8004D01*
X11299Y8007D01*
X11296Y8011D01*
X11295Y8013D01*
X11293Y8019D01*
X11292Y8019D01*
X11292Y8020D01*
X11289Y8025D01*
X11285Y8030D01*
X11285Y8031D01*
X11280Y8035D01*
X11276Y8040D01*
X11275Y8040D01*
X11270Y8044D01*
X11264Y8047D01*
X11263Y8047D01*
X11257Y8049D01*
X11251Y8051D01*
X11250Y8051D01*
X11244Y8051D01*
X11238Y8052D01*
X11237Y8052D01*
X11231Y8051D01*
X11224Y8050D01*
X11223Y8049D01*
X11218Y8048D01*
X11152Y8020D01*
X11053Y8020D01*
X10962Y8058D01*
X10892Y8127D01*
X10861Y8204D01*
X10860Y8205D01*
X10859Y8207D01*
X10857Y8211D01*
X10854Y8215D01*
X10853Y8217D01*
X10852Y8219D01*
X10848Y8222D01*
X10845Y8225D01*
X10843Y8227D01*
X10842Y8228D01*
X10838Y8230D01*
X10834Y8233D01*
X10832Y8234D01*
X10830Y8235D01*
X10826Y8236D01*
X10821Y8238D01*
X10819Y8238D01*
X10817Y8239D01*
X10813Y8239D01*
X10808Y8240D01*
X10806Y8239D01*
X10804Y8239D01*
X10799Y8239D01*
X10795Y8238D01*
X10793Y8237D01*
X10790Y8237D01*
X10786Y8235D01*
X10782Y8234D01*
X10780Y8233D01*
X10778Y8232D01*
X10774Y8229D01*
X10770Y8226D01*
X10769Y8225D01*
X10767Y8224D01*
X10764Y8220D01*
X10761Y8217D01*
X10760Y8215D01*
X10758Y8213D01*
X10756Y8209D01*
X10754Y8205D01*
X10753Y8203D01*
X10752Y8201D01*
X10751Y8197D01*
X10750Y8192D01*
X10750Y8190D01*
X10749Y8188D01*
X10749Y8181D01*
X10749Y7953D01*
X10749Y7951D01*
X10749Y7949D01*
X10750Y7944D01*
X10750Y7939D01*
X10751Y7938D01*
X10751Y7936D01*
X10753Y7931D01*
X10755Y7927D01*
X10756Y7925D01*
X10757Y7924D01*
X10760Y7920D01*
X10762Y7915D01*
X10764Y7914D01*
X10765Y7913D01*
X10769Y7910D01*
X10772Y7906D01*
X10774Y7905D01*
X10775Y7904D01*
X10780Y7902D01*
X10784Y7899D01*
X10786Y7899D01*
X10787Y7898D01*
X10792Y7897D01*
X10797Y7895D01*
X10799Y7895D01*
X10800Y7895D01*
X10807Y7894D01*
X11258Y7894D01*
X11260Y7895D01*
G37*
%LPC*%
G36*
X2782Y14092D02*
X2782Y14092D01*
X2756Y14099D01*
X2733Y14112D01*
X2715Y14131D01*
X2701Y14154D01*
X2695Y14180D01*
X2695Y14331D01*
X3131Y14331D01*
X3131Y14092D01*
X2782Y14092D01*
G37*
%LPD*%
%LPC*%
G36*
X11594Y5787D02*
X11594Y5787D01*
X11594Y5987D01*
X11726Y5987D01*
X11751Y5980D01*
X11774Y5967D01*
X11775Y5966D01*
X11781Y5964D01*
X11786Y5961D01*
X11787Y5961D01*
X11788Y5961D01*
X11794Y5960D01*
X11800Y5959D01*
X11801Y5959D01*
X11807Y5959D01*
X11813Y5960D01*
X11814Y5960D01*
X11815Y5960D01*
X11821Y5962D01*
X11826Y5964D01*
X11827Y5964D01*
X11828Y5964D01*
X11833Y5967D01*
X11838Y5970D01*
X11839Y5971D01*
X11844Y5976D01*
X11957Y6089D01*
X12019Y6089D01*
X12019Y5827D01*
X11872Y5827D01*
X11870Y5827D01*
X11868Y5827D01*
X11863Y5826D01*
X11858Y5826D01*
X11857Y5825D01*
X11855Y5825D01*
X11850Y5823D01*
X11846Y5821D01*
X11844Y5820D01*
X11843Y5820D01*
X11838Y5816D01*
X11834Y5814D01*
X11833Y5812D01*
X11832Y5811D01*
X11828Y5808D01*
X11825Y5804D01*
X11824Y5802D01*
X11823Y5801D01*
X11821Y5797D01*
X11818Y5792D01*
X11818Y5791D01*
X11817Y5789D01*
X11816Y5787D01*
X11594Y5787D01*
G37*
%LPD*%
G36*
X11138Y6261D02*
X11138Y6261D01*
X11142Y6261D01*
X11145Y6262D01*
X11147Y6262D01*
X11151Y6264D01*
X11155Y6265D01*
X11158Y6266D01*
X11160Y6267D01*
X11164Y6269D01*
X11167Y6271D01*
X11169Y6273D01*
X11171Y6274D01*
X11174Y6277D01*
X11177Y6280D01*
X11179Y6282D01*
X11181Y6284D01*
X11183Y6288D01*
X11185Y6291D01*
X11186Y6294D01*
X11187Y6296D01*
X11189Y6300D01*
X11190Y6304D01*
X11191Y6306D01*
X11191Y6309D01*
X11192Y6313D01*
X11192Y6317D01*
X11192Y6320D01*
X11192Y6322D01*
X11191Y6326D01*
X11191Y6331D01*
X11190Y6333D01*
X11190Y6336D01*
X11188Y6339D01*
X11187Y6343D01*
X11185Y6346D01*
X11184Y6348D01*
X11182Y6351D01*
X11180Y6355D01*
X11177Y6358D01*
X11176Y6359D01*
X11175Y6360D01*
X11105Y6431D01*
X11100Y6434D01*
X11095Y6438D01*
X11095Y6439D01*
X11094Y6439D01*
X11089Y6442D01*
X11083Y6444D01*
X11082Y6444D01*
X11082Y6445D01*
X11076Y6446D01*
X11070Y6447D01*
X11069Y6447D01*
X11068Y6448D01*
X11063Y6448D01*
X10772Y6448D01*
X10769Y6447D01*
X10765Y6447D01*
X10762Y6447D01*
X10759Y6446D01*
X10755Y6445D01*
X10752Y6444D01*
X10749Y6443D01*
X10746Y6442D01*
X10743Y6440D01*
X10740Y6438D01*
X10737Y6436D01*
X10735Y6434D01*
X10732Y6431D01*
X10729Y6429D01*
X10728Y6427D01*
X10726Y6424D01*
X10724Y6421D01*
X10722Y6418D01*
X10719Y6413D01*
X10719Y6412D01*
X10689Y6341D01*
X10688Y6335D01*
X10686Y6329D01*
X10686Y6328D01*
X10685Y6322D01*
X10685Y6316D01*
X10685Y6315D01*
X10686Y6308D01*
X10687Y6302D01*
X10687Y6301D01*
X10690Y6296D01*
X10693Y6290D01*
X10693Y6289D01*
X10697Y6284D01*
X10701Y6279D01*
X10701Y6278D01*
X10706Y6274D01*
X10711Y6270D01*
X10712Y6270D01*
X10717Y6267D01*
X10723Y6264D01*
X10724Y6264D01*
X10730Y6262D01*
X10736Y6261D01*
X10737Y6261D01*
X10738Y6261D01*
X10743Y6261D01*
X11134Y6261D01*
X11138Y6261D01*
G37*
%LPC*%
G36*
X13167Y3139D02*
X13167Y3139D01*
X13167Y3554D01*
X13406Y3554D01*
X13406Y3495D01*
X13299Y3388D01*
X13298Y3386D01*
X13297Y3385D01*
X13294Y3381D01*
X13290Y3377D01*
X13290Y3376D01*
X13289Y3374D01*
X13287Y3369D01*
X13285Y3365D01*
X13284Y3363D01*
X13284Y3362D01*
X13283Y3357D01*
X13282Y3352D01*
X13282Y3350D01*
X13282Y3348D01*
X13282Y3343D01*
X13282Y3338D01*
X13283Y3336D01*
X13283Y3335D01*
X13285Y3330D01*
X13286Y3325D01*
X13287Y3324D01*
X13287Y3322D01*
X13290Y3318D01*
X13292Y3313D01*
X13293Y3312D01*
X13294Y3310D01*
X13299Y3305D01*
X13406Y3198D01*
X13406Y3139D01*
X13167Y3139D01*
G37*
%LPD*%
%LPC*%
G36*
X12791Y3139D02*
X12791Y3139D01*
X12791Y3198D01*
X12898Y3305D01*
X12899Y3307D01*
X12900Y3308D01*
X12903Y3312D01*
X12906Y3316D01*
X12907Y3317D01*
X12908Y3319D01*
X12910Y3323D01*
X12912Y3328D01*
X12912Y3330D01*
X12913Y3331D01*
X12914Y3336D01*
X12915Y3341D01*
X12915Y3343D01*
X12915Y3345D01*
X12915Y3350D01*
X12914Y3355D01*
X12914Y3356D01*
X12914Y3358D01*
X12912Y3363D01*
X12911Y3368D01*
X12910Y3369D01*
X12910Y3371D01*
X12907Y3375D01*
X12905Y3380D01*
X12903Y3381D01*
X12903Y3383D01*
X12898Y3388D01*
X12791Y3495D01*
X12791Y3554D01*
X13030Y3554D01*
X13030Y3139D01*
X12791Y3139D01*
G37*
%LPD*%
%LPC*%
G36*
X10462Y767D02*
X10462Y767D01*
X10462Y1007D01*
X10877Y1007D01*
X10877Y767D01*
X10818Y767D01*
X10711Y874D01*
X10709Y875D01*
X10708Y877D01*
X10704Y880D01*
X10700Y883D01*
X10698Y883D01*
X10697Y884D01*
X10692Y886D01*
X10688Y888D01*
X10686Y889D01*
X10684Y889D01*
X10679Y890D01*
X10674Y891D01*
X10673Y891D01*
X10671Y891D01*
X10666Y891D01*
X10661Y891D01*
X10659Y890D01*
X10658Y890D01*
X10653Y889D01*
X10648Y887D01*
X10646Y887D01*
X10645Y886D01*
X10640Y883D01*
X10636Y881D01*
X10635Y880D01*
X10633Y879D01*
X10628Y874D01*
X10521Y767D01*
X10462Y767D01*
G37*
%LPD*%
%LPC*%
G36*
X11013Y767D02*
X11013Y767D01*
X11013Y1007D01*
X11428Y1007D01*
X11428Y767D01*
X11369Y767D01*
X11262Y874D01*
X11260Y875D01*
X11259Y877D01*
X11255Y880D01*
X11251Y883D01*
X11250Y883D01*
X11248Y884D01*
X11243Y886D01*
X11239Y888D01*
X11237Y889D01*
X11236Y889D01*
X11231Y890D01*
X11226Y891D01*
X11224Y891D01*
X11222Y891D01*
X11217Y891D01*
X11212Y891D01*
X11210Y890D01*
X11209Y890D01*
X11204Y889D01*
X11199Y887D01*
X11198Y887D01*
X11196Y886D01*
X11192Y883D01*
X11187Y881D01*
X11186Y880D01*
X11184Y879D01*
X11179Y874D01*
X11072Y767D01*
X11013Y767D01*
G37*
%LPD*%
%LPC*%
G36*
X12115Y767D02*
X12115Y767D01*
X12115Y1007D01*
X12530Y1007D01*
X12530Y767D01*
X12471Y767D01*
X12364Y874D01*
X12363Y875D01*
X12362Y877D01*
X12357Y880D01*
X12353Y883D01*
X12352Y883D01*
X12351Y884D01*
X12346Y886D01*
X12341Y888D01*
X12340Y889D01*
X12338Y889D01*
X12333Y890D01*
X12328Y891D01*
X12326Y891D01*
X12325Y891D01*
X12320Y891D01*
X12314Y891D01*
X12313Y890D01*
X12311Y890D01*
X12306Y889D01*
X12301Y887D01*
X12300Y887D01*
X12298Y886D01*
X12294Y883D01*
X12289Y881D01*
X12288Y880D01*
X12287Y879D01*
X12282Y874D01*
X12175Y767D01*
X12115Y767D01*
G37*
%LPD*%
%LPC*%
G36*
X12667Y767D02*
X12667Y767D01*
X12667Y1007D01*
X13081Y1007D01*
X13081Y767D01*
X13022Y767D01*
X12915Y874D01*
X12914Y875D01*
X12913Y877D01*
X12909Y880D01*
X12905Y883D01*
X12903Y883D01*
X12902Y884D01*
X12897Y886D01*
X12892Y888D01*
X12891Y889D01*
X12889Y889D01*
X12884Y890D01*
X12879Y891D01*
X12877Y891D01*
X12876Y891D01*
X12871Y891D01*
X12866Y891D01*
X12864Y890D01*
X12862Y890D01*
X12857Y889D01*
X12853Y887D01*
X12851Y887D01*
X12849Y886D01*
X12845Y883D01*
X12841Y881D01*
X12839Y880D01*
X12838Y879D01*
X12833Y874D01*
X12726Y767D01*
X12667Y767D01*
G37*
%LPD*%
%LPC*%
G36*
X11564Y767D02*
X11564Y767D01*
X11564Y1007D01*
X11979Y1007D01*
X11979Y767D01*
X11920Y767D01*
X11813Y874D01*
X11812Y875D01*
X11810Y877D01*
X11806Y880D01*
X11802Y883D01*
X11801Y883D01*
X11799Y884D01*
X11795Y886D01*
X11790Y888D01*
X11788Y889D01*
X11787Y889D01*
X11782Y890D01*
X11777Y891D01*
X11775Y891D01*
X11773Y891D01*
X11768Y891D01*
X11763Y891D01*
X11762Y890D01*
X11760Y890D01*
X11755Y889D01*
X11750Y887D01*
X11749Y887D01*
X11747Y886D01*
X11743Y883D01*
X11738Y881D01*
X11737Y880D01*
X11736Y879D01*
X11730Y874D01*
X11623Y767D01*
X11564Y767D01*
G37*
%LPD*%
%LPC*%
G36*
X10462Y1143D02*
X10462Y1143D01*
X10462Y1382D01*
X10521Y1382D01*
X10628Y1275D01*
X10629Y1274D01*
X10630Y1273D01*
X10634Y1270D01*
X10637Y1268D01*
X10639Y1267D01*
X10640Y1266D01*
X10642Y1265D01*
X10646Y1263D01*
X10651Y1261D01*
X10653Y1261D01*
X10654Y1260D01*
X10659Y1259D01*
X10664Y1258D01*
X10666Y1258D01*
X10668Y1258D01*
X10673Y1259D01*
X10678Y1259D01*
X10679Y1259D01*
X10681Y1259D01*
X10686Y1261D01*
X10691Y1262D01*
X10692Y1263D01*
X10694Y1264D01*
X10696Y1265D01*
X10697Y1266D01*
X10698Y1266D01*
X10703Y1269D01*
X10704Y1270D01*
X10705Y1271D01*
X10707Y1272D01*
X10708Y1273D01*
X10711Y1275D01*
X10818Y1382D01*
X10877Y1382D01*
X10877Y1143D01*
X10462Y1143D01*
G37*
%LPD*%
%LPC*%
G36*
X11564Y1143D02*
X11564Y1143D01*
X11564Y1382D01*
X11623Y1382D01*
X11730Y1275D01*
X11732Y1274D01*
X11733Y1273D01*
X11737Y1270D01*
X11739Y1268D01*
X11740Y1268D01*
X11741Y1267D01*
X11743Y1266D01*
X11744Y1265D01*
X11749Y1263D01*
X11753Y1261D01*
X11755Y1261D01*
X11756Y1260D01*
X11762Y1259D01*
X11767Y1258D01*
X11768Y1258D01*
X11770Y1258D01*
X11775Y1259D01*
X11780Y1259D01*
X11782Y1259D01*
X11783Y1259D01*
X11788Y1261D01*
X11793Y1262D01*
X11795Y1263D01*
X11796Y1264D01*
X11798Y1265D01*
X11800Y1266D01*
X11801Y1266D01*
X11805Y1269D01*
X11806Y1270D01*
X11808Y1271D01*
X11809Y1272D01*
X11810Y1273D01*
X11813Y1275D01*
X11920Y1382D01*
X11979Y1382D01*
X11979Y1143D01*
X11564Y1143D01*
G37*
%LPD*%
%LPC*%
G36*
X11013Y1143D02*
X11013Y1143D01*
X11013Y1382D01*
X11072Y1382D01*
X11179Y1275D01*
X11181Y1274D01*
X11182Y1273D01*
X11186Y1270D01*
X11188Y1268D01*
X11190Y1267D01*
X11191Y1266D01*
X11193Y1265D01*
X11197Y1263D01*
X11202Y1261D01*
X11204Y1261D01*
X11205Y1260D01*
X11210Y1259D01*
X11215Y1258D01*
X11217Y1258D01*
X11219Y1258D01*
X11224Y1259D01*
X11229Y1259D01*
X11230Y1259D01*
X11232Y1259D01*
X11237Y1261D01*
X11242Y1262D01*
X11243Y1263D01*
X11245Y1264D01*
X11247Y1265D01*
X11248Y1266D01*
X11249Y1266D01*
X11254Y1269D01*
X11255Y1270D01*
X11257Y1271D01*
X11258Y1272D01*
X11259Y1273D01*
X11262Y1275D01*
X11369Y1382D01*
X11428Y1382D01*
X11428Y1143D01*
X11013Y1143D01*
G37*
%LPD*%
%LPC*%
G36*
X12115Y1143D02*
X12115Y1143D01*
X12115Y1382D01*
X12175Y1382D01*
X12282Y1275D01*
X12283Y1274D01*
X12284Y1273D01*
X12288Y1270D01*
X12290Y1268D01*
X12291Y1268D01*
X12292Y1267D01*
X12294Y1266D01*
X12295Y1265D01*
X12300Y1263D01*
X12304Y1261D01*
X12306Y1261D01*
X12308Y1260D01*
X12313Y1259D01*
X12318Y1258D01*
X12319Y1258D01*
X12321Y1258D01*
X12326Y1259D01*
X12331Y1259D01*
X12333Y1259D01*
X12335Y1259D01*
X12339Y1261D01*
X12344Y1262D01*
X12346Y1263D01*
X12347Y1264D01*
X12349Y1265D01*
X12351Y1266D01*
X12352Y1266D01*
X12356Y1269D01*
X12357Y1270D01*
X12359Y1271D01*
X12360Y1272D01*
X12361Y1272D01*
X12361Y1273D01*
X12364Y1275D01*
X12471Y1382D01*
X12530Y1382D01*
X12530Y1143D01*
X12115Y1143D01*
G37*
%LPD*%
%LPC*%
G36*
X12667Y1143D02*
X12667Y1143D01*
X12667Y1382D01*
X12726Y1382D01*
X12833Y1275D01*
X12834Y1274D01*
X12835Y1273D01*
X12839Y1270D01*
X12842Y1268D01*
X12843Y1267D01*
X12845Y1266D01*
X12846Y1265D01*
X12851Y1263D01*
X12856Y1261D01*
X12857Y1261D01*
X12859Y1260D01*
X12864Y1259D01*
X12869Y1258D01*
X12871Y1258D01*
X12872Y1258D01*
X12877Y1259D01*
X12882Y1259D01*
X12884Y1259D01*
X12886Y1259D01*
X12891Y1261D01*
X12895Y1262D01*
X12897Y1263D01*
X12899Y1264D01*
X12900Y1265D01*
X12901Y1265D01*
X12902Y1266D01*
X12903Y1266D01*
X12907Y1269D01*
X12909Y1270D01*
X12910Y1271D01*
X12912Y1272D01*
X12912Y1273D01*
X12915Y1275D01*
X13022Y1382D01*
X13081Y1382D01*
X13081Y1143D01*
X12667Y1143D01*
G37*
%LPD*%
%LPC*%
G36*
X8623Y1997D02*
X8623Y1997D01*
X8623Y2353D01*
X8863Y2353D01*
X8863Y2294D01*
X8785Y2216D01*
X8784Y2215D01*
X8783Y2214D01*
X8780Y2210D01*
X8777Y2206D01*
X8776Y2204D01*
X8775Y2203D01*
X8773Y2198D01*
X8771Y2194D01*
X8771Y2192D01*
X8770Y2190D01*
X8769Y2185D01*
X8768Y2180D01*
X8768Y2179D01*
X8768Y2177D01*
X8768Y2172D01*
X8769Y2167D01*
X8769Y2165D01*
X8769Y2164D01*
X8771Y2159D01*
X8772Y2154D01*
X8773Y2152D01*
X8773Y2151D01*
X8776Y2146D01*
X8779Y2142D01*
X8780Y2141D01*
X8780Y2139D01*
X8785Y2134D01*
X8863Y2056D01*
X8863Y1997D01*
X8623Y1997D01*
G37*
%LPD*%
G36*
X4943Y8170D02*
X4943Y8170D01*
X4944Y8170D01*
X4949Y8171D01*
X4954Y8172D01*
X4956Y8172D01*
X4958Y8172D01*
X4962Y8174D01*
X4967Y8176D01*
X4968Y8177D01*
X4970Y8178D01*
X4974Y8181D01*
X4978Y8184D01*
X4980Y8185D01*
X4981Y8186D01*
X4984Y8190D01*
X4988Y8193D01*
X4989Y8195D01*
X4990Y8196D01*
X4992Y8201D01*
X4994Y8205D01*
X4995Y8207D01*
X4996Y8208D01*
X4997Y8213D01*
X4998Y8218D01*
X4998Y8220D01*
X4999Y8221D01*
X4999Y8228D01*
X4999Y8307D01*
X4999Y8309D01*
X4999Y8310D01*
X4998Y8315D01*
X4998Y8321D01*
X4997Y8322D01*
X4997Y8324D01*
X4995Y8328D01*
X4993Y8333D01*
X4992Y8335D01*
X4991Y8336D01*
X4988Y8340D01*
X4986Y8345D01*
X4984Y8346D01*
X4983Y8347D01*
X4980Y8350D01*
X4976Y8354D01*
X4974Y8355D01*
X4973Y8356D01*
X4968Y8358D01*
X4964Y8361D01*
X4962Y8361D01*
X4961Y8362D01*
X4956Y8363D01*
X4951Y8364D01*
X4949Y8365D01*
X4948Y8365D01*
X4941Y8365D01*
X4705Y8365D01*
X4703Y8365D01*
X4701Y8365D01*
X4696Y8364D01*
X4691Y8364D01*
X4690Y8363D01*
X4688Y8363D01*
X4683Y8361D01*
X4679Y8359D01*
X4677Y8358D01*
X4676Y8358D01*
X4672Y8355D01*
X4667Y8352D01*
X4666Y8351D01*
X4665Y8350D01*
X4661Y8346D01*
X4658Y8342D01*
X4657Y8340D01*
X4656Y8339D01*
X4654Y8335D01*
X4651Y8330D01*
X4651Y8329D01*
X4650Y8327D01*
X4649Y8322D01*
X4647Y8317D01*
X4647Y8316D01*
X4647Y8314D01*
X4646Y8307D01*
X4646Y8228D01*
X4647Y8227D01*
X4647Y8225D01*
X4647Y8220D01*
X4648Y8215D01*
X4649Y8213D01*
X4649Y8212D01*
X4651Y8207D01*
X4653Y8202D01*
X4654Y8201D01*
X4654Y8199D01*
X4657Y8195D01*
X4660Y8191D01*
X4661Y8190D01*
X4662Y8188D01*
X4666Y8185D01*
X4670Y8182D01*
X4671Y8181D01*
X4673Y8180D01*
X4677Y8177D01*
X4682Y8175D01*
X4683Y8174D01*
X4685Y8174D01*
X4690Y8172D01*
X4695Y8171D01*
X4696Y8171D01*
X4698Y8170D01*
X4705Y8170D01*
X4941Y8170D01*
X4943Y8170D01*
G37*
G36*
X10581Y11281D02*
X10581Y11281D01*
X10587Y11281D01*
X10588Y11282D01*
X10589Y11282D01*
X10594Y11284D01*
X10600Y11286D01*
X10601Y11286D01*
X10606Y11290D01*
X10611Y11293D01*
X10612Y11294D01*
X10613Y11294D01*
X10613Y11295D01*
X10616Y11297D01*
X10623Y11304D01*
X10626Y11307D01*
X10629Y11310D01*
X10629Y11312D01*
X10631Y11313D01*
X10631Y11314D01*
X10632Y11315D01*
X10634Y11319D01*
X10635Y11322D01*
X10636Y11323D01*
X10637Y11325D01*
X10637Y11326D01*
X10637Y11327D01*
X10638Y11332D01*
X10639Y11335D01*
X10639Y11336D01*
X10640Y11338D01*
X10640Y11340D01*
X10640Y11341D01*
X10640Y11345D01*
X10640Y11494D01*
X10640Y11496D01*
X10640Y11498D01*
X10639Y11503D01*
X10639Y11508D01*
X10638Y11509D01*
X10638Y11511D01*
X10636Y11516D01*
X10634Y11521D01*
X10633Y11522D01*
X10633Y11524D01*
X10629Y11528D01*
X10627Y11532D01*
X10625Y11533D01*
X10624Y11534D01*
X10621Y11538D01*
X10617Y11541D01*
X10615Y11542D01*
X10614Y11543D01*
X10610Y11545D01*
X10605Y11548D01*
X10604Y11548D01*
X10602Y11549D01*
X10597Y11550D01*
X10592Y11552D01*
X10590Y11552D01*
X10589Y11552D01*
X10582Y11553D01*
X10578Y11553D01*
X10572Y11552D01*
X10566Y11552D01*
X10565Y11551D01*
X10564Y11551D01*
X10559Y11549D01*
X10553Y11547D01*
X10552Y11547D01*
X10547Y11543D01*
X10542Y11540D01*
X10541Y11539D01*
X10540Y11539D01*
X10536Y11536D01*
X10535Y11535D01*
X10463Y11535D01*
X10462Y11534D01*
X10460Y11535D01*
X10455Y11534D01*
X10450Y11533D01*
X10448Y11533D01*
X10447Y11532D01*
X10442Y11530D01*
X10437Y11528D01*
X10436Y11528D01*
X10434Y11527D01*
X10430Y11524D01*
X10426Y11521D01*
X10425Y11520D01*
X10423Y11519D01*
X10420Y11515D01*
X10417Y11511D01*
X10416Y11510D01*
X10415Y11509D01*
X10412Y11504D01*
X10410Y11500D01*
X10409Y11498D01*
X10409Y11496D01*
X10407Y11491D01*
X10406Y11487D01*
X10406Y11485D01*
X10405Y11483D01*
X10405Y11476D01*
X10405Y11368D01*
X10402Y11361D01*
X10400Y11355D01*
X10399Y11349D01*
X10399Y11348D01*
X10398Y11348D01*
X10398Y11342D01*
X10398Y11335D01*
X10398Y11334D01*
X10399Y11328D01*
X10400Y11322D01*
X10400Y11321D01*
X10403Y11315D01*
X10405Y11310D01*
X10406Y11309D01*
X10410Y11304D01*
X10413Y11299D01*
X10414Y11298D01*
X10419Y11294D01*
X10424Y11290D01*
X10425Y11289D01*
X10430Y11287D01*
X10436Y11284D01*
X10437Y11284D01*
X10443Y11282D01*
X10449Y11281D01*
X10450Y11281D01*
X10451Y11281D01*
X10456Y11280D01*
X10575Y11280D01*
X10581Y11281D01*
G37*
%LPC*%
G36*
X7381Y17699D02*
X7381Y17699D01*
X7381Y17981D01*
X7445Y17981D01*
X7662Y17764D01*
X7662Y17699D01*
X7381Y17699D01*
G37*
%LPD*%
%LPC*%
G36*
X6921Y17699D02*
X6921Y17699D01*
X6921Y17764D01*
X7138Y17981D01*
X7202Y17981D01*
X7202Y17699D01*
X6921Y17699D01*
G37*
%LPD*%
%LPC*%
G36*
X10921Y17699D02*
X10921Y17699D01*
X10921Y17764D01*
X11138Y17981D01*
X11202Y17981D01*
X11202Y17699D01*
X10921Y17699D01*
G37*
%LPD*%
%LPC*%
G36*
X7381Y17239D02*
X7381Y17239D01*
X7381Y17521D01*
X7662Y17521D01*
X7662Y17457D01*
X7445Y17239D01*
X7381Y17239D01*
G37*
%LPD*%
%LPC*%
G36*
X7138Y17239D02*
X7138Y17239D01*
X6921Y17457D01*
X6921Y17521D01*
X7202Y17521D01*
X7202Y17239D01*
X7138Y17239D01*
G37*
%LPD*%
%LPC*%
G36*
X11138Y17239D02*
X11138Y17239D01*
X10921Y17457D01*
X10921Y17521D01*
X11202Y17521D01*
X11202Y17239D01*
X11138Y17239D01*
G37*
%LPD*%
%LPC*%
G36*
X12178Y5827D02*
X12178Y5827D01*
X12178Y6089D01*
X12240Y6089D01*
X12439Y5889D01*
X12439Y5827D01*
X12178Y5827D01*
G37*
%LPD*%
%LPC*%
G36*
X12178Y5407D02*
X12178Y5407D01*
X12178Y5669D01*
X12439Y5669D01*
X12439Y5607D01*
X12240Y5407D01*
X12178Y5407D01*
G37*
%LPD*%
G36*
X11093Y9824D02*
X11093Y9824D01*
X11099Y9825D01*
X11100Y9825D01*
X11101Y9825D01*
X11106Y9827D01*
X11112Y9829D01*
X11113Y9829D01*
X11114Y9830D01*
X11119Y9833D01*
X11124Y9836D01*
X11124Y9837D01*
X11125Y9837D01*
X11126Y9838D01*
X11129Y9841D01*
X11164Y9876D01*
X11165Y9877D01*
X11166Y9878D01*
X11169Y9883D01*
X11172Y9887D01*
X11173Y9888D01*
X11174Y9889D01*
X11176Y9894D01*
X11178Y9899D01*
X11178Y9900D01*
X11179Y9902D01*
X11180Y9907D01*
X11181Y9912D01*
X11181Y9914D01*
X11181Y9915D01*
X11181Y9920D01*
X11180Y9926D01*
X11180Y9927D01*
X11180Y9929D01*
X11178Y9934D01*
X11177Y9939D01*
X11176Y9940D01*
X11176Y9942D01*
X11173Y9946D01*
X11171Y9951D01*
X11169Y9952D01*
X11169Y9953D01*
X11164Y9958D01*
X11161Y9962D01*
X11156Y9965D01*
X11152Y9969D01*
X11151Y9969D01*
X11150Y9970D01*
X11145Y9972D01*
X11140Y9975D01*
X11139Y9975D01*
X11138Y9976D01*
X11132Y9977D01*
X11127Y9978D01*
X11125Y9978D01*
X11124Y9978D01*
X11120Y9979D01*
X10886Y9979D01*
X10882Y9978D01*
X10878Y9978D01*
X10875Y9977D01*
X10873Y9977D01*
X10869Y9976D01*
X10865Y9975D01*
X10862Y9973D01*
X10860Y9972D01*
X10857Y9970D01*
X10853Y9968D01*
X10851Y9966D01*
X10849Y9965D01*
X10846Y9962D01*
X10843Y9959D01*
X10841Y9957D01*
X10839Y9955D01*
X10837Y9952D01*
X10835Y9948D01*
X10834Y9946D01*
X10833Y9943D01*
X10831Y9939D01*
X10830Y9935D01*
X10830Y9933D01*
X10829Y9930D01*
X10829Y9926D01*
X10828Y9922D01*
X10828Y9920D01*
X10828Y9917D01*
X10829Y9913D01*
X10829Y9909D01*
X10830Y9906D01*
X10830Y9904D01*
X10832Y9900D01*
X10833Y9896D01*
X10835Y9894D01*
X10836Y9891D01*
X10838Y9888D01*
X10840Y9884D01*
X10843Y9881D01*
X10844Y9880D01*
X10845Y9879D01*
X10883Y9841D01*
X10888Y9837D01*
X10892Y9833D01*
X10893Y9833D01*
X10894Y9832D01*
X10899Y9830D01*
X10905Y9827D01*
X10906Y9827D01*
X10912Y9825D01*
X10918Y9824D01*
X10919Y9824D01*
X10920Y9824D01*
X10925Y9824D01*
X11087Y9824D01*
X11093Y9824D01*
G37*
G36*
X6813Y5198D02*
X6813Y5198D01*
X6814Y5198D01*
X6819Y5199D01*
X6824Y5199D01*
X6826Y5200D01*
X6828Y5200D01*
X6832Y5202D01*
X6837Y5204D01*
X6839Y5205D01*
X6840Y5205D01*
X6844Y5208D01*
X6848Y5211D01*
X6850Y5212D01*
X6851Y5213D01*
X6854Y5217D01*
X6858Y5221D01*
X6859Y5223D01*
X6860Y5224D01*
X6862Y5228D01*
X6865Y5233D01*
X6865Y5234D01*
X6866Y5236D01*
X6867Y5241D01*
X6868Y5246D01*
X6869Y5247D01*
X6869Y5249D01*
X6869Y5256D01*
X6869Y5374D01*
X6869Y5376D01*
X6869Y5377D01*
X6868Y5382D01*
X6868Y5387D01*
X6867Y5389D01*
X6867Y5391D01*
X6865Y5395D01*
X6863Y5400D01*
X6862Y5402D01*
X6862Y5403D01*
X6859Y5407D01*
X6856Y5411D01*
X6854Y5413D01*
X6853Y5414D01*
X6850Y5417D01*
X6846Y5421D01*
X6844Y5422D01*
X6843Y5423D01*
X6839Y5425D01*
X6834Y5428D01*
X6833Y5428D01*
X6831Y5429D01*
X6826Y5430D01*
X6821Y5431D01*
X6820Y5432D01*
X6818Y5432D01*
X6811Y5432D01*
X6787Y5432D01*
X6786Y5433D01*
X6782Y5437D01*
X6777Y5441D01*
X6776Y5441D01*
X6776Y5442D01*
X6770Y5444D01*
X6765Y5447D01*
X6764Y5447D01*
X6763Y5447D01*
X6758Y5449D01*
X6752Y5450D01*
X6751Y5450D01*
X6750Y5450D01*
X6749Y5450D01*
X6745Y5450D01*
X6732Y5450D01*
X6731Y5450D01*
X6729Y5450D01*
X6724Y5449D01*
X6719Y5449D01*
X6717Y5448D01*
X6716Y5448D01*
X6711Y5446D01*
X6706Y5444D01*
X6705Y5443D01*
X6703Y5443D01*
X6699Y5440D01*
X6695Y5437D01*
X6694Y5436D01*
X6692Y5435D01*
X6689Y5431D01*
X6686Y5427D01*
X6685Y5426D01*
X6684Y5424D01*
X6681Y5420D01*
X6679Y5415D01*
X6678Y5414D01*
X6678Y5412D01*
X6676Y5407D01*
X6675Y5402D01*
X6675Y5401D01*
X6674Y5399D01*
X6674Y5392D01*
X6674Y5256D01*
X6674Y5254D01*
X6674Y5253D01*
X6675Y5248D01*
X6676Y5242D01*
X6676Y5241D01*
X6676Y5239D01*
X6678Y5235D01*
X6680Y5230D01*
X6681Y5228D01*
X6682Y5227D01*
X6685Y5223D01*
X6688Y5218D01*
X6689Y5217D01*
X6690Y5216D01*
X6694Y5213D01*
X6697Y5209D01*
X6699Y5208D01*
X6700Y5207D01*
X6705Y5205D01*
X6709Y5202D01*
X6711Y5202D01*
X6712Y5201D01*
X6717Y5200D01*
X6722Y5199D01*
X6724Y5198D01*
X6725Y5198D01*
X6732Y5198D01*
X6811Y5198D01*
X6813Y5198D01*
G37*
G36*
X12305Y9981D02*
X12305Y9981D01*
X12306Y9981D01*
X12311Y9982D01*
X12317Y9983D01*
X12318Y9983D01*
X12320Y9983D01*
X12324Y9986D01*
X12329Y9987D01*
X12331Y9988D01*
X12332Y9989D01*
X12336Y9992D01*
X12341Y9995D01*
X12342Y9996D01*
X12343Y9997D01*
X12346Y10001D01*
X12350Y10005D01*
X12351Y10006D01*
X12352Y10007D01*
X12354Y10012D01*
X12357Y10016D01*
X12357Y10018D01*
X12358Y10019D01*
X12359Y10024D01*
X12361Y10029D01*
X12361Y10031D01*
X12361Y10032D01*
X12361Y10039D01*
X12361Y10118D01*
X12361Y10120D01*
X12361Y10121D01*
X12360Y10126D01*
X12360Y10132D01*
X12359Y10133D01*
X12359Y10135D01*
X12357Y10139D01*
X12355Y10144D01*
X12354Y10146D01*
X12354Y10147D01*
X12351Y10151D01*
X12348Y10156D01*
X12347Y10157D01*
X12346Y10158D01*
X12342Y10161D01*
X12338Y10165D01*
X12337Y10166D01*
X12335Y10167D01*
X12331Y10169D01*
X12326Y10172D01*
X12325Y10172D01*
X12323Y10173D01*
X12318Y10174D01*
X12313Y10176D01*
X12312Y10176D01*
X12310Y10176D01*
X12303Y10176D01*
X12185Y10176D01*
X12183Y10176D01*
X12182Y10176D01*
X12177Y10175D01*
X12172Y10175D01*
X12170Y10174D01*
X12168Y10174D01*
X12164Y10172D01*
X12159Y10170D01*
X12157Y10169D01*
X12156Y10169D01*
X12152Y10166D01*
X12148Y10163D01*
X12146Y10162D01*
X12145Y10161D01*
X12142Y10157D01*
X12138Y10153D01*
X12137Y10152D01*
X12136Y10150D01*
X12134Y10146D01*
X12132Y10141D01*
X12131Y10140D01*
X12130Y10138D01*
X12129Y10133D01*
X12128Y10128D01*
X12128Y10127D01*
X12127Y10125D01*
X12127Y10118D01*
X12127Y10039D01*
X12127Y10038D01*
X12127Y10036D01*
X12128Y10031D01*
X12128Y10026D01*
X12129Y10024D01*
X12129Y10023D01*
X12131Y10018D01*
X12133Y10013D01*
X12134Y10012D01*
X12135Y10010D01*
X12138Y10006D01*
X12140Y10002D01*
X12142Y10001D01*
X12143Y9999D01*
X12146Y9996D01*
X12150Y9993D01*
X12152Y9992D01*
X12153Y9991D01*
X12157Y9988D01*
X12162Y9986D01*
X12164Y9985D01*
X12165Y9985D01*
X12170Y9983D01*
X12175Y9982D01*
X12177Y9982D01*
X12178Y9981D01*
X12185Y9981D01*
X12303Y9981D01*
X12305Y9981D01*
G37*
%LPC*%
G36*
X3128Y13641D02*
X3128Y13641D01*
X3128Y13753D01*
X3134Y13779D01*
X3148Y13802D01*
X3166Y13821D01*
X3189Y13834D01*
X3215Y13841D01*
X3347Y13841D01*
X3347Y13641D01*
X3128Y13641D01*
G37*
%LPD*%
%LPC*%
G36*
X13167Y3690D02*
X13167Y3690D01*
X13167Y3929D01*
X13226Y3929D01*
X13406Y3749D01*
X13406Y3690D01*
X13167Y3690D01*
G37*
%LPD*%
%LPC*%
G36*
X10086Y1143D02*
X10086Y1143D01*
X10086Y1202D01*
X10266Y1382D01*
X10326Y1382D01*
X10326Y1143D01*
X10086Y1143D01*
G37*
%LPD*%
%LPC*%
G36*
X12791Y3690D02*
X12791Y3690D01*
X12791Y3749D01*
X12971Y3929D01*
X13030Y3929D01*
X13030Y3690D01*
X12791Y3690D01*
G37*
%LPD*%
%LPC*%
G36*
X10266Y767D02*
X10266Y767D01*
X10086Y947D01*
X10086Y1007D01*
X10326Y1007D01*
X10326Y767D01*
X10266Y767D01*
G37*
%LPD*%
G36*
X8600Y11314D02*
X8600Y11314D01*
X8605Y11314D01*
X8607Y11314D01*
X8608Y11314D01*
X8613Y11316D01*
X8618Y11317D01*
X8620Y11318D01*
X8621Y11319D01*
X8625Y11321D01*
X8630Y11324D01*
X8631Y11325D01*
X8633Y11326D01*
X8638Y11330D01*
X8663Y11356D01*
X8667Y11360D01*
X8671Y11365D01*
X8671Y11366D01*
X8672Y11366D01*
X8674Y11372D01*
X8677Y11377D01*
X8677Y11378D01*
X8677Y11379D01*
X8679Y11384D01*
X8680Y11390D01*
X8680Y11391D01*
X8680Y11392D01*
X8680Y11393D01*
X8680Y11397D01*
X8680Y11465D01*
X8680Y11470D01*
X8680Y11474D01*
X8679Y11476D01*
X8679Y11479D01*
X8677Y11483D01*
X8676Y11487D01*
X8675Y11489D01*
X8674Y11492D01*
X8672Y11495D01*
X8670Y11499D01*
X8668Y11501D01*
X8667Y11503D01*
X8664Y11506D01*
X8661Y11509D01*
X8659Y11510D01*
X8657Y11512D01*
X8653Y11514D01*
X8650Y11517D01*
X8647Y11518D01*
X8645Y11519D01*
X8641Y11520D01*
X8637Y11522D01*
X8635Y11522D01*
X8632Y11523D01*
X8628Y11523D01*
X8624Y11524D01*
X8621Y11523D01*
X8619Y11524D01*
X8615Y11523D01*
X8610Y11523D01*
X8608Y11522D01*
X8605Y11521D01*
X8602Y11520D01*
X8598Y11518D01*
X8595Y11517D01*
X8593Y11516D01*
X8590Y11513D01*
X8586Y11511D01*
X8583Y11508D01*
X8582Y11508D01*
X8582Y11507D01*
X8581Y11507D01*
X8522Y11448D01*
X8521Y11447D01*
X8520Y11446D01*
X8519Y11445D01*
X8516Y11440D01*
X8513Y11436D01*
X8512Y11435D01*
X8511Y11434D01*
X8509Y11429D01*
X8507Y11424D01*
X8507Y11423D01*
X8506Y11421D01*
X8505Y11416D01*
X8504Y11411D01*
X8504Y11409D01*
X8504Y11408D01*
X8505Y11403D01*
X8505Y11397D01*
X8505Y11396D01*
X8505Y11394D01*
X8507Y11389D01*
X8508Y11384D01*
X8509Y11383D01*
X8510Y11381D01*
X8512Y11377D01*
X8515Y11372D01*
X8516Y11371D01*
X8517Y11370D01*
X8521Y11365D01*
X8555Y11330D01*
X8557Y11329D01*
X8558Y11328D01*
X8562Y11325D01*
X8566Y11322D01*
X8567Y11321D01*
X8569Y11320D01*
X8574Y11318D01*
X8578Y11316D01*
X8580Y11316D01*
X8581Y11315D01*
X8586Y11315D01*
X8591Y11314D01*
X8593Y11314D01*
X8595Y11313D01*
X8600Y11314D01*
G37*
%LPC*%
G36*
X2903Y12676D02*
X2903Y12676D01*
X2903Y12678D01*
X2904Y12678D01*
X2904Y12676D01*
X2903Y12676D01*
G37*
%LPD*%
D10*
X8583Y13248D03*
X8583Y12579D03*
X6614Y13248D03*
X6614Y12579D03*
X10551Y13248D03*
X10551Y12579D03*
D11*
X13012Y10079D03*
X12343Y10079D03*
X13012Y8071D03*
X12343Y8071D03*
D10*
X10709Y4547D03*
X10709Y5217D03*
X8740Y4547D03*
X8740Y5217D03*
X6772Y4547D03*
X6772Y5217D03*
D11*
X4311Y8268D03*
X4980Y8268D03*
X4311Y9764D03*
X4980Y9764D03*
D12*
X4035Y8976D03*
X4783Y8976D03*
D13*
X14016Y13701D03*
X14724Y13701D03*
D14*
X15433Y13701D03*
D15*
X6299Y5846D03*
X6496Y5846D03*
X6693Y5846D03*
X6890Y5846D03*
X7087Y5846D03*
X7283Y5846D03*
X7480Y5846D03*
X7677Y5846D03*
X7874Y5846D03*
X8071Y5846D03*
X8268Y5846D03*
X8465Y5846D03*
X8661Y5846D03*
X8858Y5846D03*
X9055Y5846D03*
X9252Y5846D03*
X9449Y5846D03*
X9646Y5846D03*
X9843Y5846D03*
X10039Y5846D03*
X10236Y5846D03*
X10433Y5846D03*
X10630Y5846D03*
X10827Y5846D03*
X11024Y5846D03*
X6299Y11949D03*
X6496Y11949D03*
X6693Y11949D03*
X6890Y11949D03*
X7087Y11949D03*
X7283Y11949D03*
X7480Y11949D03*
X7677Y11949D03*
X7874Y11949D03*
X8071Y11949D03*
X8268Y11949D03*
X8465Y11949D03*
X8661Y11949D03*
X8858Y11949D03*
X9055Y11949D03*
X9252Y11949D03*
X9449Y11949D03*
X9646Y11949D03*
X9843Y11949D03*
X10039Y11949D03*
X10236Y11949D03*
X10433Y11949D03*
X10630Y11949D03*
X10827Y11949D03*
X11024Y11949D03*
D16*
X11713Y11260D03*
X11713Y11063D03*
X11713Y10866D03*
X11713Y10669D03*
X11713Y10472D03*
X11713Y10276D03*
X11713Y10079D03*
X11713Y9882D03*
X11713Y9685D03*
X11713Y9488D03*
X11713Y9291D03*
X11713Y9094D03*
X11713Y8898D03*
X11713Y8701D03*
X11713Y8504D03*
X11713Y8307D03*
X11713Y8110D03*
X11713Y7913D03*
X11713Y7717D03*
X11713Y7520D03*
X11713Y7323D03*
X11713Y7126D03*
X11713Y6929D03*
X11713Y6732D03*
X11713Y6535D03*
X5610Y6535D03*
X5610Y6732D03*
X5610Y6929D03*
X5610Y7126D03*
X5610Y7323D03*
X5610Y7520D03*
X5610Y7717D03*
X5610Y7913D03*
X5610Y8110D03*
X5610Y8307D03*
X5610Y8504D03*
X5610Y8701D03*
X5610Y8898D03*
X5610Y9094D03*
X5610Y9291D03*
X5610Y9488D03*
X5610Y9685D03*
X5610Y9882D03*
X5610Y10079D03*
X5610Y10276D03*
X5610Y10472D03*
X5610Y10669D03*
X5610Y10866D03*
X5610Y11063D03*
X5610Y11260D03*
D17*
X11291Y18610D03*
X11291Y17610D03*
X10291Y18610D03*
X10291Y17610D03*
X9291Y18610D03*
X9291Y17610D03*
X8291Y18610D03*
X8291Y17610D03*
X7291Y18610D03*
X7291Y17610D03*
D13*
X11575Y12992D03*
X12283Y12992D03*
D14*
X12992Y12992D03*
D11*
X9921Y13248D03*
X9921Y12579D03*
X9291Y12579D03*
X9291Y13248D03*
D13*
X14016Y12894D03*
X14724Y12894D03*
D14*
X15433Y12894D03*
D13*
X14016Y12067D03*
X14724Y12067D03*
D14*
X15433Y12067D03*
D10*
X12303Y12126D03*
X11634Y12126D03*
D13*
X14016Y11240D03*
X14724Y11240D03*
D14*
X15433Y11240D03*
D10*
X13091Y10709D03*
X12421Y10709D03*
X12421Y11339D03*
X13091Y11339D03*
D13*
X14016Y10413D03*
X14724Y10413D03*
D14*
X15433Y10413D03*
D13*
X14016Y9587D03*
X14724Y9587D03*
D14*
X15433Y9587D03*
D13*
X14016Y8760D03*
X14724Y8760D03*
D14*
X15433Y8760D03*
D11*
X13307Y8720D03*
X13307Y9390D03*
X12441Y9311D03*
X12441Y8642D03*
D13*
X14016Y7933D03*
X14724Y7933D03*
D14*
X15433Y7933D03*
D13*
X14016Y7106D03*
X14724Y7106D03*
D14*
X15433Y7106D03*
D13*
X14016Y6280D03*
X14724Y6280D03*
D14*
X15433Y6280D03*
D10*
X13012Y6693D03*
X12343Y6693D03*
X12343Y7323D03*
X13012Y7323D03*
D18*
X12098Y5748D03*
X12598Y4998D03*
X13098Y5748D03*
D19*
X12469Y4409D03*
X11469Y4409D03*
D11*
X11496Y5689D03*
X11496Y5020D03*
X10000Y5217D03*
X10000Y4547D03*
D19*
X13098Y3622D03*
X12098Y3622D03*
X13098Y3071D03*
X12098Y3071D03*
D20*
X13150Y1075D03*
X13150Y2075D03*
X12598Y1075D03*
X12598Y2075D03*
X12047Y1075D03*
X12047Y2075D03*
X11496Y1075D03*
X11496Y2075D03*
X10945Y1075D03*
X10945Y2075D03*
X10394Y1075D03*
X10394Y2075D03*
D21*
X8634Y2913D03*
X9634Y2913D03*
X8555Y2421D03*
X9555Y2421D03*
X8555Y1929D03*
X9555Y1929D03*
D22*
X9504Y1294D02*
X9504Y754D01*
X8504Y754D02*
X8504Y1294D01*
X7504Y1294D02*
X7504Y754D01*
D10*
X4114Y3465D03*
X3445Y3465D03*
D22*
X15626Y14769D02*
X15626Y15309D01*
X14626Y15309D02*
X14626Y14769D01*
X13626Y14769D02*
X13626Y15309D01*
X12626Y15309D02*
X12626Y14769D01*
X11626Y14769D02*
X11626Y15309D01*
X9626Y15309D02*
X9626Y14769D01*
X10626Y14769D02*
X10626Y15309D01*
X8626Y15309D02*
X8626Y14769D01*
D23*
X5276Y2894D03*
X4488Y2520D03*
X5276Y2146D03*
D11*
X5827Y2854D03*
X5827Y2185D03*
D24*
X3248Y14449D03*
X3248Y15354D03*
X3248Y16260D03*
D25*
X5728Y15354D03*
D11*
X4114Y13543D03*
X3445Y13543D03*
D26*
X4183Y12677D03*
X2904Y12677D03*
D22*
X1839Y12801D02*
X1839Y13341D01*
X839Y13341D02*
X839Y12801D01*
D10*
X2205Y15768D03*
X2205Y15098D03*
D27*
X1339Y15994D03*
X1339Y14715D03*
D28*
X11713Y9685D02*
X12618Y9685D01*
X13012Y10079D01*
X12657Y7717D02*
X11713Y7717D01*
X12657Y7717D02*
X13012Y8071D01*
X5610Y7913D02*
X4665Y7913D01*
X4311Y8268D01*
X10827Y11949D02*
X10827Y12273D01*
X10867Y12313D01*
X10867Y12932D01*
X10551Y13248D01*
X10433Y5846D02*
X10433Y5523D01*
X10393Y5482D01*
X10393Y4863D01*
X10709Y4547D01*
X8465Y5523D02*
X8465Y5846D01*
X8465Y5523D02*
X8424Y5482D01*
X8424Y4863D01*
X8740Y4547D01*
X6496Y5523D02*
X6496Y5846D01*
X6496Y5523D02*
X6456Y5482D01*
X6456Y4863D01*
X6772Y4547D01*
X8858Y11949D02*
X8858Y12273D01*
X8899Y12313D01*
X8899Y12932D01*
X8583Y13248D01*
D29*
X4114Y13543D02*
X4114Y15335D01*
X4094Y15354D01*
X3248Y15354D01*
D30*
X5276Y2146D02*
X5787Y2146D01*
X5827Y2185D01*
D31*
X10393Y4645D02*
X10393Y4863D01*
X10295Y4547D02*
X10000Y4547D01*
X10295Y4547D02*
X10393Y4645D01*
X10709Y4547D02*
X11331Y4547D01*
X11469Y4409D01*
D29*
X4183Y12677D02*
X4114Y12746D01*
X4114Y13543D01*
D30*
X10551Y9921D02*
X10551Y9449D01*
X10551Y7874D01*
X10551Y7087D01*
D28*
X8465Y6496D02*
X8465Y5846D01*
X10709Y7717D02*
X11713Y7717D01*
X10709Y7717D02*
X10551Y7874D01*
X10433Y6425D02*
X10433Y5846D01*
X10433Y6425D02*
X10472Y6465D01*
D32*
X10472Y6465D03*
X10551Y7087D03*
D28*
X6496Y6260D02*
X6496Y5846D01*
X6496Y6260D02*
X6613Y6377D01*
X8346Y6377D02*
X8465Y6496D01*
X8346Y6377D02*
X6613Y6377D01*
D30*
X8504Y11102D02*
X8288Y11318D01*
X7717Y11318D01*
X7244Y11318D01*
X6162Y11318D01*
X5512Y11969D01*
D32*
X10315Y9449D03*
D30*
X10551Y9449D01*
D32*
X7323Y13780D03*
D28*
X4035Y8976D02*
X4035Y8543D01*
X4311Y8268D01*
D31*
X8602Y4409D02*
X8740Y4547D01*
X8602Y4409D02*
X8583Y4409D01*
D32*
X8583Y4409D03*
X7008Y1859D03*
D31*
X6681Y2185D01*
X5827Y2185D01*
D28*
X8504Y11024D02*
X8504Y11102D01*
X6102Y7913D02*
X5610Y7913D01*
X7559Y10079D02*
X8504Y11024D01*
X6220Y8031D02*
X6102Y7913D01*
D30*
X10336Y6871D02*
X10551Y7087D01*
X10336Y6871D02*
X10304Y6871D01*
X10126Y6693D01*
X8661Y6693D01*
X8465Y6496D01*
D28*
X7559Y10079D02*
X7087Y10079D01*
X6220Y9213D01*
X6220Y8031D01*
X8858Y11299D02*
X8858Y11949D01*
X8858Y11299D02*
X8661Y11102D01*
X11225Y9685D02*
X11713Y9685D01*
X11225Y9685D02*
X11185Y9646D01*
X10827Y9646D01*
X10551Y9921D01*
D30*
X10551Y10158D01*
X10315Y11102D02*
X10236Y11102D01*
X8661Y11102D01*
X8504Y11102D01*
X10315Y11102D02*
X10492Y10925D01*
X10492Y10217D02*
X10551Y10158D01*
X10492Y10217D02*
X10492Y10925D01*
D28*
X10673Y11102D02*
X10818Y11248D01*
X10818Y11940D02*
X10827Y11949D01*
X10818Y11940D02*
X10818Y11248D01*
X10673Y11102D02*
X10236Y11102D01*
D31*
X8661Y11102D02*
X8504Y11102D01*
D30*
X5512Y11969D02*
X5512Y12205D01*
X5039Y12677D01*
X4183Y12677D01*
D31*
X6850Y14252D02*
X7323Y13780D01*
X6850Y14252D02*
X5906Y14252D01*
D28*
X11713Y9882D02*
X11719Y9888D01*
X12065Y9888D01*
X12256Y10079D02*
X12343Y10079D01*
X12256Y10079D02*
X12065Y9888D01*
X12185Y7913D02*
X11713Y7913D01*
X12185Y7913D02*
X12343Y8071D01*
X5610Y8110D02*
X5138Y8110D01*
X4980Y8268D01*
X10630Y5846D02*
X10630Y5295D01*
X10709Y5217D01*
X6693Y5295D02*
X6693Y5846D01*
X6693Y5295D02*
X6772Y5217D01*
X8661Y5295D02*
X8661Y5846D01*
X8661Y5295D02*
X8740Y5217D01*
X8661Y11949D02*
X8661Y12500D01*
X8583Y12579D01*
X6693Y12500D02*
X6693Y11949D01*
X6693Y12500D02*
X6614Y12579D01*
X10630Y12500D02*
X10630Y11949D01*
X10630Y12500D02*
X10551Y12579D01*
X5610Y9882D02*
X5098Y9882D01*
X4980Y9764D01*
D32*
X10866Y8031D03*
D28*
X10984Y7913D02*
X11713Y7913D01*
X10984Y7913D02*
X10866Y8031D01*
D32*
X9449Y16457D03*
X10866Y16535D03*
X12126Y16693D03*
X3386Y866D03*
X4961Y5039D03*
X1575Y11575D03*
X2205Y14409D03*
X7165Y15512D03*
X4567Y11732D03*
X4252Y18425D03*
X5669Y13386D03*
X15669Y16220D03*
X15039Y15984D03*
X12677Y15984D03*
X15118Y14409D03*
X13150Y14173D03*
X5748Y6063D03*
X5827Y4252D03*
X7008Y2913D03*
X7874Y1732D03*
X9213Y4488D03*
X10551Y2598D03*
X14961Y4409D03*
X9449Y6378D03*
X9213Y7008D03*
X10945Y6378D03*
D28*
X10828Y6261D02*
X10724Y6261D01*
X10828Y6261D02*
X10945Y6378D01*
X10630Y6166D02*
X10630Y5846D01*
X10630Y6166D02*
X10724Y6261D01*
D32*
X6929Y5276D03*
X4803Y8346D03*
D31*
X4882Y8268D02*
X4980Y8268D01*
X4882Y8268D02*
X4803Y8346D01*
D32*
X7008Y9213D03*
X6299Y9764D03*
D28*
X6181Y9882D02*
X5610Y9882D01*
X6181Y9882D02*
X6299Y9764D01*
D32*
X9134Y9291D03*
X9213Y10472D03*
X8602Y11417D03*
D28*
X8661Y11476D02*
X8661Y11949D01*
X8661Y11476D02*
X8602Y11417D01*
X10630Y11654D02*
X10630Y11949D01*
X10630Y11654D02*
X10630Y11410D01*
X10570Y11350D01*
D32*
X10570Y11350D03*
X11083Y9893D03*
D31*
X10570Y11350D02*
X10630Y11410D01*
X10630Y11654D01*
D28*
X11094Y9882D02*
X11713Y9882D01*
X11094Y9882D02*
X11083Y9893D01*
D33*
X14724Y14173D02*
X14724Y5354D01*
D31*
X12656Y12597D02*
X12597Y12656D01*
X12656Y12597D02*
X13329Y12597D01*
X13387Y12656D01*
X13387Y13329D01*
X12597Y12678D02*
X12283Y12992D01*
X12597Y12678D02*
X12597Y12656D01*
X13387Y13329D02*
X13150Y13566D01*
X13150Y14173D01*
X11969Y12520D02*
X11969Y11575D01*
D32*
X11969Y11654D03*
D31*
X11102Y6378D02*
X10945Y6378D01*
X11102Y6378D01*
X11417Y6063D01*
X13642Y12480D02*
X15925Y12480D01*
X15906Y13299D02*
X13622Y13299D01*
D32*
X3780Y5984D03*
D28*
X6890Y11949D02*
X6890Y12273D01*
X6930Y12313D01*
X6930Y12932D01*
X6614Y13248D01*
X5610Y10079D02*
X5247Y10079D01*
X5246Y10080D01*
X4961Y10080D01*
X4627Y10080D01*
X4311Y9764D01*
D31*
X4961Y10080D02*
X4961Y11024D01*
D32*
X4961Y11024D03*
X6614Y13248D03*
D31*
X4783Y9291D02*
X4783Y8976D01*
X4783Y9291D02*
X4311Y9764D01*
X7874Y11949D02*
X7874Y13780D01*
X8189Y14094D01*
X8189Y15433D02*
X8740Y15984D01*
X8740Y18059D01*
X9291Y18610D01*
X8189Y15433D02*
X8189Y14094D01*
X8071Y13740D02*
X8071Y11949D01*
X8071Y13740D02*
X8425Y14094D01*
X7291Y18610D02*
X7736Y19055D01*
X8425Y14094D02*
X8740Y14094D01*
X9134Y14488D01*
X9134Y16614D02*
X9764Y17244D01*
X9764Y18898D01*
X9606Y19055D01*
X7736Y19055D01*
X9134Y16614D02*
X9134Y14488D01*
X8268Y13701D02*
X8268Y11949D01*
X8268Y13701D02*
X8504Y13937D01*
X11732Y18169D02*
X11291Y18610D01*
X11102Y15512D02*
X11102Y14488D01*
X10551Y13937D01*
X8504Y13937D01*
X11732Y16142D02*
X11732Y18169D01*
X11732Y16142D02*
X11102Y15512D01*
X8465Y11949D02*
X8465Y11614D01*
X8346Y11496D01*
D32*
X6057Y11811D03*
D31*
X6147Y11722D02*
X6147Y11612D01*
X6147Y11722D02*
X6057Y11811D01*
X6147Y11612D02*
X6263Y11496D01*
X8346Y11496D01*
X5318Y9291D02*
X5198Y9171D01*
X5198Y8957D01*
X5318Y9291D02*
X5610Y9291D01*
X5198Y8957D02*
X5197Y8956D01*
X5197Y8698D02*
X5081Y8582D01*
X5197Y8698D02*
X5197Y8956D01*
X4391Y9313D02*
X4333Y9371D01*
X4093Y9371D01*
X3937Y9527D01*
X4391Y8677D02*
X4486Y8582D01*
X4391Y8677D02*
X4391Y9313D01*
X4486Y8582D02*
X5081Y8582D01*
D32*
X4567Y11024D03*
D31*
X3937Y10394D01*
X3937Y9527D01*
X9252Y11594D02*
X9252Y11949D01*
X9252Y11594D02*
X9429Y11417D01*
D34*
X9429Y11417D03*
X9114Y11417D03*
D31*
X9055Y11476D02*
X9055Y11949D01*
X9055Y11476D02*
X9114Y11417D01*
X9291Y13248D02*
X9291Y13543D01*
X12756Y13780D02*
X12992Y13543D01*
X9528Y13780D02*
X9291Y13543D01*
X9528Y13780D02*
X12756Y13780D01*
X12992Y13543D02*
X12992Y12992D01*
X10000Y13622D02*
X9921Y13543D01*
X9921Y13248D01*
X11339Y13622D02*
X11575Y13386D01*
X11575Y12992D01*
X11339Y13622D02*
X10000Y13622D01*
X13957Y12126D02*
X14016Y12067D01*
X13957Y12126D02*
X12303Y12126D01*
D32*
X13465Y11417D03*
D31*
X13386Y11339D01*
X13091Y11339D01*
X13622Y11240D02*
X13091Y10709D01*
X13622Y11240D02*
X14016Y11240D01*
D32*
X12835Y8661D03*
D31*
X12815Y8642D01*
X12441Y8642D01*
X13307Y8720D02*
X13976Y8720D01*
X14016Y8760D01*
D32*
X13465Y6772D03*
D31*
X13465Y7165D01*
X13307Y7323D01*
X13012Y7323D01*
X13425Y6280D02*
X14016Y6280D01*
X13425Y6280D02*
X13012Y6693D01*
X9449Y11949D02*
X9449Y12421D01*
X9291Y12579D01*
D32*
X9744Y11417D03*
D31*
X9843Y11516D01*
X9843Y11949D01*
X11024Y11949D02*
X11115Y12040D01*
X11115Y12362D01*
D32*
X11115Y12362D03*
D31*
X12421Y11339D02*
X12146Y11063D01*
X11713Y11063D01*
D32*
X11102Y10947D03*
D31*
X11386Y10669D02*
X11713Y10669D01*
X11386Y10669D02*
X11107Y10947D01*
X11102Y10947D01*
D32*
X10925Y9331D03*
D31*
X11252Y9488D02*
X11713Y9488D01*
X11252Y9488D02*
X11251Y9487D01*
X11082Y9487D01*
X10925Y9331D01*
X11713Y9094D02*
X12047Y9094D01*
X12264Y9311D02*
X12441Y9311D01*
X12264Y9311D02*
X12047Y9094D01*
X11713Y8701D02*
X11142Y8701D01*
X11102Y8661D01*
D32*
X11102Y8661D03*
X10866Y7402D03*
D31*
X10984Y7520D01*
X11713Y7520D01*
X11713Y7126D02*
X12146Y7126D01*
X12343Y7323D01*
X9646Y11949D02*
X9646Y12303D01*
X9921Y12579D01*
X10039Y11949D02*
X10039Y11535D01*
X10157Y11417D01*
D32*
X10157Y11417D03*
D31*
X11634Y11339D02*
X11634Y12126D01*
X11634Y11339D02*
X11713Y11260D01*
X11713Y10866D02*
X12264Y10866D01*
X12421Y10709D01*
D32*
X11102Y10630D03*
D31*
X11260Y10472D01*
X11713Y10472D01*
D32*
X11099Y9051D03*
D31*
X11339Y9291D01*
X11713Y9291D01*
X11713Y8898D02*
X12047Y8898D01*
X12126Y8976D01*
X12894Y8976D02*
X13307Y9390D01*
X12894Y8976D02*
X12126Y8976D01*
D32*
X11102Y8268D03*
D31*
X11339Y8504D01*
X11713Y8504D01*
D32*
X11024Y7008D03*
D31*
X11339Y7323D01*
X11713Y7323D01*
X11713Y6929D02*
X12106Y6929D01*
X12343Y6693D01*
X12598Y4998D02*
X11518Y4998D01*
X11496Y5020D01*
X12598Y4998D02*
X12598Y4539D01*
X12469Y4409D01*
X9843Y5374D02*
X9843Y5846D01*
X9843Y5374D02*
X10000Y5217D01*
X9843Y5846D02*
X9843Y6299D01*
X9921Y6378D01*
X10063Y6378D01*
X10378Y6693D02*
X10567Y6693D01*
X10378Y6693D02*
X10244Y6559D01*
X10063Y6378D01*
X10567Y6693D02*
X10654Y6606D01*
X11376Y6383D02*
X11964Y6383D01*
X11376Y6383D02*
X11153Y6606D01*
X11964Y6383D02*
X11969Y6377D01*
X12469Y6377D01*
X11153Y6606D02*
X10654Y6606D01*
X12469Y6377D02*
X13098Y5748D01*
X8268Y5846D02*
X8268Y5550D01*
X8266Y5548D01*
X8266Y4254D01*
X8346Y4173D01*
X11654Y3622D02*
X12098Y3622D01*
X11102Y4173D02*
X8346Y4173D01*
X11102Y4173D02*
X11654Y3622D01*
X8071Y4213D02*
X8071Y5846D01*
X8071Y4213D02*
X8268Y4016D01*
X11890Y3071D02*
X12098Y3071D01*
X11890Y3071D02*
X10945Y4016D01*
X8268Y4016D01*
X7874Y4173D02*
X7874Y5846D01*
X10878Y3858D02*
X11972Y2765D01*
X12904Y2765D01*
X10878Y3858D02*
X8189Y3858D01*
X13150Y2520D02*
X13150Y2075D01*
X8189Y3858D02*
X7874Y4173D01*
X12904Y2765D02*
X13150Y2520D01*
X7677Y4134D02*
X7677Y5846D01*
X12598Y2441D02*
X12598Y2075D01*
X12598Y2441D02*
X12441Y2598D01*
X11942Y2598D01*
X10821Y3720D01*
X8091Y3720D01*
X7677Y4134D01*
X7480Y4094D02*
X7480Y5846D01*
X12047Y2283D02*
X12047Y2075D01*
X8031Y3543D02*
X7480Y4094D01*
X8031Y3543D02*
X10787Y3543D01*
X12047Y2283D01*
X7283Y4095D02*
X7283Y5846D01*
X11496Y2598D02*
X11496Y2075D01*
X11496Y2598D02*
X10709Y3386D01*
X9528Y3386D01*
X7993Y3386D01*
X7283Y4095D01*
X6297Y5548D02*
X6299Y5550D01*
X6299Y5846D01*
X6297Y4333D02*
X6535Y4094D01*
X6297Y4333D02*
X6297Y5548D01*
X6535Y4094D02*
X7008Y4094D01*
X10945Y2756D02*
X10945Y2075D01*
X7874Y3228D02*
X7008Y4094D01*
X7874Y3228D02*
X10472Y3228D01*
X10945Y2756D01*
D32*
X7800Y6855D03*
D31*
X7711Y6766D01*
X7711Y6756D01*
X7490Y6535D01*
X5610Y6535D01*
D32*
X7483Y6850D03*
D31*
X7071Y6701D02*
X7040Y6732D01*
X7071Y6701D02*
X7333Y6701D01*
X7483Y6850D01*
X7040Y6732D02*
X5610Y6732D01*
D32*
X7165Y6929D03*
D31*
X5610Y6929D01*
D32*
X6941Y7165D03*
D31*
X6901Y7126D01*
X5610Y7126D01*
D32*
X10917Y10366D03*
D31*
X11008Y10276D01*
X11713Y10276D01*
X11713Y10079D02*
X11267Y10079D01*
D32*
X10760Y10658D03*
D31*
X11209Y10137D02*
X11267Y10079D01*
X11209Y10137D02*
X10824Y10137D01*
X10760Y10531D02*
X10760Y10658D01*
X10689Y10272D02*
X10824Y10137D01*
X10689Y10272D02*
X10689Y10461D01*
X10760Y10531D01*
D32*
X7559Y2677D03*
D31*
X8249Y1987D02*
X8249Y1802D01*
X8249Y1987D02*
X7559Y2677D01*
X8504Y1547D02*
X8504Y1024D01*
X8504Y1547D02*
X8249Y1802D01*
D30*
X4488Y2520D02*
X3701Y2520D01*
X3425Y2244D01*
D32*
X3425Y2244D03*
D31*
X3445Y2776D02*
X3445Y3465D01*
X3445Y2776D02*
X3701Y2520D01*
D32*
X4094Y4094D03*
D31*
X4094Y3484D01*
X4114Y3465D01*
D32*
X6378Y11050D03*
D31*
X6289Y11140D01*
X6089Y11140D01*
X5969Y11260D02*
X5610Y11260D01*
X5969Y11260D02*
X6089Y11140D01*
D32*
X6695Y11050D03*
D31*
X5623Y11050D02*
X5610Y11063D01*
X6472Y10822D02*
X6606Y10956D01*
X5982Y11050D02*
X5623Y11050D01*
X6606Y10961D02*
X6695Y11050D01*
X6606Y10961D02*
X6606Y10956D01*
X6472Y10822D02*
X6210Y10822D01*
X5982Y11050D01*
D32*
X7137Y11050D03*
D31*
X7018Y11050D01*
X6152Y10684D02*
X5970Y10866D01*
X5610Y10866D01*
X6651Y10684D02*
X7018Y11050D01*
X6651Y10684D02*
X6152Y10684D01*
D32*
X7480Y11050D03*
D31*
X5971Y10669D02*
X5610Y10669D01*
X5971Y10669D02*
X6095Y10545D01*
X6975Y10545D02*
X7480Y11050D01*
X6975Y10545D02*
X6095Y10545D01*
D32*
X7737Y10858D03*
D31*
X7610Y10858D01*
X6037Y10406D02*
X5971Y10472D01*
X5610Y10472D01*
X7159Y10406D02*
X7610Y10858D01*
X7159Y10406D02*
X6037Y10406D01*
D32*
X7993Y11050D03*
D31*
X5980Y10267D02*
X5972Y10276D01*
X5610Y10276D01*
X7965Y11022D02*
X7993Y11050D01*
X7965Y11022D02*
X7965Y10764D01*
X7469Y10267D01*
X5980Y10267D01*
X5827Y2854D02*
X5315Y2854D01*
X5276Y2894D01*
X5236Y7520D02*
X5610Y7520D01*
X5236Y7520D02*
X5118Y7402D01*
X5118Y5512D01*
X5276Y5354D01*
X5276Y2894D01*
D29*
X3248Y16260D02*
X2441Y16260D01*
X1604Y16260D01*
X1339Y15994D01*
X2205Y16024D02*
X2205Y15768D01*
X2205Y16024D02*
X2441Y16260D01*
X709Y13201D02*
X839Y13071D01*
X955Y15994D02*
X1339Y15994D01*
X709Y15748D02*
X709Y13201D01*
X709Y15748D02*
X955Y15994D01*
M02*
