G04 EAGLE Gerber X2 export*
%TF.Part,Single*%
%TF.FileFunction,Other,Bottom Solder Mask*%
%TF.FilePolarity,Positive*%
%TF.GenerationSoftware,Autodesk,EAGLE,9.1.3*%
%TF.CreationDate,2018-09-28T09:40:22Z*%
G75*
%MOIN*%
%FSLAX34Y34*%
%LPD*%
%AMOC8*
5,1,8,0,0,1.08239X$1,22.5*%
G01*
%ADD10C,0.138858*%
%ADD11R,0.044370X0.048307*%
%ADD12R,0.048307X0.044370*%
%ADD13R,0.056181X0.064055*%
%ADD14C,0.064055*%
%ADD15R,0.064055X0.064055*%
%ADD16R,0.015630X0.064055*%
%ADD17R,0.064055X0.015630*%
%ADD18P,0.063861X8X202.500000*%
%ADD19P,0.057367X8X202.500000*%
%ADD20P,0.050156X8X202.500000*%
%ADD21P,0.050156X8X112.500000*%
%ADD22P,0.050156X8X22.500000*%
%ADD23C,0.059000*%
%ADD24R,0.032559X0.028622*%
%ADD25R,0.095551X0.056181*%
%ADD26R,0.091614X0.154606*%
%ADD27R,0.089646X0.075866*%
%ADD28R,0.075866X0.089646*%


D10*
X14764Y1575D03*
X1378Y1575D03*
X1378Y18504D03*
X14764Y18504D03*
D11*
X8583Y13248D03*
X8583Y12579D03*
X6614Y13248D03*
X6614Y12579D03*
X10551Y13248D03*
X10551Y12579D03*
D12*
X13012Y10079D03*
X12343Y10079D03*
X13012Y8071D03*
X12343Y8071D03*
D11*
X10709Y4547D03*
X10709Y5217D03*
X8740Y4547D03*
X8740Y5217D03*
X6772Y4547D03*
X6772Y5217D03*
D12*
X4311Y8268D03*
X4980Y8268D03*
X4311Y9764D03*
X4980Y9764D03*
D13*
X4035Y8976D03*
X4783Y8976D03*
D14*
X14016Y13701D03*
X14724Y13701D03*
D15*
X15433Y13701D03*
D16*
X6299Y5846D03*
X6496Y5846D03*
X6693Y5846D03*
X6890Y5846D03*
X7087Y5846D03*
X7283Y5846D03*
X7480Y5846D03*
X7677Y5846D03*
X7874Y5846D03*
X8071Y5846D03*
X8268Y5846D03*
X8465Y5846D03*
X8661Y5846D03*
X8858Y5846D03*
X9055Y5846D03*
X9252Y5846D03*
X9449Y5846D03*
X9646Y5846D03*
X9843Y5846D03*
X10039Y5846D03*
X10236Y5846D03*
X10433Y5846D03*
X10630Y5846D03*
X10827Y5846D03*
X11024Y5846D03*
X6299Y11949D03*
X6496Y11949D03*
X6693Y11949D03*
X6890Y11949D03*
X7087Y11949D03*
X7283Y11949D03*
X7480Y11949D03*
X7677Y11949D03*
X7874Y11949D03*
X8071Y11949D03*
X8268Y11949D03*
X8465Y11949D03*
X8661Y11949D03*
X8858Y11949D03*
X9055Y11949D03*
X9252Y11949D03*
X9449Y11949D03*
X9646Y11949D03*
X9843Y11949D03*
X10039Y11949D03*
X10236Y11949D03*
X10433Y11949D03*
X10630Y11949D03*
X10827Y11949D03*
X11024Y11949D03*
D17*
X11713Y11260D03*
X11713Y11063D03*
X11713Y10866D03*
X11713Y10669D03*
X11713Y10472D03*
X11713Y10276D03*
X11713Y10079D03*
X11713Y9882D03*
X11713Y9685D03*
X11713Y9488D03*
X11713Y9291D03*
X11713Y9094D03*
X11713Y8898D03*
X11713Y8701D03*
X11713Y8504D03*
X11713Y8307D03*
X11713Y8110D03*
X11713Y7913D03*
X11713Y7717D03*
X11713Y7520D03*
X11713Y7323D03*
X11713Y7126D03*
X11713Y6929D03*
X11713Y6732D03*
X11713Y6535D03*
X5610Y6535D03*
X5610Y6732D03*
X5610Y6929D03*
X5610Y7126D03*
X5610Y7323D03*
X5610Y7520D03*
X5610Y7717D03*
X5610Y7913D03*
X5610Y8110D03*
X5610Y8307D03*
X5610Y8504D03*
X5610Y8701D03*
X5610Y8898D03*
X5610Y9094D03*
X5610Y9291D03*
X5610Y9488D03*
X5610Y9685D03*
X5610Y9882D03*
X5610Y10079D03*
X5610Y10276D03*
X5610Y10472D03*
X5610Y10669D03*
X5610Y10866D03*
X5610Y11063D03*
X5610Y11260D03*
D18*
X11291Y18610D03*
X11291Y17610D03*
X10291Y18610D03*
X10291Y17610D03*
X9291Y18610D03*
X9291Y17610D03*
X8291Y18610D03*
X8291Y17610D03*
X7291Y18610D03*
X7291Y17610D03*
D14*
X11575Y12992D03*
X12283Y12992D03*
D15*
X12992Y12992D03*
D12*
X9921Y13248D03*
X9921Y12579D03*
X9291Y12579D03*
X9291Y13248D03*
D14*
X14016Y12894D03*
X14724Y12894D03*
D15*
X15433Y12894D03*
D14*
X14016Y12067D03*
X14724Y12067D03*
D15*
X15433Y12067D03*
D11*
X12303Y12126D03*
X11634Y12126D03*
D14*
X14016Y11240D03*
X14724Y11240D03*
D15*
X15433Y11240D03*
D11*
X13091Y10709D03*
X12421Y10709D03*
X12421Y11339D03*
X13091Y11339D03*
D14*
X14016Y10413D03*
X14724Y10413D03*
D15*
X15433Y10413D03*
D14*
X14016Y9587D03*
X14724Y9587D03*
D15*
X15433Y9587D03*
D14*
X14016Y8760D03*
X14724Y8760D03*
D15*
X15433Y8760D03*
D12*
X13307Y8720D03*
X13307Y9390D03*
X12441Y9311D03*
X12441Y8642D03*
D14*
X14016Y7933D03*
X14724Y7933D03*
D15*
X15433Y7933D03*
D14*
X14016Y7106D03*
X14724Y7106D03*
D15*
X15433Y7106D03*
D14*
X14016Y6280D03*
X14724Y6280D03*
D15*
X15433Y6280D03*
D11*
X13012Y6693D03*
X12343Y6693D03*
X12343Y7323D03*
X13012Y7323D03*
D19*
X12098Y5748D03*
X12598Y4998D03*
X13098Y5748D03*
D20*
X12469Y4409D03*
X11469Y4409D03*
D12*
X11496Y5689D03*
X11496Y5020D03*
X10000Y5217D03*
X10000Y4547D03*
D20*
X13098Y3622D03*
X12098Y3622D03*
X13098Y3071D03*
X12098Y3071D03*
D21*
X13150Y1075D03*
X13150Y2075D03*
X12598Y1075D03*
X12598Y2075D03*
X12047Y1075D03*
X12047Y2075D03*
X11496Y1075D03*
X11496Y2075D03*
X10945Y1075D03*
X10945Y2075D03*
X10394Y1075D03*
X10394Y2075D03*
D22*
X8634Y2913D03*
X9634Y2913D03*
X8555Y2421D03*
X9555Y2421D03*
X8555Y1929D03*
X9555Y1929D03*
D23*
X9504Y1294D02*
X9504Y754D01*
X8504Y754D02*
X8504Y1294D01*
X7504Y1294D02*
X7504Y754D01*
D11*
X4114Y3465D03*
X3445Y3465D03*
D23*
X15626Y14769D02*
X15626Y15309D01*
X14626Y15309D02*
X14626Y14769D01*
X13626Y14769D02*
X13626Y15309D01*
X12626Y15309D02*
X12626Y14769D01*
X11626Y14769D02*
X11626Y15309D01*
X9626Y15309D02*
X9626Y14769D01*
X10626Y14769D02*
X10626Y15309D01*
X8626Y15309D02*
X8626Y14769D01*
D24*
X5276Y2894D03*
X4488Y2520D03*
X5276Y2146D03*
D12*
X5827Y2854D03*
X5827Y2185D03*
D25*
X3248Y14449D03*
X3248Y15354D03*
X3248Y16260D03*
D26*
X5728Y15354D03*
D12*
X4114Y13543D03*
X3445Y13543D03*
D27*
X4183Y12677D03*
X2904Y12677D03*
D23*
X1839Y12801D02*
X1839Y13341D01*
X839Y13341D02*
X839Y12801D01*
D11*
X2205Y15768D03*
X2205Y15098D03*
D28*
X1339Y15994D03*
X1339Y14715D03*
M02*
