M48
;GenerationSoftware,Autodesk,EAGLE,9.1.3*%
;CreationDate,2018-09-28T09:40:21Z*%
FMAT,2
ICI,OFF
INCH,TZ,000.000
T7C0.014
T6C0.016
T5C0.028
T4C0.032
T3C0.036
T2C0.039
T1C0.134
%
G90
M72
T1
X138Y1850
X1476Y1850
X1476Y157
X138Y157
T2
X1402Y1289
X1299Y1299
X1228Y1299
X1157Y1299
X1543Y1370
X1472Y1370
X1543Y628
X1472Y628
X1402Y628
X1543Y711
X1472Y711
X1402Y711
X1543Y793
X1472Y793
X1402Y793
X1543Y876
X1472Y1207
X1472Y876
X1402Y876
X1543Y959
X1472Y959
X1402Y959
X1543Y1041
X1402Y1370
X1472Y1041
X1402Y1041
X1543Y1124
X1472Y1124
X1402Y1124
X1543Y1207
X1402Y1207
X1543Y1289
X1472Y1289
T3
X84Y1307
X1129Y1861
X1129Y1761
X1029Y1861
X1029Y1761
X929Y1861
X929Y1761
X829Y1861
X829Y1761
X729Y1861
X729Y1761
X950Y102
X850Y102
X750Y102
X1563Y1504
X1463Y1504
X1363Y1504
X1263Y1504
X1163Y1504
X963Y1504
X1063Y1504
X863Y1504
X184Y1307
T4
X1210Y575
X1260Y500
X1310Y575
T5
X956Y193
X1247Y441
X1147Y441
X1310Y362
X1210Y362
X1310Y307
X1210Y307
X1315Y107
X1315Y207
X1260Y107
X1260Y207
X1205Y107
X1205Y207
X1150Y107
X1150Y207
X1094Y107
X1094Y207
X1039Y207
X863Y291
X963Y291
X856Y242
X956Y242
X856Y193
X1039Y107
T6
X921Y449
X1055Y260
X1496Y441
X945Y638
X921Y701
X1094Y638
X693Y528
X480Y835
X701Y921
X630Y976
X913Y929
X921Y1047
X860Y1142
X1057Y1135
X1197Y1165
X378Y598
X496Y1102
X661Y1325
X606Y1181
X694Y717
X717Y693
X748Y685
X780Y686
X1110Y827
X1110Y905
X1110Y1063
X220Y1441
X1087Y740
X1110Y866
X1093Y933
X1110Y1095
X1111Y1236
X974Y1142
X1346Y677
X1283Y866
X1346Y1142
X457Y1102
X1016Y1142
X1047Y646
X1055Y709
X1031Y945
X732Y1378
X858Y441
X701Y186
X1087Y803
X945Y1646
X1087Y1654
X1213Y1669
X339Y87
X496Y504
X157Y1157
X717Y1551
X457Y1173
X425Y1843
X567Y1339
X1567Y1622
X1268Y1598
X1504Y1598
X1512Y1441
X1315Y1417
X575Y606
X583Y425
X701Y291
X1108Y989
X799Y1105
X774Y1086
X748Y1105
X714Y1105
X670Y1105
X638Y1105
X409Y409
X343Y224
X756Y268
X1102Y701
X1076Y1066
X1092Y1037
X787Y173
T7
X943Y1142
X911Y1142
M30