M48
;GenerationSoftware,Autodesk,EAGLE,9.1.3*%
;CreationDate,2018-09-28T10:07:25Z*%
FMAT,2
ICI,OFF
INCH,TZ,00.0000
T7C0.0138
T6C0.0157
T5C0.0276
T4C0.0320
T3C0.0360
T2C0.0394
T1C0.1339
%
G90
M72
T1
X1378Y18504
X14764Y18504
X14764Y1575
X1378Y1575
T2
X14016Y12894
X12992Y12992
X12283Y12992
X11575Y12992
X15433Y13701
X14724Y13701
X15433Y6280
X14724Y6280
X14016Y6280
X15433Y7106
X14724Y7106
X14016Y7106
X15433Y7933
X14724Y7933
X14016Y7933
X15433Y8760
X14724Y12067
X14724Y8760
X14016Y8760
X15433Y9587
X14724Y9587
X14016Y9587
X15433Y10413
X14016Y13701
X14724Y10413
X14016Y10413
X15433Y11240
X14724Y11240
X14016Y11240
X15433Y12067
X14016Y12067
X15433Y12894
X14724Y12894
T3
X839Y13071
X11291Y18610
X11291Y17610
X10291Y18610
X10291Y17610
X9291Y18610
X9291Y17610
X8291Y18610
X8291Y17610
X7291Y18610
X7291Y17610
X9504Y1024
X8504Y1024
X7504Y1024
X15626Y15039
X14626Y15039
X13626Y15039
X12626Y15039
X11626Y15039
X9626Y15039
X10626Y15039
X8626Y15039
X1839Y13071
T4
X12098Y5748
X12598Y4998
X13098Y5748
T5
X9555Y1929
X12469Y4409
X11469Y4409
X13098Y3622
X12098Y3622
X13098Y3071
X12098Y3071
X13150Y1075
X13150Y2075
X12598Y1075
X12598Y2075
X12047Y1075
X12047Y2075
X11496Y1075
X11496Y2075
X10945Y1075
X10945Y2075
X10394Y2075
X8634Y2913
X9634Y2913
X8555Y2421
X9555Y2421
X8555Y1929
X10394Y1075
T6
X9213Y4488
X10551Y2598
X14961Y4409
X9449Y6378
X9213Y7008
X10945Y6378
X6929Y5276
X4803Y8346
X7008Y9213
X6299Y9764
X9134Y9291
X9213Y10472
X8602Y11417
X10570Y11350
X11969Y11654
X3780Y5984
X4961Y11024
X6614Y13248
X6057Y11811
X6941Y7165
X7165Y6929
X7483Y6850
X7800Y6855
X11102Y8268
X11099Y9051
X11102Y10630
X2205Y14409
X10866Y7402
X11102Y8661
X10925Y9331
X11102Y10947
X11115Y12362
X9744Y11417
X13465Y6772
X12835Y8661
X13465Y11417
X4567Y11024
X10157Y11417
X10472Y6465
X10551Y7087
X10315Y9449
X7323Y13780
X8583Y4409
X7008Y1859
X10866Y8031
X9449Y16457
X10866Y16535
X12126Y16693
X3386Y866
X4961Y5039
X1575Y11575
X7165Y15512
X4567Y11732
X4252Y18425
X5669Y13386
X15669Y16220
X12677Y15984
X15039Y15984
X15118Y14409
X13150Y14173
X5748Y6063
X5827Y4252
X7008Y2913
X11083Y9893
X7993Y11050
X7737Y10858
X7480Y11050
X7137Y11050
X6695Y11050
X6378Y11050
X4094Y4094
X3425Y2244
X7559Y2677
X11024Y7008
X10760Y10658
X10917Y10366
X7874Y1732
T7
X9429Y11417
X9114Y11417
M30