G04 EAGLE Gerber X2 export*
%TF.Part,Single*%
%TF.FileFunction,Other,Top Solder Mask*%
%TF.FilePolarity,Positive*%
%TF.GenerationSoftware,Autodesk,EAGLE,9.1.3*%
%TF.CreationDate,2018-09-28T09:40:22Z*%
G75*
%MOIN*%
%FSLAX34Y34*%
%LPD*%
%AMOC8*
5,1,8,0,0,1.08239X$1,22.5*%
G01*
%ADD10C,0.138858*%
%ADD11C,0.064055*%
%ADD12R,0.064055X0.064055*%
%ADD13R,0.048307X0.044370*%
%ADD14P,0.063861X8X202.500000*%
%ADD15R,0.044370X0.048307*%
%ADD16P,0.057367X8X202.500000*%
%ADD17P,0.050156X8X202.500000*%
%ADD18P,0.050156X8X112.500000*%
%ADD19P,0.050156X8X22.500000*%
%ADD20R,0.087677X0.060118*%
%ADD21R,0.044370X0.064055*%
%ADD22R,0.182165X0.182165*%
%ADD23R,0.075866X0.089646*%
%ADD24R,0.089646X0.075866*%
%ADD25C,0.059000*%


D10*
X14764Y1575D03*
X1378Y1575D03*
X1378Y18504D03*
X14764Y18504D03*
D11*
X14016Y13701D03*
X14724Y13701D03*
D12*
X15433Y13701D03*
D13*
X8819Y12618D03*
X8819Y11949D03*
D14*
X11291Y18610D03*
X11291Y17610D03*
X10291Y18610D03*
X10291Y17610D03*
X9291Y18610D03*
X9291Y17610D03*
X8291Y18610D03*
X8291Y17610D03*
X7291Y18610D03*
X7291Y17610D03*
D13*
X8189Y11949D03*
X8189Y12618D03*
D11*
X11575Y12992D03*
X12283Y12992D03*
D12*
X12992Y12992D03*
D11*
X14016Y12894D03*
X14724Y12894D03*
D12*
X15433Y12894D03*
D13*
X10472Y12618D03*
X10472Y11949D03*
X9764Y11949D03*
X9764Y12618D03*
D11*
X14016Y12067D03*
X14724Y12067D03*
D12*
X15433Y12067D03*
D15*
X11476Y12126D03*
X12146Y12126D03*
D11*
X14016Y11240D03*
X14724Y11240D03*
D12*
X15433Y11240D03*
D11*
X14016Y10413D03*
X14724Y10413D03*
D12*
X15433Y10413D03*
D15*
X12382Y10472D03*
X11713Y10472D03*
X11713Y11102D03*
X12382Y11102D03*
D11*
X14016Y9587D03*
X14724Y9587D03*
D12*
X15433Y9587D03*
D15*
X12382Y9134D03*
X11713Y9134D03*
X11713Y9764D03*
X12382Y9764D03*
D11*
X14016Y8760D03*
X14724Y8760D03*
D12*
X15433Y8760D03*
D11*
X14016Y7933D03*
X14724Y7933D03*
D12*
X15433Y7933D03*
D15*
X12382Y7874D03*
X11713Y7874D03*
X11713Y8504D03*
X12382Y8504D03*
D11*
X14016Y7106D03*
X14724Y7106D03*
D12*
X15433Y7106D03*
D15*
X12382Y6614D03*
X11713Y6614D03*
X11713Y7244D03*
X12382Y7244D03*
D11*
X14016Y6280D03*
X14724Y6280D03*
D12*
X15433Y6280D03*
D16*
X12098Y5748D03*
X12598Y4998D03*
X13098Y5748D03*
D17*
X12469Y4409D03*
X11469Y4409D03*
X13098Y3622D03*
X12098Y3622D03*
X13098Y3071D03*
X12098Y3071D03*
D18*
X13150Y1075D03*
X13150Y2075D03*
X12598Y1075D03*
X12598Y2075D03*
X12047Y1075D03*
X12047Y2075D03*
X11496Y1075D03*
X11496Y2075D03*
X10945Y1075D03*
X10945Y2075D03*
X10394Y1075D03*
X10394Y2075D03*
D19*
X8634Y2913D03*
X9634Y2913D03*
X8555Y2421D03*
X9555Y2421D03*
X8555Y1929D03*
X9555Y1929D03*
D20*
X827Y14783D03*
X827Y16555D03*
X4370Y14783D03*
X4370Y16555D03*
D21*
X8071Y3484D03*
X7480Y3484D03*
X6890Y3484D03*
X6299Y3484D03*
X5118Y3484D03*
X3937Y3484D03*
X5709Y3484D03*
X4528Y3484D03*
X3346Y3484D03*
X8071Y10374D03*
X7480Y10374D03*
X6890Y10374D03*
X6299Y10374D03*
X5118Y10374D03*
X3937Y10374D03*
X5709Y10374D03*
X4528Y10374D03*
X3346Y10374D03*
D22*
X5866Y7323D03*
D23*
X9843Y8986D03*
X9843Y7707D03*
D24*
X5030Y1260D03*
X6309Y1260D03*
D13*
X5335Y2126D03*
X6004Y2126D03*
X5374Y2677D03*
X4705Y2677D03*
D25*
X9504Y1294D02*
X9504Y754D01*
X8504Y754D02*
X8504Y1294D01*
X7504Y1294D02*
X7504Y754D01*
D15*
X3957Y2677D03*
X3287Y2677D03*
X7028Y2677D03*
X6358Y2677D03*
D25*
X15626Y14769D02*
X15626Y15309D01*
X14626Y15309D02*
X14626Y14769D01*
X13626Y14769D02*
X13626Y15309D01*
X12626Y15309D02*
X12626Y14769D01*
X11626Y14769D02*
X11626Y15309D01*
X9626Y15309D02*
X9626Y14769D01*
X10626Y14769D02*
X10626Y15309D01*
X8626Y15309D02*
X8626Y14769D01*
X1839Y13341D02*
X1839Y12801D01*
X839Y12801D02*
X839Y13341D01*
M02*
